<svg width="4215" height="1035" xmlns="http://www.w3.org/2000/svg" xmlns:xlink="http://www.w3.org/1999/xlink" xml:space="preserve" overflow="hidden"><g transform="translate(-195 -188)"><path d="M0 0 4006.75 0.686417" stroke="#000000" stroke-width="6.875" stroke-miterlimit="8" fill="none" fill-rule="evenodd" transform="matrix(1 0 0 -1 199.5 646.186)"/><rect x="224.5" y="404.5" width="498" height="240" stroke="#000000" stroke-width="6.875" stroke-miterlimit="8" fill="#FFFFFF"/><text font-family="Yu Gothic,Yu Gothic_MSFontService,sans-serif" font-weight="400" font-size="110" transform="matrix(1 0 0 1 305.523 493)">802.11</text><text font-family="Yu Gothic,Yu Gothic_MSFontService,sans-serif" font-weight="400" font-size="110" transform="matrix(1 0 0 1 308.09 625)">ヘッダ</text><rect x="719.5" y="404.5" width="421" height="240" stroke="#000000" stroke-width="6.875" stroke-miterlimit="8" fill="#FFFFFF"/><text font-family="Yu Gothic,Yu Gothic_MSFontService,sans-serif" font-weight="400" font-size="110" transform="matrix(1 0 0 1 825.949 493)">LLC</text><text font-family="Yu Gothic,Yu Gothic_MSFontService,sans-serif" font-weight="400" font-size="110" transform="matrix(1 0 0 1 764.349 625)">ヘッダ</text><rect x="2316.5" y="404.5" width="435" height="240" stroke="#000000" stroke-width="6.875" stroke-miterlimit="8" fill="#FFFFFF"/><text font-family="Yu Gothic,Yu Gothic_MSFontService,sans-serif" font-weight="400" font-size="110" transform="matrix(1 0 0 1 2365.87 493)">802.11</text><text font-family="Yu Gothic,Yu Gothic_MSFontService,sans-serif" font-weight="400" font-size="110" transform="matrix(1 0 0 1 2427.74 625)">FCS</text><rect x="1138.5" y="404.5" width="398" height="240" stroke="#000000" stroke-width="6.875" stroke-miterlimit="8" fill="#FFFFFF"/><text font-family="Yu Gothic,Yu Gothic_MSFontService,sans-serif" font-weight="400" font-size="110" transform="matrix(1 0 0 1 1284.15 493)">IP</text><text font-family="Yu Gothic,Yu Gothic_MSFontService,sans-serif" font-weight="400" font-size="110" transform="matrix(1 0 0 1 1171.56 625)">ヘッダ</text><rect x="1534.5" y="404.5" width="782" height="240" stroke="#000000" stroke-width="6.875" stroke-miterlimit="8" fill="#FFFFFF"/><text font-family="Yu Gothic,Yu Gothic_MSFontService,sans-serif" font-weight="400" font-size="110" transform="matrix(1 0 0 1 1872.47 493)">IP</text><text font-family="Yu Gothic,Yu Gothic_MSFontService,sans-serif" font-weight="400" font-size="110" transform="matrix(1 0 0 1 1649.9 625)">ペイロード</text><rect x="2929.5" y="405.5" width="434" height="240" stroke="#000000" stroke-width="6.875" stroke-miterlimit="8" fill="#FFFFFF"/><text font-family="Yu Gothic,Yu Gothic_MSFontService,sans-serif" font-weight="400" font-size="110" transform="matrix(1 0 0 1 2978.72 494)">802.11</text><text font-family="Yu Gothic,Yu Gothic_MSFontService,sans-serif" font-weight="400" font-size="110" transform="matrix(1 0 0 1 3034.87 626)">ACK</text><path d="M2774.42 521.116 2907.21 521.423 2907.2 528.298 2774.41 527.991ZM2778.97 538.314 2751.5 524.5 2779.03 510.814ZM2902.65 511.1 2930.12 524.914 2902.59 538.6Z"/><text font-family="Yu Gothic,Yu Gothic_MSFontService,sans-serif" font-weight="400" font-size="110" transform="matrix(1 0 0 1 2754.86 765)">SIFS</text><rect x="3746.5" y="404.5" width="645" height="241" stroke="#000000" stroke-width="6.875" stroke-miterlimit="8" fill="#FFFFFF"/><text font-family="Yu Gothic,Yu Gothic_MSFontService,sans-serif" font-weight="400" font-size="110" transform="matrix(1 0 0 1 3793.67 559)">次フレーム</text><path d="M22.9191-3.42323 359.727-3.21358 359.723 3.66142 22.9148 3.45176ZM27.4914 13.7671 0 0 27.5086-13.7329ZM355.15-13.5289 382.642 0.238189 355.133 13.9711Z" transform="matrix(1 0 0 -1 3363.5 524.738)"/><text font-family="Yu Gothic,Yu Gothic_MSFontService,sans-serif" font-weight="400" font-size="110" transform="matrix(1 0 0 1 3368.01 736)">DCF</text><text font-family="Yu Gothic,Yu Gothic_MSFontService,sans-serif" font-weight="400" font-size="110" transform="matrix(1 0 0 1 3205 868)">バックオフ</text><text font-family="Yu Gothic,Yu Gothic_MSFontService,sans-serif" font-weight="400" font-size="110" transform="matrix(1 0 0 1 3260 1000)">制御時間</text><path d="M224.5 645.5 224.5 1123.76" stroke="#000000" stroke-width="4.58333" stroke-miterlimit="8" fill="none" fill-rule="evenodd"/><path d="M3746.5 616.5 3746.5 1094.76" stroke="#000000" stroke-width="4.58333" stroke-miterlimit="8" fill="none" fill-rule="evenodd"/><path d="M247.414 1024.21 3723.35 1024.21 3723.35 1028.79 247.414 1028.79ZM252 1040.25 224.5 1026.5 252 1012.75ZM3718.77 1012.75 3746.27 1026.5 3718.77 1040.25Z"/><text font-family="Yu Gothic,Yu Gothic_MSFontService,sans-serif" font-weight="400" font-size="110" transform="matrix(1 0 0 1 1919.13 1125)">周期</text><text font-family="Yu Gothic,Yu Gothic_MSFontService,sans-serif" font-weight="400" font-size="110" transform="matrix(1 0 0 1 2249.13 1125)">T</text><path d="M1138.5 279.5 1138.5 425.814" stroke="#000000" stroke-width="4.58333" stroke-miterlimit="8" fill="none" fill-rule="evenodd"/><path d="M2316.5 279.5 2316.5 425.814" stroke="#000000" stroke-width="4.58333" stroke-miterlimit="8" fill="none" fill-rule="evenodd"/><path d="M1160.42 348.111 2293.34 350.492 2293.33 357.367 1160.41 354.986ZM1164.97 365.308 1137.5 351.5 1165.03 337.808ZM2288.78 340.17 2316.25 353.977 2288.72 367.669Z"/><text font-family="Yu Gothic,Yu Gothic_MSFontService,sans-serif" font-weight="400" font-size="110" transform="matrix(1 0 0 1 1393.6 322)">IP</text><text font-family="Yu Gothic,Yu Gothic_MSFontService,sans-serif" font-weight="400" font-size="110" transform="matrix(1 0 0 1 1498.45 322)">パケット長</text><path d="M0 0 0.272113 240.283" stroke="#000000" stroke-width="4.58333" stroke-miterlimit="8" fill="none" fill-rule="evenodd" transform="matrix(-1 0 0 1 2751.77 641.5)"/><path d="M246.414 772.208 2727.71 772.209 2727.71 776.792 246.414 776.792ZM251 788.25 223.5 774.5 251 760.75ZM2723.12 760.75 2750.62 774.5 2723.12 788.25Z"/><text font-family="Yu Gothic,Yu Gothic_MSFontService,sans-serif" font-weight="400" font-size="110" transform="matrix(1 0 0 1 1476.36 885)">802.11</text><text font-family="Yu Gothic,Yu Gothic_MSFontService,sans-serif" font-weight="400" font-size="110" transform="matrix(1 0 0 1 1258.93 1017)">データフレーム</text></g></svg>