<svg width="4214" height="861" xmlns="http://www.w3.org/2000/svg" xmlns:xlink="http://www.w3.org/1999/xlink" xml:space="preserve" overflow="hidden"><g transform="translate(-193 -362)"><path d="M0 0 4006.75 0.686417" stroke="#000000" stroke-width="6.875" stroke-miterlimit="8" fill="none" fill-rule="evenodd" transform="matrix(1 0 0 -1 196.5 646.186)"/><rect x="221.5" y="410.5" width="497" height="236" stroke="#000000" stroke-width="6.875" stroke-miterlimit="8" fill="#FFFFFF"/><text font-family="Yu Gothic,Yu Gothic_MSFontService,sans-serif" font-weight="400" font-size="110" transform="matrix(1 0 0 1 302.04 497)">802.11</text><text font-family="Yu Gothic,Yu Gothic_MSFontService,sans-serif" font-weight="400" font-size="110" transform="matrix(1 0 0 1 304.607 629)">ヘッダ</text><rect x="715.5" y="410.5" width="421" height="236" stroke="#000000" stroke-width="6.875" stroke-miterlimit="8" fill="#FFFFFF"/><text font-family="Yu Gothic,Yu Gothic_MSFontService,sans-serif" font-weight="400" font-size="110" transform="matrix(1 0 0 1 822.466 497)">LLC</text><text font-family="Yu Gothic,Yu Gothic_MSFontService,sans-serif" font-weight="400" font-size="110" transform="matrix(1 0 0 1 760.866 629)">ヘッダ</text><rect x="2313.5" y="410.5" width="435" height="236" stroke="#000000" stroke-width="6.875" stroke-miterlimit="8" fill="#FFFFFF"/><text font-family="Yu Gothic,Yu Gothic_MSFontService,sans-serif" font-weight="400" font-size="110" transform="matrix(1 0 0 1 2362.82 497)">802.11</text><text font-family="Yu Gothic,Yu Gothic_MSFontService,sans-serif" font-weight="400" font-size="110" transform="matrix(1 0 0 1 2424.69 629)">FCS</text><rect x="1134.5" y="410.5" width="398" height="236" stroke="#000000" stroke-width="6.875" stroke-miterlimit="8" fill="#FFFFFF"/><text font-family="Yu Gothic,Yu Gothic_MSFontService,sans-serif" font-weight="400" font-size="110" transform="matrix(1 0 0 1 1280.66 497)">IP</text><text font-family="Yu Gothic,Yu Gothic_MSFontService,sans-serif" font-weight="400" font-size="110" transform="matrix(1 0 0 1 1168.07 629)">ヘッダ</text><rect x="1530.5" y="410.5" width="783" height="236" stroke="#000000" stroke-width="6.875" stroke-miterlimit="8" fill="#FFFFFF"/><text font-family="Yu Gothic,Yu Gothic_MSFontService,sans-serif" font-weight="400" font-size="110" transform="matrix(1 0 0 1 1868.99 497)">IP</text><text font-family="Yu Gothic,Yu Gothic_MSFontService,sans-serif" font-weight="400" font-size="110" transform="matrix(1 0 0 1 1646.42 629)">ペイロード</text><rect x="2926.5" y="410.5" width="434" height="235" stroke="#000000" stroke-width="6.875" stroke-miterlimit="8" fill="#FFFFFF"/><text font-family="Yu Gothic,Yu Gothic_MSFontService,sans-serif" font-weight="400" font-size="110" transform="matrix(1 0 0 1 2975.24 497)">802.11</text><text font-family="Yu Gothic,Yu Gothic_MSFontService,sans-serif" font-weight="400" font-size="110" transform="matrix(1 0 0 1 3031.38 629)">ACK</text><path d="M22.9252-3.38035 155.284-3.05037 155.267 3.82461 22.908 3.49462ZM27.4656 13.8185 0 0 27.5342-13.6814ZM150.726-13.3743 178.192 0.444259 150.658 14.1257Z" transform="matrix(1 0 0 -1 2748.5 528.944)"/><text font-family="Yu Gothic,Yu Gothic_MSFontService,sans-serif" font-weight="400" font-size="110" transform="matrix(1 0 0 1 2747.21 782)">SIFS</text><rect x="3743.5" y="410.5" width="645" height="235" stroke="#000000" stroke-width="6.875" stroke-miterlimit="8" fill="#FFFFFF"/><text font-family="Yu Gothic,Yu Gothic_MSFontService,sans-serif" font-weight="400" font-size="110" transform="matrix(1 0 0 1 3790.19 562)">次フレーム</text><path d="M22.9191-3.42315 359.727-3.21222 359.723 3.66278 22.9148 3.45185ZM27.4914 13.7672 0 0 27.5086-13.7328ZM355.15-13.5276 382.642 0.239633 355.133 13.9724Z" transform="matrix(1 0 0 -1 3360.5 527.74)"/><text font-family="Yu Gothic,Yu Gothic_MSFontService,sans-serif" font-weight="400" font-size="110" transform="matrix(1 0 0 1 3410.77 738)">DCF</text><text font-family="Yu Gothic,Yu Gothic_MSFontService,sans-serif" font-weight="400" font-size="110" transform="matrix(1 0 0 1 3247.76 870)">バックオフ</text><text font-family="Yu Gothic,Yu Gothic_MSFontService,sans-serif" font-weight="400" font-size="110" transform="matrix(1 0 0 1 3302.76 1002)">制御時間</text><path d="M221.5 646.5 221.5 1124.76" stroke="#000000" stroke-width="4.58333" stroke-miterlimit="8" fill="none" fill-rule="evenodd"/><path d="M3743.5 616.5 3743.5 1094.76" stroke="#000000" stroke-width="4.58333" stroke-miterlimit="8" fill="none" fill-rule="evenodd"/><path d="M244.414 1024.21 3720.35 1024.21 3720.35 1028.79 244.414 1028.79ZM249 1040.25 221.5 1026.5 249 1012.75ZM3715.77 1012.75 3743.27 1026.5 3715.77 1040.25Z"/><text font-family="Yu Gothic,Yu Gothic_MSFontService,sans-serif" font-weight="400" font-size="110" transform="matrix(1 0 0 1 1915.65 1126)">周期</text><text font-family="Yu Gothic,Yu Gothic_MSFontService,sans-serif" font-weight="400" font-size="110" transform="matrix(1 0 0 1 2245.65 1126)">T</text><path d="M0 0 1.30535 214.495" stroke="#000000" stroke-width="4.58333" stroke-miterlimit="8" fill="none" fill-rule="evenodd" transform="matrix(-1 0 0 1 2747.81 641.5)"/><path d="M244.414 728.208 2725.29 728.209 2725.29 732.792 244.414 732.792ZM249 744.25 221.5 730.5 249 716.75ZM2720.7 716.75 2748.2 730.5 2720.7 744.25Z"/><text font-family="Yu Gothic,Yu Gothic_MSFontService,sans-serif" font-weight="400" font-size="110" transform="matrix(1 0 0 1 1046.96 847)">802.11</text><text font-family="Yu Gothic,Yu Gothic_MSFontService,sans-serif" font-weight="400" font-size="110" transform="matrix(1 0 0 1 829.53 979)">データフレーム</text></g></svg>