<svg width="2686" height="675" xmlns="http://www.w3.org/2000/svg" xmlns:xlink="http://www.w3.org/1999/xlink" xml:space="preserve" overflow="hidden"><defs><clipPath id="clip0"><rect x="240" y="451" width="2686" height="675"/></clipPath></defs><g clip-path="url(#clip0)" transform="translate(-240 -451)"><path d="M240 702.5C240 584.587 508.405 489 839.5 489 1170.59 489 1439 584.587 1439 702.5 1439 820.413 1170.59 916 839.5 916 508.405 916 240 820.413 240 702.5Z" fill="#83CBEB" fill-rule="evenodd" fill-opacity="0.490196"/><text font-family="Yu Gothic,Yu Gothic_MSFontService,sans-serif" font-weight="400" font-size="110" transform="matrix(1 0 0 1 487.398 1028)">#1</text><text font-family="Yu Gothic,Yu Gothic_MSFontService,sans-serif" font-weight="400" font-size="110" transform="matrix(1 0 0 1 1215.45 1028)">#2</text><text font-family="Yu Gothic,Yu Gothic_MSFontService,sans-serif" font-weight="400" font-size="110" transform="matrix(1 0 0 1 1928.66 1028)">#3</text><text font-family="Yu Gothic,Yu Gothic_MSFontService,sans-serif" font-weight="400" font-size="110" transform="matrix(1 0 0 1 2640.72 1028)">#4</text><path d="M1028 702C1028 583.811 1452.88 488 1977 488 2501.12 488 2926 583.811 2926 702 2926 820.189 2501.12 916 1977 916 1452.88 916 1028 820.189 1028 702Z" fill="#F88A7E" fill-rule="evenodd" fill-opacity="0.490196"/><path d="M723 687.75 1047.5 687.75 1047.5 654 1115 721.5 1047.5 789 1047.5 755.25 723 755.25Z" fill="#215F9A" fill-rule="evenodd" fill-opacity="0.490196"/><path d="M1381 686.75 2435.5 686.75 2435.5 653 2503 720.501 2435.5 788 2435.5 754.25 1381 754.25Z" fill="#C00000" fill-rule="evenodd" fill-opacity="0.490196"/><path d="M487.5 647.5 562.213 647.5" stroke="#000000" stroke-width="4.58333" stroke-miterlimit="8" fill="none" fill-rule="evenodd"/><path d="M606.5 663.5 681.213 663.5" stroke="#000000" stroke-width="4.58333" stroke-miterlimit="8" fill="none" fill-rule="evenodd"/><path d="M365.5 663.5 440.213 663.5" stroke="#000000" stroke-width="4.58333" stroke-miterlimit="8" fill="none" fill-rule="evenodd"/><path d="M382.341 685.589C371.153 679.652 474.484 681.93 522.178 681.93 569.871 681.93 668.5 680.494 668.5 685.589 668.5 690.684 569.871 712.5 522.178 712.5 475.565 703.53 393.53 691.527 382.341 685.589Z" stroke="#000000" stroke-width="4.58333" stroke-miterlimit="8" fill="#999999" fill-rule="evenodd"/><path d="M504.5 671C504.5 666.858 507.858 663.5 512 663.5L542 663.5C546.142 663.5 549.5 666.858 549.5 671L549.5 714C549.5 718.142 546.142 721.5 542 721.5L512 721.5C507.858 721.5 504.5 718.142 504.5 714Z" stroke="#000000" stroke-width="4.58333" stroke-miterlimit="8" fill="#F0ECD0" fill-rule="evenodd"/><path d="M519.5 672.5 525.5 640.5 531.5 672.5Z" stroke="#000000" stroke-width="4.58333" stroke-miterlimit="8" fill-rule="evenodd"/><path d="M638.5 685.5 644 653.5 649.5 685.5Z" stroke="#000000" stroke-width="4.58333" stroke-miterlimit="8" fill-rule="evenodd"/><path d="M394.5 685.5 400.5 653.5 406.5 685.5Z" stroke="#000000" stroke-width="4.58333" stroke-miterlimit="8" fill-rule="evenodd"/><path d="M521.5 732.5C521.5 731.395 522.395 730.5 523.5 730.5L534.5 730.5C535.605 730.5 536.5 731.395 536.5 732.5L536.5 740.5C536.5 741.604 535.605 742.5 534.5 742.5L523.5 742.5C522.395 742.5 521.5 741.604 521.5 740.5Z" stroke="#000000" stroke-width="4.58333" stroke-miterlimit="8" fill="#7F7F7F" fill-rule="evenodd"/><path d="M0 0 0.000360892 11.0531" stroke="#000000" stroke-width="4.58333" stroke-miterlimit="8" fill="none" fill-rule="evenodd" transform="matrix(1 0 0 -1 526.5 732.553)"/><path d="M0 0 0.000360892 11.0531" stroke="#000000" stroke-width="4.58333" stroke-miterlimit="8" fill="none" fill-rule="evenodd" transform="matrix(1 0 0 -1 531.5 731.553)"/><path d="M515.5 674.333C515.5 672.768 516.769 671.5 518.334 671.5L534.667 671.5C536.232 671.5 537.5 672.768 537.5 674.333L537.5 685.667C537.5 687.231 536.232 688.5 534.667 688.5L518.334 688.5C516.769 688.5 515.5 687.231 515.5 685.667Z" stroke="#000000" stroke-width="4.58333" stroke-miterlimit="8" fill="#7F7F7F" fill-rule="evenodd"/><path d="M685.08 655.409C702.321 658.273 704.397 663.322 689.717 666.686 683.963 668.005 676.17 668.924 667.51 669.305" stroke="#000000" stroke-width="1.14583" stroke-miterlimit="8" fill="none" fill-rule="evenodd"/><path d="M704.515 657.756C717.268 661.136 714.47 665.864 698.105 668.587" stroke="#000000" stroke-width="1.14583" stroke-miterlimit="8" fill="none" fill-rule="evenodd"/><path d="M718.377 659.959C721.544 661.804 721.157 663.811 717.289 665.604" stroke="#000000" stroke-width="1.14583" stroke-miterlimit="8" fill="none" fill-rule="evenodd"/><path d="M566.714 639.378C584.254 642.222 586.512 647.269 571.758 650.65 565.896 651.993 557.905 652.928 549.015 653.309" stroke="#000000" stroke-width="1.14583" stroke-miterlimit="8" fill="none" fill-rule="evenodd"/><path d="M586.274 640.719C599.397 644.113 596.533 648.89 579.74 651.618" stroke="#000000" stroke-width="1.14583" stroke-miterlimit="8" fill="none" fill-rule="evenodd"/><path d="M599.377 642.959C602.544 644.804 602.157 646.811 598.289 648.604" stroke="#000000" stroke-width="1.14583" stroke-miterlimit="8" fill="none" fill-rule="evenodd"/><path d="M447.714 658.378C465.254 661.222 467.512 666.268 452.758 669.65 446.896 670.993 438.904 671.927 430.015 672.309" stroke="#000000" stroke-width="1.14583" stroke-miterlimit="8" fill="none" fill-rule="evenodd"/><path d="M467.515 659.756C480.268 663.136 477.47 667.864 461.105 670.587" stroke="#000000" stroke-width="1.14583" stroke-miterlimit="8" fill="none" fill-rule="evenodd"/><path d="M481.303 661.931C484.58 663.795 484.18 665.826 480.18 667.635" stroke="#000000" stroke-width="1.14583" stroke-miterlimit="8" fill="none" fill-rule="evenodd"/><path d="M461.5 742.5 595.574 742.5" stroke="#000000" stroke-width="6.875" stroke-miterlimit="8" fill="none" fill-rule="evenodd"/><path d="M0 0 0.000360892 51.9779" stroke="#000000" stroke-width="6.875" stroke-miterlimit="8" fill="none" fill-rule="evenodd" transform="matrix(1 0 0 -1 464.5 794.478)"/><path d="M0 0 0.000360892 51.9779" stroke="#000000" stroke-width="6.875" stroke-miterlimit="8" fill="none" fill-rule="evenodd" transform="matrix(1 0 0 -1 508.5 794.478)"/><path d="M0 0 0.000360892 51.9779" stroke="#000000" stroke-width="6.875" stroke-miterlimit="8" fill="none" fill-rule="evenodd" transform="matrix(1 0 0 -1 552.5 794.478)"/><path d="M0 0 0.000360892 51.9779" stroke="#000000" stroke-width="6.875" stroke-miterlimit="8" fill="none" fill-rule="evenodd" transform="matrix(1 0 0 -1 595.5 794.478)"/><path d="M0 18.9999 7.50007 0 15.0001 18.9999Z" stroke="#000000" stroke-width="3.4375" stroke-miterlimit="8" fill="#FFFFFF" fill-rule="evenodd" transform="matrix(-1 1.22465e-16 1.22465e-16 1 472.5 788.5)"/><path d="M0 17.9999 7.50007 0 15.0001 17.9999Z" stroke="#000000" stroke-width="3.4375" stroke-miterlimit="8" fill="#FFFFFF" fill-rule="evenodd" transform="matrix(-1 1.22465e-16 1.22465e-16 1 516.5 787.5)"/><path d="M0 18.9999 7.50007 0 15.0001 18.9999Z" stroke="#000000" stroke-width="3.4375" stroke-miterlimit="8" fill="#FFFFFF" fill-rule="evenodd" transform="matrix(-1 1.22465e-16 1.22465e-16 1 559.5 787.5)"/><path d="M0 18.9999 7.50007 0 15.0001 18.9999Z" stroke="#000000" stroke-width="3.4375" stroke-miterlimit="8" fill="#FFFFFF" fill-rule="evenodd" transform="matrix(-1 1.22465e-16 1.22465e-16 1 603.5 786.5)"/><path d="M1212.5 647.5 1287.21 647.5" stroke="#000000" stroke-width="4.58333" stroke-miterlimit="8" fill="none" fill-rule="evenodd"/><path d="M1332.5 663.5 1407.21 663.5" stroke="#000000" stroke-width="4.58333" stroke-miterlimit="8" fill="none" fill-rule="evenodd"/><path d="M1091.5 663.5 1166.21 663.5" stroke="#000000" stroke-width="4.58333" stroke-miterlimit="8" fill="none" fill-rule="evenodd"/><path d="M1108.34 686.457C1097.19 680.711 1200.16 682.916 1247.69 682.916 1295.21 682.916 1393.5 681.526 1393.5 686.457 1393.5 691.388 1295.21 712.5 1247.69 712.5 1201.24 703.819 1119.49 692.203 1108.34 686.457Z" stroke="#000000" stroke-width="4.58333" stroke-miterlimit="8" fill="#999999" fill-rule="evenodd"/><path d="M1229.5 671C1229.5 666.858 1232.86 663.5 1237 663.5L1267 663.5C1271.14 663.5 1274.5 666.858 1274.5 671L1274.5 714C1274.5 718.142 1271.14 721.5 1267 721.5L1237 721.5C1232.86 721.5 1229.5 718.142 1229.5 714Z" stroke="#000000" stroke-width="4.58333" stroke-miterlimit="8" fill="#F0ECD0" fill-rule="evenodd"/><path d="M1245.5 672.5 1251 640.5 1256.5 672.5Z" stroke="#000000" stroke-width="4.58333" stroke-miterlimit="8" fill-rule="evenodd"/><path d="M1363.5 686.5 1369.5 654.5 1375.5 686.5Z" stroke="#000000" stroke-width="4.58333" stroke-miterlimit="8" fill-rule="evenodd"/><path d="M1120.5 686.5 1126.5 654.5 1132.5 686.5Z" stroke="#000000" stroke-width="4.58333" stroke-miterlimit="8" fill-rule="evenodd"/><path d="M1247.5 732.5C1247.5 731.395 1248.4 730.5 1249.5 730.5L1260.5 730.5C1261.6 730.5 1262.5 731.395 1262.5 732.5L1262.5 740.5C1262.5 741.604 1261.6 742.5 1260.5 742.5L1249.5 742.5C1248.4 742.5 1247.5 741.604 1247.5 740.5Z" stroke="#000000" stroke-width="4.58333" stroke-miterlimit="8" fill="#7F7F7F" fill-rule="evenodd"/><path d="M0 0 0.000360892 11.0531" stroke="#000000" stroke-width="4.58333" stroke-miterlimit="8" fill="none" fill-rule="evenodd" transform="matrix(1 0 0 -1 1251.5 732.553)"/><path d="M0 0 0.000360892 11.0531" stroke="#000000" stroke-width="4.58333" stroke-miterlimit="8" fill="none" fill-rule="evenodd" transform="matrix(1 0 0 -1 1257.5 732.553)"/><path d="M1241.5 674.333C1241.5 672.768 1242.77 671.5 1244.33 671.5L1259.67 671.5C1261.23 671.5 1262.5 672.768 1262.5 674.333L1262.5 685.667C1262.5 687.231 1261.23 688.5 1259.67 688.5L1244.33 688.5C1242.77 688.5 1241.5 687.231 1241.5 685.667Z" stroke="#000000" stroke-width="4.58333" stroke-miterlimit="8" fill="#7F7F7F" fill-rule="evenodd"/><path d="M1411.08 656.409C1428.32 659.273 1430.4 664.322 1415.72 667.686 1409.96 669.005 1402.17 669.924 1393.51 670.305" stroke="#000000" stroke-width="1.14583" stroke-miterlimit="8" fill="none" fill-rule="evenodd"/><path d="M1430.51 657.756C1443.27 661.136 1440.47 665.864 1424.11 668.587" stroke="#000000" stroke-width="1.14583" stroke-miterlimit="8" fill="none" fill-rule="evenodd"/><path d="M1444.3 659.932C1447.58 661.795 1447.18 663.826 1443.18 665.636" stroke="#000000" stroke-width="1.14583" stroke-miterlimit="8" fill="none" fill-rule="evenodd"/><path d="M1292.08 639.409C1309.32 642.273 1311.4 647.322 1296.72 650.686 1290.96 652.005 1283.17 652.924 1274.51 653.304" stroke="#000000" stroke-width="1.14583" stroke-miterlimit="8" fill="none" fill-rule="evenodd"/><path d="M1311.52 641.756C1324.27 645.136 1321.47 649.864 1305.11 652.587" stroke="#000000" stroke-width="1.14583" stroke-miterlimit="8" fill="none" fill-rule="evenodd"/><path d="M1325.38 643.959C1328.54 645.804 1328.16 647.81 1324.29 649.603" stroke="#000000" stroke-width="1.14583" stroke-miterlimit="8" fill="none" fill-rule="evenodd"/><path d="M1173.71 658.378C1191.25 661.222 1193.51 666.268 1178.76 669.65 1172.9 670.993 1164.9 671.927 1156.02 672.309" stroke="#000000" stroke-width="1.14583" stroke-miterlimit="8" fill="none" fill-rule="evenodd"/><path d="M1193.27 660.719C1206.4 664.113 1203.53 668.89 1186.74 671.618" stroke="#000000" stroke-width="1.14583" stroke-miterlimit="8" fill="none" fill-rule="evenodd"/><path d="M1206.38 662.959C1209.54 664.804 1209.16 666.811 1205.29 668.604" stroke="#000000" stroke-width="1.14583" stroke-miterlimit="8" fill="none" fill-rule="evenodd"/><path d="M1187.5 742.5 1321.57 742.5" stroke="#000000" stroke-width="6.875" stroke-miterlimit="8" fill="none" fill-rule="evenodd"/><path d="M0 0 0.000360892 51.9779" stroke="#000000" stroke-width="6.875" stroke-miterlimit="8" fill="none" fill-rule="evenodd" transform="matrix(1 0 0 -1 1190.5 794.478)"/><path d="M0 0 0.000360892 51.9779" stroke="#000000" stroke-width="6.875" stroke-miterlimit="8" fill="none" fill-rule="evenodd" transform="matrix(1 0 0 -1 1234.5 794.478)"/><path d="M0 0 0.000360892 51.9779" stroke="#000000" stroke-width="6.875" stroke-miterlimit="8" fill="none" fill-rule="evenodd" transform="matrix(1 0 0 -1 1277.5 794.478)"/><path d="M0 0 0.000360892 51.9779" stroke="#000000" stroke-width="6.875" stroke-miterlimit="8" fill="none" fill-rule="evenodd" transform="matrix(1 0 0 -1 1320.5 794.478)"/><path d="M0 17.9999 7.50007 0 15.0001 17.9999Z" stroke="#000000" stroke-width="3.4375" stroke-miterlimit="8" fill="#FFFFFF" fill-rule="evenodd" transform="matrix(-1 1.22465e-16 1.22465e-16 1 1198.5 789.5)"/><path d="M0 18.9999 7.50007 0 15.0001 18.9999Z" stroke="#000000" stroke-width="3.4375" stroke-miterlimit="8" fill="#FFFFFF" fill-rule="evenodd" transform="matrix(-1 1.22465e-16 1.22465e-16 1 1241.5 787.5)"/><path d="M0 18.9999 7.50007 0 15.0001 18.9999Z" stroke="#000000" stroke-width="3.4375" stroke-miterlimit="8" fill="#FFFFFF" fill-rule="evenodd" transform="matrix(-1 1.22465e-16 1.22465e-16 1 1285.5 787.5)"/><path d="M0 17.9999 7.50007 0 15.0001 17.9999Z" stroke="#000000" stroke-width="3.4375" stroke-miterlimit="8" fill="#FFFFFF" fill-rule="evenodd" transform="matrix(-1 1.22465e-16 1.22465e-16 1 1329.5 787.5)"/><path d="M1928.5 647.5 2003.21 647.5" stroke="#000000" stroke-width="4.58333" stroke-miterlimit="8" fill="none" fill-rule="evenodd"/><path d="M2047.5 663.5 2122.21 663.5" stroke="#000000" stroke-width="4.58333" stroke-miterlimit="8" fill="none" fill-rule="evenodd"/><path d="M1807.5 663.5 1882.21 663.5" stroke="#000000" stroke-width="4.58333" stroke-miterlimit="8" fill="none" fill-rule="evenodd"/><path d="M1823.34 685.589C1812.15 679.652 1915.48 681.93 1963.18 681.93 2010.87 681.93 2109.5 680.494 2109.5 685.589 2109.5 690.684 2010.87 712.5 1963.18 712.5 1916.57 703.53 1834.53 691.527 1823.34 685.589Z" stroke="#000000" stroke-width="4.58333" stroke-miterlimit="8" fill="#999999" fill-rule="evenodd"/><path d="M1945.5 671C1945.5 666.858 1948.86 663.5 1953 663.5L1983 663.5C1987.14 663.5 1990.5 666.858 1990.5 671L1990.5 714C1990.5 718.142 1987.14 721.5 1983 721.5L1953 721.5C1948.86 721.5 1945.5 718.142 1945.5 714Z" stroke="#000000" stroke-width="4.58333" stroke-miterlimit="8" fill="#F0ECD0" fill-rule="evenodd"/><path d="M1961.5 672.5 1967 640.5 1972.5 672.5Z" stroke="#000000" stroke-width="4.58333" stroke-miterlimit="8" fill-rule="evenodd"/><path d="M2079.5 685.5 2085 653.5 2090.5 685.5Z" stroke="#000000" stroke-width="4.58333" stroke-miterlimit="8" fill-rule="evenodd"/><path d="M1836.5 685.5 1842 653.5 1847.5 685.5Z" stroke="#000000" stroke-width="4.58333" stroke-miterlimit="8" fill-rule="evenodd"/><path d="M1963.5 732.5C1963.5 731.395 1964.4 730.5 1965.5 730.5L1975.5 730.5C1976.6 730.5 1977.5 731.395 1977.5 732.5L1977.5 740.5C1977.5 741.605 1976.6 742.5 1975.5 742.5L1965.5 742.5C1964.4 742.5 1963.5 741.605 1963.5 740.5Z" stroke="#000000" stroke-width="4.58333" stroke-miterlimit="8" fill="#7F7F7F" fill-rule="evenodd"/><path d="M0 0 0.000360892 11.0531" stroke="#000000" stroke-width="4.58333" stroke-miterlimit="8" fill="none" fill-rule="evenodd" transform="matrix(1 0 0 -1 1967.5 732.553)"/><path d="M0 0 0.000360892 11.0531" stroke="#000000" stroke-width="4.58333" stroke-miterlimit="8" fill="none" fill-rule="evenodd" transform="matrix(1 0 0 -1 1972.5 731.553)"/><path d="M1957.5 674.333C1957.5 672.768 1958.77 671.5 1960.33 671.5L1975.67 671.5C1977.23 671.5 1978.5 672.768 1978.5 674.333L1978.5 685.667C1978.5 687.231 1977.23 688.5 1975.67 688.5L1960.33 688.5C1958.77 688.5 1957.5 687.231 1957.5 685.667Z" stroke="#000000" stroke-width="4.58333" stroke-miterlimit="8" fill="#7F7F7F" fill-rule="evenodd"/><path d="M2126.71 655.378C2144.25 658.222 2146.51 663.269 2131.76 666.65 2125.9 667.993 2117.9 668.928 2109.02 669.309" stroke="#000000" stroke-width="1.14583" stroke-miterlimit="8" fill="none" fill-rule="evenodd"/><path d="M2146.27 657.719C2159.4 661.113 2156.53 665.89 2139.74 668.618" stroke="#000000" stroke-width="1.14583" stroke-miterlimit="8" fill="none" fill-rule="evenodd"/><path d="M2159.38 659.959C2162.54 661.804 2162.16 663.811 2158.29 665.604" stroke="#000000" stroke-width="1.14583" stroke-miterlimit="8" fill="none" fill-rule="evenodd"/><path d="M2007.71 639.378C2025.25 642.222 2027.51 647.269 2012.76 650.65 2006.9 651.993 1998.9 652.928 1990.02 653.309" stroke="#000000" stroke-width="1.14583" stroke-miterlimit="8" fill="none" fill-rule="evenodd"/><path d="M2027.51 640.757C2040.27 644.136 2037.47 648.864 2021.1 651.587" stroke="#000000" stroke-width="1.14583" stroke-miterlimit="8" fill="none" fill-rule="evenodd"/><path d="M2041.3 642.932C2044.58 644.795 2044.18 646.826 2040.18 648.636" stroke="#000000" stroke-width="1.14583" stroke-miterlimit="8" fill="none" fill-rule="evenodd"/><path d="M1889.08 658.409C1906.32 661.273 1908.4 666.322 1893.72 669.686 1887.96 671.005 1880.17 671.924 1871.51 672.304" stroke="#000000" stroke-width="1.14583" stroke-miterlimit="8" fill="none" fill-rule="evenodd"/><path d="M1908.51 659.756C1921.27 663.136 1918.47 667.864 1902.1 670.587" stroke="#000000" stroke-width="1.14583" stroke-miterlimit="8" fill="none" fill-rule="evenodd"/><path d="M1922.38 661.959C1925.54 663.804 1925.16 665.81 1921.29 667.604" stroke="#000000" stroke-width="1.14583" stroke-miterlimit="8" fill="none" fill-rule="evenodd"/><path d="M1903.5 742.5 2037.57 742.5" stroke="#000000" stroke-width="6.875" stroke-miterlimit="8" fill="none" fill-rule="evenodd"/><path d="M0 0 0.000360892 51.9779" stroke="#000000" stroke-width="6.875" stroke-miterlimit="8" fill="none" fill-rule="evenodd" transform="matrix(1 0 0 -1 1905.5 794.478)"/><path d="M0 0 0.000360892 51.9779" stroke="#000000" stroke-width="6.875" stroke-miterlimit="8" fill="none" fill-rule="evenodd" transform="matrix(1 0 0 -1 1950.5 794.478)"/><path d="M0 0 0.000360892 51.9779" stroke="#000000" stroke-width="6.875" stroke-miterlimit="8" fill="none" fill-rule="evenodd" transform="matrix(1 0 0 -1 1993.5 794.478)"/><path d="M0 0 0.000360892 51.9779" stroke="#000000" stroke-width="6.875" stroke-miterlimit="8" fill="none" fill-rule="evenodd" transform="matrix(1 0 0 -1 2036.5 794.478)"/><path d="M0 18.9999 7.50007 0 15.0001 18.9999Z" stroke="#000000" stroke-width="3.4375" stroke-miterlimit="8" fill="#FFFFFF" fill-rule="evenodd" transform="matrix(-1 1.22465e-16 1.22465e-16 1 1913.5 788.5)"/><path d="M0 17.9999 7.50007 0 15.0001 17.9999Z" stroke="#000000" stroke-width="3.4375" stroke-miterlimit="8" fill="#FFFFFF" fill-rule="evenodd" transform="matrix(-1 1.22465e-16 1.22465e-16 1 1957.5 787.5)"/><path d="M0 18.9999 7.50007 0 15.0001 18.9999Z" stroke="#000000" stroke-width="3.4375" stroke-miterlimit="8" fill="#FFFFFF" fill-rule="evenodd" transform="matrix(-1 1.22465e-16 1.22465e-16 1 2001.5 787.5)"/><path d="M0 18.9999 7.50007 0 15.0001 18.9999Z" stroke="#000000" stroke-width="3.4375" stroke-miterlimit="8" fill="#FFFFFF" fill-rule="evenodd" transform="matrix(-1 1.22465e-16 1.22465e-16 1 2044.5 786.5)"/><path d="M2636.5 648.5 2711.21 648.501" stroke="#000000" stroke-width="4.58333" stroke-miterlimit="8" fill="none" fill-rule="evenodd"/><path d="M2755.5 664.5 2830.21 664.5" stroke="#000000" stroke-width="4.58333" stroke-miterlimit="8" fill="none" fill-rule="evenodd"/><path d="M2515.5 664.5 2590.21 664.5" stroke="#000000" stroke-width="4.58333" stroke-miterlimit="8" fill="none" fill-rule="evenodd"/><path d="M2531.34 686.589C2520.15 680.651 2623.48 682.929 2671.18 682.929 2718.87 682.929 2817.5 681.494 2817.5 686.589 2817.5 691.684 2718.87 713.5 2671.18 713.5 2624.57 704.53 2542.53 692.526 2531.34 686.589Z" stroke="#000000" stroke-width="4.58333" stroke-miterlimit="8" fill="#999999" fill-rule="evenodd"/><path d="M2653.5 672C2653.5 667.858 2656.86 664.5 2661 664.5L2691 664.5C2695.14 664.5 2698.5 667.858 2698.5 672L2698.5 715C2698.5 719.142 2695.14 722.5 2691 722.5L2661 722.5C2656.86 722.5 2653.5 719.142 2653.5 715Z" stroke="#000000" stroke-width="4.58333" stroke-miterlimit="8" fill="#F0ECD0" fill-rule="evenodd"/><path d="M2669.5 673.5 2675 641.5 2680.5 673.5Z" stroke="#000000" stroke-width="4.58333" stroke-miterlimit="8" fill-rule="evenodd"/><path d="M2787.5 686.5 2793.5 654.5 2799.5 686.5Z" stroke="#000000" stroke-width="4.58333" stroke-miterlimit="8" fill-rule="evenodd"/><path d="M2544.5 686.5 2550 654.5 2555.5 686.5Z" stroke="#000000" stroke-width="4.58333" stroke-miterlimit="8" fill-rule="evenodd"/><path d="M2671.5 733.5C2671.5 732.395 2672.4 731.5 2673.5 731.5L2683.5 731.5C2684.6 731.5 2685.5 732.395 2685.5 733.5L2685.5 741.5C2685.5 742.604 2684.6 743.5 2683.5 743.5L2673.5 743.5C2672.4 743.5 2671.5 742.604 2671.5 741.5Z" stroke="#000000" stroke-width="4.58333" stroke-miterlimit="8" fill="#7F7F7F" fill-rule="evenodd"/><path d="M0 0 0.000360892 11.0531" stroke="#000000" stroke-width="4.58333" stroke-miterlimit="8" fill="none" fill-rule="evenodd" transform="matrix(1 0 0 -1 2675.5 733.553)"/><path d="M0 0 0.000360892 11.0531" stroke="#000000" stroke-width="4.58333" stroke-miterlimit="8" fill="none" fill-rule="evenodd" transform="matrix(1 0 0 -1 2680.5 732.553)"/><path d="M2665.5 675.333C2665.5 673.768 2666.77 672.5 2668.33 672.5L2683.67 672.5C2685.23 672.5 2686.5 673.768 2686.5 675.333L2686.5 686.667C2686.5 688.232 2685.23 689.5 2683.67 689.5L2668.33 689.5C2666.77 689.5 2665.5 688.232 2665.5 686.667Z" stroke="#000000" stroke-width="4.58333" stroke-miterlimit="8" fill="#7F7F7F" fill-rule="evenodd"/><path d="M2834.71 656.378C2852.25 659.222 2854.51 664.269 2839.76 667.65 2833.9 668.993 2825.9 669.928 2817.02 670.309" stroke="#000000" stroke-width="1.14583" stroke-miterlimit="8" fill="none" fill-rule="evenodd"/><path d="M2854.27 658.719C2867.4 662.113 2864.53 666.89 2847.74 669.618" stroke="#000000" stroke-width="1.14583" stroke-miterlimit="8" fill="none" fill-rule="evenodd"/><path d="M2867.38 660.959C2870.54 662.804 2870.16 664.81 2866.29 666.604" stroke="#000000" stroke-width="1.14583" stroke-miterlimit="8" fill="none" fill-rule="evenodd"/><path d="M2716.08 640.409C2733.32 643.273 2735.4 648.322 2720.72 651.686 2714.96 653.005 2707.17 653.924 2698.51 654.304" stroke="#000000" stroke-width="1.14583" stroke-miterlimit="8" fill="none" fill-rule="evenodd"/><path d="M2735.51 641.756C2748.27 645.136 2745.47 649.864 2729.11 652.587" stroke="#000000" stroke-width="1.14583" stroke-miterlimit="8" fill="none" fill-rule="evenodd"/><path d="M2749.3 643.931C2752.58 645.795 2752.18 647.825 2748.18 649.635" stroke="#000000" stroke-width="1.14583" stroke-miterlimit="8" fill="none" fill-rule="evenodd"/><path d="M2597.08 659.409C2614.32 662.273 2616.4 667.322 2601.72 670.686 2595.96 672.005 2588.17 672.924 2579.51 673.304" stroke="#000000" stroke-width="1.14583" stroke-miterlimit="8" fill="none" fill-rule="evenodd"/><path d="M2616.51 660.756C2629.27 664.136 2626.47 668.864 2610.1 671.587" stroke="#000000" stroke-width="1.14583" stroke-miterlimit="8" fill="none" fill-rule="evenodd"/><path d="M2630.38 662.959C2633.54 664.804 2633.16 666.81 2629.29 668.604" stroke="#000000" stroke-width="1.14583" stroke-miterlimit="8" fill="none" fill-rule="evenodd"/><path d="M2611.5 743.5 2745.57 743.5" stroke="#000000" stroke-width="6.875" stroke-miterlimit="8" fill="none" fill-rule="evenodd"/><path d="M0 0 0.000360892 51.9779" stroke="#000000" stroke-width="6.875" stroke-miterlimit="8" fill="none" fill-rule="evenodd" transform="matrix(1 0 0 -1 2613.5 795.478)"/><path d="M0 0 0.000360892 51.9779" stroke="#000000" stroke-width="6.875" stroke-miterlimit="8" fill="none" fill-rule="evenodd" transform="matrix(1 0 0 -1 2658.5 795.478)"/><path d="M0 0 0.000360892 51.9779" stroke="#000000" stroke-width="6.875" stroke-miterlimit="8" fill="none" fill-rule="evenodd" transform="matrix(1 0 0 -1 2701.5 795.478)"/><path d="M0 0 0.000360892 51.9779" stroke="#000000" stroke-width="6.875" stroke-miterlimit="8" fill="none" fill-rule="evenodd" transform="matrix(1 0 0 -1 2744.5 795.478)"/><path d="M0 18.9999 7.49989 0 14.9998 18.9999Z" stroke="#000000" stroke-width="3.4375" stroke-miterlimit="8" fill="#FFFFFF" fill-rule="evenodd" transform="matrix(-1 1.22465e-16 1.22465e-16 1 2621.5 789.5)"/><path d="M0 17.9999 7.49989 0 14.9998 17.9999Z" stroke="#000000" stroke-width="3.4375" stroke-miterlimit="8" fill="#FFFFFF" fill-rule="evenodd" transform="matrix(-1 1.22465e-16 1.22465e-16 1 2665.5 788.5)"/><path d="M0 18.9999 7.49989 0 14.9998 18.9999Z" stroke="#000000" stroke-width="3.4375" stroke-miterlimit="8" fill="#FFFFFF" fill-rule="evenodd" transform="matrix(-1 1.22465e-16 1.22465e-16 1 2709.5 788.5)"/><path d="M0 18.9999 7.9999 0 15.9998 18.9999Z" stroke="#000000" stroke-width="3.4375" stroke-miterlimit="8" fill="#FFFFFF" fill-rule="evenodd" transform="matrix(-1 1.22465e-16 1.22465e-16 1 2753.5 787.5)"/><path d="M1720 702C1720 583.811 1988.41 488 2319.5 488 2650.59 488 2919 583.811 2919 702 2919 820.189 2650.59 916 2319.5 916 1988.41 916 1720 820.189 1720 702Z" fill="#83CBEB" fill-rule="evenodd" fill-opacity="0.490196"/><path d="M2112 685.75 2437.5 685.75 2437.5 652 2505 719.5 2437.5 787 2437.5 753.25 2112 753.25Z" fill="#215F9A" fill-rule="evenodd" fill-opacity="0.490196"/><path d="M2529.62 511.105 2578 451 2574.15 530.969 2624.77 494.909 2601.12 541.42 2677 542.984 2609.91 581.148 2628.59 607.283 2601.12 621.402 2637.42 667.387 2575.82 649.641 2580.21 691.446 2540.06 671.582 2531.8 711.822 2506.51 691.446 2489.47 723.865 2472.42 701.897 2434.48 750 2432.85 703.489 2381.68 697.744 2411.41 663.761 2363 629.251 2420.2 611.463 2380.04 565.478 2441.09 559.208 2428.45 501.179 2487.29 539.343 2504.33 477.121Z" fill="#C00000" fill-rule="evenodd" fill-opacity="0.870588"/></g></svg>