<svg width="2686" height="647" xmlns="http://www.w3.org/2000/svg" xmlns:xlink="http://www.w3.org/1999/xlink" xml:space="preserve" overflow="hidden"><defs><clipPath id="clip0"><rect x="240" y="451" width="2686" height="647"/></clipPath></defs><g clip-path="url(#clip0)" transform="translate(-240 -451)"><path d="M240 687C240 575.991 508.405 486 839.5 486 1170.59 486 1439 575.991 1439 687 1439 798.009 1170.59 888 839.5 888 508.405 888 240 798.009 240 687Z" fill="#83CBEB" fill-rule="evenodd" fill-opacity="0.490196"/><text font-family="Yu Gothic,Yu Gothic_MSFontService,sans-serif" font-weight="400" font-size="110" transform="matrix(1 0 0 1 487.398 1001)">#1</text><text font-family="Yu Gothic,Yu Gothic_MSFontService,sans-serif" font-weight="400" font-size="110" transform="matrix(1 0 0 1 1215.45 1001)">#2</text><text font-family="Yu Gothic,Yu Gothic_MSFontService,sans-serif" font-weight="400" font-size="110" transform="matrix(1 0 0 1 1928.66 1001)">#3</text><text font-family="Yu Gothic,Yu Gothic_MSFontService,sans-serif" font-weight="400" font-size="110" transform="matrix(1 0 0 1 2640.72 1001)">#4</text><path d="M1028 687C1028 575.991 1452.88 486 1977 486 2501.12 486 2926 575.991 2926 687 2926 798.009 2501.12 888 1977 888 1452.88 888 1028 798.009 1028 687Z" fill="#F88A7E" fill-rule="evenodd" fill-opacity="0.490196"/><path d="M723 673.75 1051.5 673.75 1051.5 642 1115 705.5 1051.5 769 1051.5 737.25 723 737.25Z" fill="#215F9A" fill-rule="evenodd" fill-opacity="0.490196"/><path d="M1381 672.501 2440 672.501 2440 641 2503 704 2440 767 2440 735.501 1381 735.501Z" fill="#C00000" fill-rule="evenodd" fill-opacity="0.490196"/><path d="M487.5 635.5 562.213 635.5" stroke="#000000" stroke-width="4.58333" stroke-miterlimit="8" fill="none" fill-rule="evenodd"/><path d="M606.5 650.5 681.213 650.5" stroke="#000000" stroke-width="4.58333" stroke-miterlimit="8" fill="none" fill-rule="evenodd"/><path d="M365.5 650.5 440.213 650.5" stroke="#000000" stroke-width="4.58333" stroke-miterlimit="8" fill="none" fill-rule="evenodd"/><path d="M382.341 671.325C371.153 665.771 474.484 667.902 522.178 667.902 569.871 667.902 668.5 666.559 668.5 671.325 668.5 676.092 569.871 696.5 522.178 696.5 475.565 688.108 393.53 676.88 382.341 671.325Z" stroke="#000000" stroke-width="4.58333" stroke-miterlimit="8" fill="#999999" fill-rule="evenodd"/><path d="M504.5 658C504.5 653.858 507.858 650.5 512 650.5L542 650.5C546.142 650.5 549.5 653.858 549.5 658L549.5 698C549.5 702.142 546.142 705.5 542 705.5L512 705.5C507.858 705.5 504.5 702.142 504.5 698Z" stroke="#000000" stroke-width="4.58333" stroke-miterlimit="8" fill="#F0ECD0" fill-rule="evenodd"/><path d="M519.5 659.5 525.5 628.5 531.5 659.5Z" stroke="#000000" stroke-width="4.58333" stroke-miterlimit="8" fill-rule="evenodd"/><path d="M638.5 671.5 644 641.5 649.5 671.5Z" stroke="#000000" stroke-width="4.58333" stroke-miterlimit="8" fill-rule="evenodd"/><path d="M394.5 671.5 400.5 641.5 406.5 671.5Z" stroke="#000000" stroke-width="4.58333" stroke-miterlimit="8" fill-rule="evenodd"/><path d="M521.5 715.333C521.5 714.321 522.321 713.5 523.333 713.5L534.667 713.5C535.679 713.5 536.5 714.321 536.5 715.333L536.5 722.667C536.5 723.679 535.679 724.5 534.667 724.5L523.333 724.5C522.321 724.5 521.5 723.679 521.5 722.667Z" stroke="#000000" stroke-width="4.58333" stroke-miterlimit="8" fill="#7F7F7F" fill-rule="evenodd"/><path d="M0 0 0.000360892 10.3865" stroke="#000000" stroke-width="4.58333" stroke-miterlimit="8" fill="none" fill-rule="evenodd" transform="matrix(1 0 0 -1 526.5 715.886)"/><path d="M0 0 0.000360892 10.3865" stroke="#000000" stroke-width="4.58333" stroke-miterlimit="8" fill="none" fill-rule="evenodd" transform="matrix(1 0 0 -1 531.5 714.886)"/><path d="M515.5 661.167C515.5 659.694 516.694 658.5 518.167 658.5L534.833 658.5C536.306 658.5 537.5 659.694 537.5 661.167L537.5 671.833C537.5 673.306 536.306 674.5 534.833 674.5L518.167 674.5C516.694 674.5 515.5 673.306 515.5 671.833Z" stroke="#000000" stroke-width="4.58333" stroke-miterlimit="8" fill="#7F7F7F" fill-rule="evenodd"/><path d="M684.078 643.138C701.775 645.723 704.669 650.442 690.543 653.679 684.61 655.039 676.277 655.979 666.972 656.338" stroke="#000000" stroke-width="1.14583" stroke-miterlimit="8" fill="none" fill-rule="evenodd"/><path d="M703.743 645.367C717.644 648.605 714.681 653.287 697.104 655.858" stroke="#000000" stroke-width="1.14583" stroke-miterlimit="8" fill="none" fill-rule="evenodd"/><path d="M718.11 647.477C721.671 649.3 721.239 651.305 716.903 653.072" stroke="#000000" stroke-width="1.14583" stroke-miterlimit="8" fill="none" fill-rule="evenodd"/><path d="M565.698 628.111C583.695 630.676 586.779 635.392 572.587 638.644 566.552 640.027 558.016 640.982 548.476 641.342" stroke="#000000" stroke-width="1.14583" stroke-miterlimit="8" fill="none" fill-rule="evenodd"/><path d="M585.484 629.333C599.748 632.575 596.767 637.293 578.827 639.871 578.792 639.876 578.758 639.88 578.724 639.885" stroke="#000000" stroke-width="1.14583" stroke-miterlimit="8" fill="none" fill-rule="evenodd"/><path d="M599.11 631.477C602.672 633.3 602.239 635.305 597.903 637.072" stroke="#000000" stroke-width="1.14583" stroke-miterlimit="8" fill="none" fill-rule="evenodd"/><path d="M447.715 645.378C465.254 648.222 467.512 653.269 452.758 656.65 446.896 657.993 438.904 658.928 430.016 659.309" stroke="#000000" stroke-width="1.14583" stroke-miterlimit="8" fill="none" fill-rule="evenodd"/><path d="M466.743 647.367C480.644 650.605 477.681 655.287 460.104 657.858" stroke="#000000" stroke-width="1.14583" stroke-miterlimit="8" fill="none" fill-rule="evenodd"/><path d="M481.027 649.45C484.712 651.291 484.265 653.32 479.782 655.103" stroke="#000000" stroke-width="1.14583" stroke-miterlimit="8" fill="none" fill-rule="evenodd"/><path d="M461.5 724.5 595.574 724.5" stroke="#000000" stroke-width="6.875" stroke-miterlimit="8" fill="none" fill-rule="evenodd"/><path d="M0 0 0.000360892 48.8435" stroke="#000000" stroke-width="6.875" stroke-miterlimit="8" fill="none" fill-rule="evenodd" transform="matrix(1 0 0 -1 464.5 773.344)"/><path d="M0 0 0.000360892 48.8435" stroke="#000000" stroke-width="6.875" stroke-miterlimit="8" fill="none" fill-rule="evenodd" transform="matrix(1 0 0 -1 508.5 773.344)"/><path d="M0 0 0.000360892 48.8435" stroke="#000000" stroke-width="6.875" stroke-miterlimit="8" fill="none" fill-rule="evenodd" transform="matrix(1 0 0 -1 552.5 773.344)"/><path d="M0 0 0.000360892 48.8435" stroke="#000000" stroke-width="6.875" stroke-miterlimit="8" fill="none" fill-rule="evenodd" transform="matrix(1 0 0 -1 595.5 773.344)"/><path d="M0 17.9999 7.50007 0 15.0001 17.9999Z" stroke="#000000" stroke-width="3.4375" stroke-miterlimit="8" fill="#FFFFFF" fill-rule="evenodd" transform="matrix(-1 1.22465e-16 1.22465e-16 1 472.5 768.5)"/><path d="M0 16.9998 7.50007 0 15.0001 16.9998Z" stroke="#000000" stroke-width="3.4375" stroke-miterlimit="8" fill="#FFFFFF" fill-rule="evenodd" transform="matrix(-1 1.22465e-16 1.22465e-16 1 516.5 767.5)"/><path d="M0 16.9998 7.50007 0 15.0001 16.9998Z" stroke="#000000" stroke-width="3.4375" stroke-miterlimit="8" fill="#FFFFFF" fill-rule="evenodd" transform="matrix(-1 1.22465e-16 1.22465e-16 1 559.5 767.5)"/><path d="M0 17.9999 7.50007 0 15.0001 17.9999Z" stroke="#000000" stroke-width="3.4375" stroke-miterlimit="8" fill="#FFFFFF" fill-rule="evenodd" transform="matrix(-1 1.22465e-16 1.22465e-16 1 603.5 766.5)"/><path d="M1720 687C1720 575.991 1988.41 486 2319.5 486 2650.59 486 2919 575.991 2919 687 2919 798.009 2650.59 888 2319.5 888 1988.41 888 1720 798.009 1720 687Z" fill="#83CBEB" fill-rule="evenodd" fill-opacity="0.490196"/><path d="M1212.5 635.5 1287.21 635.5" stroke="#000000" stroke-width="4.58333" stroke-miterlimit="8" fill="none" fill-rule="evenodd"/><path d="M1332.5 650.5 1407.21 650.5" stroke="#000000" stroke-width="4.58333" stroke-miterlimit="8" fill="none" fill-rule="evenodd"/><path d="M1091.5 651.5 1166.21 651.5" stroke="#000000" stroke-width="4.58333" stroke-miterlimit="8" fill="none" fill-rule="evenodd"/><path d="M1108.34 672.193C1097.19 666.831 1200.16 668.888 1247.69 668.888 1295.21 668.888 1393.5 667.591 1393.5 672.193 1393.5 676.795 1295.21 696.5 1247.69 696.5 1201.24 688.398 1119.49 677.556 1108.34 672.193Z" stroke="#000000" stroke-width="4.58333" stroke-miterlimit="8" fill="#999999" fill-rule="evenodd"/><path d="M1229.5 659C1229.5 654.858 1232.86 651.5 1237 651.5L1267 651.5C1271.14 651.5 1274.5 654.858 1274.5 659L1274.5 698C1274.5 702.142 1271.14 705.5 1267 705.5L1237 705.5C1232.86 705.5 1229.5 702.142 1229.5 698Z" stroke="#000000" stroke-width="4.58333" stroke-miterlimit="8" fill="#F0ECD0" fill-rule="evenodd"/><path d="M1245.5 659.5 1251 629.5 1256.5 659.5Z" stroke="#000000" stroke-width="4.58333" stroke-miterlimit="8" fill-rule="evenodd"/><path d="M1363.5 672.5 1369.5 642.5 1375.5 672.5Z" stroke="#000000" stroke-width="4.58333" stroke-miterlimit="8" fill-rule="evenodd"/><path d="M1120.5 671.5 1126.5 641.5 1132.5 671.5Z" stroke="#000000" stroke-width="4.58333" stroke-miterlimit="8" fill-rule="evenodd"/><path d="M1247.5 716.334C1247.5 715.321 1248.32 714.5 1249.33 714.5L1260.67 714.5C1261.68 714.5 1262.5 715.321 1262.5 716.334L1262.5 723.667C1262.5 724.679 1261.68 725.5 1260.67 725.5L1249.33 725.5C1248.32 725.5 1247.5 724.679 1247.5 723.667Z" stroke="#000000" stroke-width="4.58333" stroke-miterlimit="8" fill="#7F7F7F" fill-rule="evenodd"/><path d="M0 0 0.000360892 10.3865" stroke="#000000" stroke-width="4.58333" stroke-miterlimit="8" fill="none" fill-rule="evenodd" transform="matrix(1 0 0 -1 1251.5 715.886)"/><path d="M0 0 0.000360892 10.3865" stroke="#000000" stroke-width="4.58333" stroke-miterlimit="8" fill="none" fill-rule="evenodd" transform="matrix(1 0 0 -1 1257.5 715.886)"/><path d="M1241.5 661.167C1241.5 659.694 1242.69 658.5 1244.17 658.5L1259.83 658.5C1261.31 658.5 1262.5 659.694 1262.5 661.167L1262.5 671.833C1262.5 673.306 1261.31 674.5 1259.83 674.5L1244.17 674.5C1242.69 674.5 1241.5 673.306 1241.5 671.833Z" stroke="#000000" stroke-width="4.58333" stroke-miterlimit="8" fill="#7F7F7F" fill-rule="evenodd"/><path d="M1410.08 644.138C1427.77 646.723 1430.67 651.442 1416.54 654.679 1410.61 656.039 1402.28 656.979 1392.97 657.338" stroke="#000000" stroke-width="1.14583" stroke-miterlimit="8" fill="none" fill-rule="evenodd"/><path d="M1429.74 645.367C1443.64 648.605 1440.68 653.287 1423.1 655.858" stroke="#000000" stroke-width="1.14583" stroke-miterlimit="8" fill="none" fill-rule="evenodd"/><path d="M1444.03 647.45C1447.71 649.291 1447.26 651.32 1442.78 653.103" stroke="#000000" stroke-width="1.14583" stroke-miterlimit="8" fill="none" fill-rule="evenodd"/><path d="M1291.08 628.139C1308.77 630.723 1311.67 635.442 1297.54 638.679 1291.61 640.039 1283.28 640.979 1273.97 641.338" stroke="#000000" stroke-width="1.14583" stroke-miterlimit="8" fill="none" fill-rule="evenodd"/><path d="M1311.51 629.756C1324.27 633.136 1321.47 637.864 1305.11 640.587" stroke="#000000" stroke-width="1.14583" stroke-miterlimit="8" fill="none" fill-rule="evenodd"/><path d="M1325.38 631.959C1328.54 633.804 1328.16 635.811 1324.29 637.604" stroke="#000000" stroke-width="1.14583" stroke-miterlimit="8" fill="none" fill-rule="evenodd"/><path d="M1172.7 646.111C1190.69 648.676 1193.78 653.392 1179.59 656.644 1173.55 658.027 1165.02 658.982 1155.48 659.342" stroke="#000000" stroke-width="1.14583" stroke-miterlimit="8" fill="none" fill-rule="evenodd"/><path d="M1192.48 647.333C1206.75 650.575 1203.77 655.293 1185.83 657.871 1185.79 657.876 1185.76 657.881 1185.72 657.886" stroke="#000000" stroke-width="1.14583" stroke-miterlimit="8" fill="none" fill-rule="evenodd"/><path d="M1206.11 649.477C1209.67 651.301 1209.24 653.305 1204.9 655.072" stroke="#000000" stroke-width="1.14583" stroke-miterlimit="8" fill="none" fill-rule="evenodd"/><path d="M1187.5 725.5 1321.57 725.501" stroke="#000000" stroke-width="6.875" stroke-miterlimit="8" fill="none" fill-rule="evenodd"/><path d="M0 0 0.000360892 48.8435" stroke="#000000" stroke-width="6.875" stroke-miterlimit="8" fill="none" fill-rule="evenodd" transform="matrix(1 0 0 -1 1190.5 774.344)"/><path d="M0 0 0.000360892 48.8435" stroke="#000000" stroke-width="6.875" stroke-miterlimit="8" fill="none" fill-rule="evenodd" transform="matrix(1 0 0 -1 1234.5 774.344)"/><path d="M0 0 0.000360892 48.8435" stroke="#000000" stroke-width="6.875" stroke-miterlimit="8" fill="none" fill-rule="evenodd" transform="matrix(1 0 0 -1 1277.5 774.344)"/><path d="M0 0 0.000360892 48.8435" stroke="#000000" stroke-width="6.875" stroke-miterlimit="8" fill="none" fill-rule="evenodd" transform="matrix(1 0 0 -1 1320.5 774.344)"/><path d="M0 17.9999 7.50007 0 15.0001 17.9999Z" stroke="#000000" stroke-width="3.4375" stroke-miterlimit="8" fill="#FFFFFF" fill-rule="evenodd" transform="matrix(-1 1.22465e-16 1.22465e-16 1 1198.5 768.5)"/><path d="M0 16.9998 7.50007 0 15.0001 16.9998Z" stroke="#000000" stroke-width="3.4375" stroke-miterlimit="8" fill="#FFFFFF" fill-rule="evenodd" transform="matrix(-1 1.22465e-16 1.22465e-16 1 1241.5 767.5)"/><path d="M0 17.9999 7.50007 0 15.0001 17.9999Z" stroke="#000000" stroke-width="3.4375" stroke-miterlimit="8" fill="#FFFFFF" fill-rule="evenodd" transform="matrix(-1 1.22465e-16 1.22465e-16 1 1285.5 767.5)"/><path d="M0 16.9998 7.50007 0 15.0001 16.9998Z" stroke="#000000" stroke-width="3.4375" stroke-miterlimit="8" fill="#FFFFFF" fill-rule="evenodd" transform="matrix(-1 1.22465e-16 1.22465e-16 1 1329.5 767.5)"/><path d="M1928.5 635.5 2003.21 635.5" stroke="#000000" stroke-width="4.58333" stroke-miterlimit="8" fill="none" fill-rule="evenodd"/><path d="M2047.5 650.5 2122.21 650.5" stroke="#000000" stroke-width="4.58333" stroke-miterlimit="8" fill="none" fill-rule="evenodd"/><path d="M1807.5 650.5 1882.21 650.5" stroke="#000000" stroke-width="4.58333" stroke-miterlimit="8" fill="none" fill-rule="evenodd"/><path d="M1823.34 671.325C1812.15 665.771 1915.48 667.902 1963.18 667.902 2010.87 667.902 2109.5 666.559 2109.5 671.325 2109.5 676.092 2010.87 696.5 1963.18 696.5 1916.57 688.108 1834.53 676.88 1823.34 671.325Z" stroke="#000000" stroke-width="4.58333" stroke-miterlimit="8" fill="#999999" fill-rule="evenodd"/><path d="M1945.5 658C1945.5 653.858 1948.86 650.5 1953 650.5L1983 650.5C1987.14 650.5 1990.5 653.858 1990.5 658L1990.5 698C1990.5 702.142 1987.14 705.5 1983 705.5L1953 705.5C1948.86 705.5 1945.5 702.142 1945.5 698Z" stroke="#000000" stroke-width="4.58333" stroke-miterlimit="8" fill="#F0ECD0" fill-rule="evenodd"/><path d="M1961.5 659.5 1967 628.5 1972.5 659.5Z" stroke="#000000" stroke-width="4.58333" stroke-miterlimit="8" fill-rule="evenodd"/><path d="M2079.5 671.5 2085 641.5 2090.5 671.5Z" stroke="#000000" stroke-width="4.58333" stroke-miterlimit="8" fill-rule="evenodd"/><path d="M1836.5 671.5 1842 641.5 1847.5 671.5Z" stroke="#000000" stroke-width="4.58333" stroke-miterlimit="8" fill-rule="evenodd"/><path d="M1963.5 715.333C1963.5 714.321 1964.32 713.5 1965.33 713.5L1975.67 713.5C1976.68 713.5 1977.5 714.321 1977.5 715.333L1977.5 722.667C1977.5 723.679 1976.68 724.5 1975.67 724.5L1965.33 724.5C1964.32 724.5 1963.5 723.679 1963.5 722.667Z" stroke="#000000" stroke-width="4.58333" stroke-miterlimit="8" fill="#7F7F7F" fill-rule="evenodd"/><path d="M0 0 0.000360892 10.3865" stroke="#000000" stroke-width="4.58333" stroke-miterlimit="8" fill="none" fill-rule="evenodd" transform="matrix(1 0 0 -1 1967.5 715.886)"/><path d="M0 0 0.000360892 10.3865" stroke="#000000" stroke-width="4.58333" stroke-miterlimit="8" fill="none" fill-rule="evenodd" transform="matrix(1 0 0 -1 1972.5 714.886)"/><path d="M1957.5 661.167C1957.5 659.694 1958.69 658.5 1960.17 658.5L1975.83 658.5C1977.31 658.5 1978.5 659.694 1978.5 661.167L1978.5 671.833C1978.5 673.306 1977.31 674.5 1975.83 674.5L1960.17 674.5C1958.69 674.5 1957.5 673.306 1957.5 671.833Z" stroke="#000000" stroke-width="4.58333" stroke-miterlimit="8" fill="#7F7F7F" fill-rule="evenodd"/><path d="M2125.7 643.111C2143.69 645.676 2146.78 650.392 2132.59 653.644 2126.55 655.027 2118.02 655.982 2108.48 656.342" stroke="#000000" stroke-width="1.14583" stroke-miterlimit="8" fill="none" fill-rule="evenodd"/><path d="M2145.48 645.333C2159.75 648.575 2156.77 653.293 2138.83 655.871 2138.79 655.876 2138.76 655.881 2138.72 655.885" stroke="#000000" stroke-width="1.14583" stroke-miterlimit="8" fill="none" fill-rule="evenodd"/><path d="M2159.11 647.477C2162.67 649.3 2162.24 651.305 2157.9 653.072" stroke="#000000" stroke-width="1.14583" stroke-miterlimit="8" fill="none" fill-rule="evenodd"/><path d="M2006.7 628.111C2024.69 630.676 2027.78 635.392 2013.59 638.644 2007.55 640.027 1999.02 640.982 1989.48 641.342" stroke="#000000" stroke-width="1.14583" stroke-miterlimit="8" fill="none" fill-rule="evenodd"/><path d="M2026.74 629.367C2040.64 632.605 2037.68 637.287 2020.1 639.858" stroke="#000000" stroke-width="1.14583" stroke-miterlimit="8" fill="none" fill-rule="evenodd"/><path d="M2041.03 631.45C2044.71 633.291 2044.26 635.32 2039.78 637.103" stroke="#000000" stroke-width="1.14583" stroke-miterlimit="8" fill="none" fill-rule="evenodd"/><path d="M1889.08 645.409C1906.32 648.273 1908.4 653.322 1893.72 656.687 1887.96 658.005 1880.17 658.924 1871.51 659.305" stroke="#000000" stroke-width="1.14583" stroke-miterlimit="8" fill="none" fill-rule="evenodd"/><path d="M1907.74 647.367C1921.64 650.605 1918.68 655.287 1901.1 657.858" stroke="#000000" stroke-width="1.14583" stroke-miterlimit="8" fill="none" fill-rule="evenodd"/><path d="M1922.11 649.477C1925.67 651.301 1925.24 653.305 1920.9 655.072" stroke="#000000" stroke-width="1.14583" stroke-miterlimit="8" fill="none" fill-rule="evenodd"/><path d="M1903.5 724.5 2037.57 724.5" stroke="#000000" stroke-width="6.875" stroke-miterlimit="8" fill="none" fill-rule="evenodd"/><path d="M0 0 0.000360892 48.8435" stroke="#000000" stroke-width="6.875" stroke-miterlimit="8" fill="none" fill-rule="evenodd" transform="matrix(1 0 0 -1 1905.5 773.344)"/><path d="M0 0 0.000360892 48.8435" stroke="#000000" stroke-width="6.875" stroke-miterlimit="8" fill="none" fill-rule="evenodd" transform="matrix(1 0 0 -1 1950.5 773.344)"/><path d="M0 0 0.000360892 48.8435" stroke="#000000" stroke-width="6.875" stroke-miterlimit="8" fill="none" fill-rule="evenodd" transform="matrix(1 0 0 -1 1993.5 773.344)"/><path d="M0 0 0.000360892 48.8435" stroke="#000000" stroke-width="6.875" stroke-miterlimit="8" fill="none" fill-rule="evenodd" transform="matrix(1 0 0 -1 2036.5 773.344)"/><path d="M0 17.9999 7.50007 0 15.0001 17.9999Z" stroke="#000000" stroke-width="3.4375" stroke-miterlimit="8" fill="#FFFFFF" fill-rule="evenodd" transform="matrix(-1 1.22465e-16 1.22465e-16 1 1913.5 768.5)"/><path d="M0 16.9998 7.50007 0 15.0001 16.9998Z" stroke="#000000" stroke-width="3.4375" stroke-miterlimit="8" fill="#FFFFFF" fill-rule="evenodd" transform="matrix(-1 1.22465e-16 1.22465e-16 1 1957.5 767.5)"/><path d="M0 16.9998 7.50007 0 15.0001 16.9998Z" stroke="#000000" stroke-width="3.4375" stroke-miterlimit="8" fill="#FFFFFF" fill-rule="evenodd" transform="matrix(-1 1.22465e-16 1.22465e-16 1 2001.5 767.5)"/><path d="M0 17.9999 7.50007 0 15.0001 17.9999Z" stroke="#000000" stroke-width="3.4375" stroke-miterlimit="8" fill="#FFFFFF" fill-rule="evenodd" transform="matrix(-1 1.22465e-16 1.22465e-16 1 2044.5 766.5)"/><path d="M2636.5 636.5 2711.21 636.5" stroke="#000000" stroke-width="4.58333" stroke-miterlimit="8" fill="none" fill-rule="evenodd"/><path d="M2755.5 651.5 2830.21 651.5" stroke="#000000" stroke-width="4.58333" stroke-miterlimit="8" fill="none" fill-rule="evenodd"/><path d="M2515.5 651.5 2590.21 651.5" stroke="#000000" stroke-width="4.58333" stroke-miterlimit="8" fill="none" fill-rule="evenodd"/><path d="M2531.34 672.325C2520.15 666.771 2623.48 668.902 2671.18 668.902 2718.87 668.902 2817.5 667.559 2817.5 672.325 2817.5 677.092 2718.87 697.5 2671.18 697.5 2624.57 689.108 2542.53 677.88 2531.34 672.325Z" stroke="#000000" stroke-width="4.58333" stroke-miterlimit="8" fill="#999999" fill-rule="evenodd"/><path d="M2653.5 659C2653.5 654.858 2656.86 651.5 2661 651.5L2691 651.5C2695.14 651.5 2698.5 654.858 2698.5 659L2698.5 699C2698.5 703.142 2695.14 706.5 2691 706.5L2661 706.5C2656.86 706.5 2653.5 703.142 2653.5 699Z" stroke="#000000" stroke-width="4.58333" stroke-miterlimit="8" fill="#F0ECD0" fill-rule="evenodd"/><path d="M2669.5 659.5 2675 629.5 2680.5 659.5Z" stroke="#000000" stroke-width="4.58333" stroke-miterlimit="8" fill-rule="evenodd"/><path d="M2787.5 672.5 2793.5 642.5 2799.5 672.5Z" stroke="#000000" stroke-width="4.58333" stroke-miterlimit="8" fill-rule="evenodd"/><path d="M2544.5 672.5 2550 642.5 2555.5 672.5Z" stroke="#000000" stroke-width="4.58333" stroke-miterlimit="8" fill-rule="evenodd"/><path d="M2671.5 716.333C2671.5 715.321 2672.32 714.5 2673.33 714.5L2683.67 714.5C2684.68 714.5 2685.5 715.321 2685.5 716.333L2685.5 723.667C2685.5 724.679 2684.68 725.5 2683.67 725.5L2673.33 725.5C2672.32 725.5 2671.5 724.679 2671.5 723.667Z" stroke="#000000" stroke-width="4.58333" stroke-miterlimit="8" fill="#7F7F7F" fill-rule="evenodd"/><path d="M0 0 0.000360892 10.3865" stroke="#000000" stroke-width="4.58333" stroke-miterlimit="8" fill="none" fill-rule="evenodd" transform="matrix(1 0 0 -1 2675.5 716.886)"/><path d="M0 0 0.000360892 10.3865" stroke="#000000" stroke-width="4.58333" stroke-miterlimit="8" fill="none" fill-rule="evenodd" transform="matrix(1 0 0 -1 2680.5 715.886)"/><path d="M2665.5 662.167C2665.5 660.694 2666.69 659.5 2668.17 659.5L2683.83 659.5C2685.31 659.5 2686.5 660.694 2686.5 662.167L2686.5 672.833C2686.5 674.306 2685.31 675.5 2683.83 675.5L2668.17 675.5C2666.69 675.5 2665.5 674.306 2665.5 672.833Z" stroke="#000000" stroke-width="4.58333" stroke-miterlimit="8" fill="#7F7F7F" fill-rule="evenodd"/><path d="M2833.7 644.111C2851.69 646.676 2854.78 651.392 2840.59 654.644 2834.55 656.027 2826.02 656.982 2816.48 657.342" stroke="#000000" stroke-width="1.14583" stroke-miterlimit="8" fill="none" fill-rule="evenodd"/><path d="M2853.48 646.333C2867.75 649.575 2864.77 654.293 2846.83 656.871 2846.79 656.876 2846.76 656.881 2846.72 656.885" stroke="#000000" stroke-width="1.14583" stroke-miterlimit="8" fill="none" fill-rule="evenodd"/><path d="M2867.11 648.477C2870.67 650.3 2870.24 652.305 2865.9 654.072" stroke="#000000" stroke-width="1.14583" stroke-miterlimit="8" fill="none" fill-rule="evenodd"/><path d="M2716.08 628.409C2733.32 631.273 2735.4 636.322 2720.72 639.686 2714.96 641.005 2707.17 641.924 2698.51 642.305" stroke="#000000" stroke-width="1.14583" stroke-miterlimit="8" fill="none" fill-rule="evenodd"/><path d="M2734.74 630.367C2748.64 633.605 2745.68 638.287 2728.1 640.858" stroke="#000000" stroke-width="1.14583" stroke-miterlimit="8" fill="none" fill-rule="evenodd"/><path d="M2749.03 632.449C2752.71 634.291 2752.26 636.32 2747.78 638.103" stroke="#000000" stroke-width="1.14583" stroke-miterlimit="8" fill="none" fill-rule="evenodd"/><path d="M2596.08 646.139C2613.77 648.723 2616.67 653.442 2602.54 656.679 2596.61 658.039 2588.28 658.979 2578.97 659.338" stroke="#000000" stroke-width="1.14583" stroke-miterlimit="8" fill="none" fill-rule="evenodd"/><path d="M2615.74 648.367C2629.64 651.605 2626.68 656.287 2609.1 658.858" stroke="#000000" stroke-width="1.14583" stroke-miterlimit="8" fill="none" fill-rule="evenodd"/><path d="M2630.11 650.477C2633.67 652.3 2633.24 654.305 2628.9 656.072" stroke="#000000" stroke-width="1.14583" stroke-miterlimit="8" fill="none" fill-rule="evenodd"/><path d="M2611.5 725.5 2745.57 725.501" stroke="#000000" stroke-width="6.875" stroke-miterlimit="8" fill="none" fill-rule="evenodd"/><path d="M0 0 0.000360892 48.8435" stroke="#000000" stroke-width="6.875" stroke-miterlimit="8" fill="none" fill-rule="evenodd" transform="matrix(1 0 0 -1 2613.5 774.344)"/><path d="M0 0 0.000360892 48.8435" stroke="#000000" stroke-width="6.875" stroke-miterlimit="8" fill="none" fill-rule="evenodd" transform="matrix(1 0 0 -1 2658.5 774.344)"/><path d="M0 0 0.000360892 48.8435" stroke="#000000" stroke-width="6.875" stroke-miterlimit="8" fill="none" fill-rule="evenodd" transform="matrix(1 0 0 -1 2701.5 774.344)"/><path d="M0 0 0.000360892 48.8435" stroke="#000000" stroke-width="6.875" stroke-miterlimit="8" fill="none" fill-rule="evenodd" transform="matrix(1 0 0 -1 2744.5 774.344)"/><path d="M0 16.9998 7.49989 0 14.9998 16.9998Z" stroke="#000000" stroke-width="3.4375" stroke-miterlimit="8" fill="#FFFFFF" fill-rule="evenodd" transform="matrix(-1 1.22465e-16 1.22465e-16 1 2621.5 769.5)"/><path d="M0 17.9999 7.49989 0 14.9998 17.9999Z" stroke="#000000" stroke-width="3.4375" stroke-miterlimit="8" fill="#FFFFFF" fill-rule="evenodd" transform="matrix(-1 1.22465e-16 1.22465e-16 1 2665.5 767.5)"/><path d="M0 16.9998 7.49989 0 14.9998 16.9998Z" stroke="#000000" stroke-width="3.4375" stroke-miterlimit="8" fill="#FFFFFF" fill-rule="evenodd" transform="matrix(-1 1.22465e-16 1.22465e-16 1 2709.5 768.5)"/><path d="M0 17.9999 7.9999 0 15.9998 17.9999Z" stroke="#000000" stroke-width="3.4375" stroke-miterlimit="8" fill="#FFFFFF" fill-rule="evenodd" transform="matrix(-1 1.22465e-16 1.22465e-16 1 2753.5 767.5)"/><path d="M2112 671.75 2441.5 671.75 2441.5 640 2505 703.5 2441.5 767 2441.5 735.25 2112 735.25Z" fill="#215F9A" fill-rule="evenodd" fill-opacity="0.490196"/><path d="M2529.62 507.486 2578 451 2574.15 526.154 2624.77 492.265 2601.12 535.976 2677 537.446 2609.91 573.313 2628.59 597.874 2601.12 611.144 2637.42 654.361 2575.82 637.683 2580.21 676.971 2540.06 658.302 2531.8 696.12 2506.51 676.971 2489.47 707.438 2472.42 686.793 2434.48 732 2432.85 688.289 2381.68 682.89 2411.41 650.952 2363 618.52 2420.2 601.803 2380.04 558.586 2441.09 552.693 2428.45 498.159 2487.29 534.025 2504.33 475.548Z" fill="#C00000" fill-rule="evenodd" fill-opacity="0.870588"/></g></svg>