<svg width="2947" height="1717" xmlns="http://www.w3.org/2000/svg" xmlns:xlink="http://www.w3.org/1999/xlink" xml:space="preserve" overflow="hidden"><g transform="translate(-880 -286)"><text font-family="Segoe UI,Segoe UI_MSFontService,sans-serif" font-weight="400" font-size="92" transform="matrix(1 0 0 1 977.834 1201)">STA</text><text font-family="Segoe UI,Segoe UI_MSFontService,sans-serif" font-weight="400" font-size="92" transform="matrix(1 0 0 1 1000.45 1311)">#1</text><text font-family="Segoe UI,Segoe UI_MSFontService,sans-serif" font-weight="400" font-size="92" transform="matrix(1 0 0 1 981.474 1743)">STA</text><text font-family="Segoe UI,Segoe UI_MSFontService,sans-serif" font-weight="400" font-size="92" transform="matrix(1 0 0 1 1004.09 1853)">#</text><text font-family="Segoe UI,Segoe UI_MSFontService,sans-serif" font-weight="400" font-size="92" transform="matrix(1 0 0 1 1058.52 1853)">2</text><rect x="969.5" y="516.25" width="101.25" height="102.25" fill="#FFFFFF"/><path d="M1070.75 516.25 1104.5 482.5 1104.5 584.75 1070.75 618.5Z" fill="#CDCDCD" fill-rule="evenodd"/><path d="M969.5 516.25 1003.25 482.5 1104.5 482.5 1070.75 516.25Z" fill="#FFFFFF" fill-rule="evenodd"/><path d="M969.5 516.25 1003.25 482.5 1104.5 482.5 1104.5 584.75 1070.75 618.5 969.5 618.5ZM969.5 516.25 1070.75 516.25 1104.5 482.5M1070.75 516.25 1070.75 618.5" stroke="#000000" stroke-width="4.58333" stroke-miterlimit="8" fill="none" fill-rule="evenodd"/><path d="M0 0 56.0581 0.000360892" stroke="#000000" stroke-width="4.58333" stroke-miterlimit="8" fill="none" fill-rule="evenodd" transform="matrix(-1 0 0 1 1150.56 554.5)"/><path d="M0 57.0001 40.5001 0 81.0001 57.0001Z" stroke="#000000" stroke-width="4.58333" stroke-miterlimit="8" fill="#FFFFFF" fill-rule="evenodd" transform="matrix(1 0 0 -1 1111.5 504.5)"/><path d="M0 0 56.0581 0.000360892" stroke="#000000" stroke-width="4.58333" stroke-miterlimit="8" fill="none" fill-rule="evenodd" transform="matrix(-1 0 0 1 1150.56 554.5)"/><rect x="2645.5" y="407.5" width="184" height="187" stroke="#000000" stroke-width="4.58333" stroke-miterlimit="8" fill="#FFFFFF"/><path d="M1185.5 1122.5 3783.93 1122.5" stroke="#000000" stroke-width="4.58333" stroke-miterlimit="8" fill="none" fill-rule="evenodd"/><rect x="2647.5" y="940.5" width="184" height="182" stroke="#000000" stroke-width="4.58333" stroke-miterlimit="8" fill="#FFFFFF"/><path d="M3625.5 1159.21 3724.19 1159.21 3724.19 1163.79 3625.5 1163.79ZM3719.6 1147.75 3747.1 1161.5 3719.6 1175.25Z"/><path d="M1185.5 1686.5 3783.93 1686.5" stroke="#000000" stroke-width="4.58333" stroke-miterlimit="8" fill="none" fill-rule="evenodd"/><text font-family="Segoe UI,Segoe UI_MSFontService,sans-serif" font-weight="400" font-size="92" transform="matrix(1 0 0 1 3669.88 1276)">t</text><path d="M3628.5 1724.21 3727.19 1724.21 3727.19 1728.79 3628.5 1728.79ZM3722.6 1712.75 3750.1 1726.5 3722.6 1740.25Z"/><text font-family="Segoe UI,Segoe UI_MSFontService,sans-serif" font-weight="400" font-size="92" transform="matrix(1 0 0 1 3673.23 1841)">t</text><path d="M2739.79 594.487 2741.61 917.33 2737.03 917.356 2735.21 594.513ZM2753.04 912.682 2739.45 940.259 2725.54 912.837Z"/><path d="M1440.5 594.5 1475 456.5 1871.5 456.5 1837 594.5Z" stroke="#000000" stroke-width="4.58333" stroke-miterlimit="8" fill="#C1E5F5" fill-rule="evenodd"/><text font-family="Segoe UI,Segoe UI_MSFontService,sans-serif" font-weight="400" font-size="92" transform="matrix(1 0 0 1 1561.02 555)">busy</text><path d="M1874.42 523.208 2047.86 523.209 2047.86 527.792 1874.42 527.792ZM1879 539.25 1851.5 525.5 1879 511.75ZM2043.28 511.75 2070.78 525.5 2043.28 539.25Z"/><rect x="2242.5" y="412.5" width="259" height="182" stroke="#000000" stroke-width="4.58333" stroke-miterlimit="8" fill="#FFFFFF"/><path d="M22.9514-1.91236 120.63-0.296756 120.554 4.28595 22.8756 2.67035ZM27.2688 14.2029 0 0 27.7236-13.2933ZM116.236-11.8293 143.505 2.37359 115.782 15.6669Z" transform="matrix(1 0 0 -1 2501.5 503.874)"/><text font-family="Segoe UI,Segoe UI_MSFontService,sans-serif" font-weight="400" font-size="92" transform="matrix(1 0 0 1 1878.69 502)">DIFS</text><rect x="2242.5" y="940.5" width="259" height="182" stroke="#000000" stroke-width="4.58333" stroke-miterlimit="8" fill="#FFFFFF"/><path d="M2063.5 1122.5 2095.25 982.5 2190.5 982.5 2158.75 1122.5Z" stroke="#000000" stroke-width="4.58333" stroke-miterlimit="8" fill="#C1E5F5" fill-rule="evenodd"/><path d="M1443.5 1122.5 1479.5 978.5 1875.5 978.5 1839.5 1122.5Z" stroke="#000000" stroke-width="4.58333" stroke-miterlimit="8" fill="#C1E5F5" fill-rule="evenodd"/><text font-family="Segoe UI,Segoe UI_MSFontService,sans-serif" font-weight="400" font-size="92" transform="matrix(1 0 0 1 1564.41 1080)">bus</text><text font-family="Segoe UI,Segoe UI_MSFontService,sans-serif" font-weight="400" font-size="92" transform="matrix(1 0 0 1 1709.36 1080)">y</text><path d="M22.9236-2.22002 183.624-1.71766 183.61 2.86565 22.9093 2.36329ZM27.4569 13.8359 0 0 27.5428-13.664ZM179.077-13.1903 206.534 0.645636 178.991 14.3096Z" transform="matrix(1 0 0 -1 1853.5 1050.15)"/><text font-family="Segoe UI,Segoe UI_MSFontService,sans-serif" font-weight="400" font-size="92" transform="matrix(1 0 0 1 1876.7 1028)">DIFS</text><path d="M1427.5 1686.5 1462 1548.5 1858.5 1548.5 1824 1686.5Z" stroke="#000000" stroke-width="4.58333" stroke-miterlimit="8" fill="#C1E5F5" fill-rule="evenodd"/><text font-family="Segoe UI,Segoe UI_MSFontService,sans-serif" font-weight="400" font-size="92" transform="matrix(1 0 0 1 1547.8 1647)">bus</text><text font-family="Segoe UI,Segoe UI_MSFontService,sans-serif" font-weight="400" font-size="92" transform="matrix(1 0 0 1 1692.75 1647)">y</text><path d="M1860.42 1615.21 2033.86 1615.21 2033.86 1619.79 1860.42 1619.79ZM1865 1631.25 1837.5 1617.5 1865 1603.75ZM2029.28 1603.75 2056.78 1617.5 2029.28 1631.25Z"/><text font-family="Segoe UI,Segoe UI_MSFontService,sans-serif" font-weight="400" font-size="92" transform="matrix(1 0 0 1 1865.47 1594)">DIFS</text><path d="M2059.5 1687.5 2091.5 1547.5 2187.5 1547.5 2155.5 1687.5Z" stroke="#000000" stroke-width="4.58333" stroke-miterlimit="8" fill="#C1E5F5" fill-rule="evenodd"/><path d="M2245.5 1687.5 2277.25 1547.5 2372.5 1547.5 2340.75 1687.5Z" stroke="#000000" stroke-width="4.58333" stroke-miterlimit="8" fill="#FFFFFF" fill-rule="evenodd"/><path d="M2153.5 1687.5 2185.25 1547.5 2280.5 1547.5 2248.75 1687.5Z" stroke="#000000" stroke-width="4.58333" stroke-miterlimit="8" fill="#C1E5F5" fill-rule="evenodd"/><path d="M2336.5 1687.5 2368.25 1547.5 2463.5 1547.5 2431.75 1687.5Z" stroke="#000000" stroke-width="4.58333" stroke-miterlimit="8" fill="#FFFFFF" fill-rule="evenodd"/><path d="M2431.5 1687.5 2463.25 1547.5 2558.5 1547.5 2526.75 1687.5Z" stroke="#000000" stroke-width="4.58333" stroke-miterlimit="8" fill="#FFFFFF" fill-rule="evenodd"/><path d="M2085.42 1140.21 2225.7 1140.21 2225.7 1144.79 2085.42 1144.79ZM2090 1156.25 2062.5 1142.5 2090 1128.75ZM2221.12 1128.75 2248.62 1142.5 2221.12 1156.25Z"/><text font-family="Segoe UI,Segoe UI_MSFontService,sans-serif" font-weight="400" font-size="92" transform="matrix(1 0 0 1 2094.21 1283)">Backoff</text><path d="M2131.42 948.208 2271.7 948.209 2271.7 952.792 2131.42 952.792ZM2136 964.25 2108.5 950.5 2136 936.75ZM2267.12 936.75 2294.62 950.5 2267.12 964.25Z"/><text font-family="Segoe UI,Segoe UI_MSFontService,sans-serif" font-weight="400" font-size="92" transform="matrix(1 0 0 1 2177.88 935)">2</text><path d="M2121.42 1513.21 2646.9 1513.21 2646.9 1517.79 2121.42 1517.79ZM2126 1529.25 2098.5 1515.5 2126 1501.75ZM2642.31 1501.75 2669.81 1515.5 2642.31 1529.25Z"/><text font-family="Segoe UI,Segoe UI_MSFontService,sans-serif" font-weight="400" font-size="92" transform="matrix(1 0 0 1 2340.76 1505)">6</text><path d="M2066.42 1713.25 2576.54 1714.08 2576.53 1718.66 2066.41 1717.83ZM2070.98 1729.29 2043.5 1715.5 2071.02 1701.79ZM2571.97 1702.61 2599.45 1716.4 2571.93 1730.11Z"/><text font-family="Segoe UI,Segoe UI_MSFontService,sans-serif" font-weight="400" font-size="92" transform="matrix(1 0 0 1 2169.42 1847)">B</text><text font-family="Segoe UI,Segoe UI_MSFontService,sans-serif" font-weight="400" font-size="92" transform="matrix(1 0 0 1 2222.13 1847)">ackoff</text><path d="M2.29167-0.000296712 2.33345 322.716-2.24988 322.717-2.29167 0.000296712ZM13.7912 318.131 0.0447507 345.633-13.7088 318.135Z" transform="matrix(1 0 0 -1 2371.5 940.133)"/><path d="M2524.5 1687.5 2556.25 1547.5 2651.5 1547.5 2619.75 1687.5Z" stroke="#000000" stroke-width="4.58333" stroke-miterlimit="8" fill="#FFFFFF" fill-rule="evenodd"/><path d="M2156.5 1122.5 2188.25 982.5 2283.5 982.5 2251.75 1122.5Z" stroke="#000000" stroke-width="4.58333" stroke-miterlimit="8" fill="#C1E5F5" fill-rule="evenodd"/><text font-family="Segoe UI,Segoe UI_MSFontService,sans-serif" font-weight="400" font-size="92" transform="matrix(1 0 0 1 2490.06 403)">SIFS</text><path d="M1152.5 500.5 1152.5 555.189" stroke="#000000" stroke-width="4.58333" stroke-miterlimit="8" fill="none" fill-rule="evenodd"/><path d="M0 0 25.1181 1406.24" stroke="#000000" stroke-width="4.58333" stroke-miterlimit="8" stroke-dasharray="36.6667 13.75" fill="none" fill-rule="evenodd" transform="matrix(-1 0 0 1 2070.62 412.5)"/><text font-family="Segoe UI,Segoe UI_MSFontService,sans-serif" font-weight="400" font-size="92" transform="matrix(1 0 0 1 3669.88 762)">t</text><path d="M1185.5 594.5 3783.93 594.5" stroke="#000000" stroke-width="4.58333" stroke-miterlimit="8" fill="none" fill-rule="evenodd"/><path d="M3625.5 631.208 3724.19 631.209 3724.19 635.792 3625.5 635.792ZM3719.6 619.75 3747.1 633.5 3719.6 647.25Z"/><text font-family="Segoe UI,Segoe UI_MSFontService,sans-serif" font-weight="400" font-size="92" transform="matrix(1 0 0 1 2800.19 729)">ACK</text><text font-family="Segoe UI,Segoe UI_MSFontService,sans-serif" font-weight="400" font-size="92" transform="matrix(1 0 0 1 2429.21 729)">DATA</text><text font-family="Segoe UI,Segoe UI_MSFontService,sans-serif" font-weight="400" font-size="92" transform="matrix(1 0 0 1 997.093 724)">AP</text><path d="M2931.5 1966.5 2963.25 1826.5 3058.5 1826.5 3026.75 1966.5Z" stroke="#000000" stroke-width="4.58333" stroke-miterlimit="8" fill="#FFFFFF" fill-rule="evenodd"/><text font-family="Segoe UI,Segoe UI_MSFontService,sans-serif" font-weight="400" font-size="92" transform="matrix(1 0 0 1 3089.43 1927)">Slot time</text></g></svg>