<svg width="2916" height="1938" xmlns="http://www.w3.org/2000/svg" xmlns:xlink="http://www.w3.org/1999/xlink" xml:space="preserve" overflow="hidden"><g transform="translate(-541 -364)"><text font-family="Segoe UI,Segoe UI_MSFontService,sans-serif" font-weight="400" font-size="92" transform="matrix(1 0 0 1 984.722 481)">DIFS</text><rect x="1264.5" y="467.5" width="333" height="170" stroke="#000000" stroke-width="4.58333" stroke-miterlimit="8" fill="#FFFFFF"/><text font-family="Segoe UI,Segoe UI_MSFontService,sans-serif" font-weight="400" font-size="92" transform="matrix(1 0 0 1 1322.81 586)">DATA</text><path d="M800.5 1761.5 3398.93 1761.5" stroke="#000000" stroke-width="4.58333" stroke-miterlimit="8" fill="none" fill-rule="evenodd"/><path d="M800.5 2043.5 3398.93 2043.5" stroke="#000000" stroke-width="4.58333" stroke-miterlimit="8" fill="none" fill-rule="evenodd"/><path d="M0 0 13.8824 1575.68" stroke="#000000" stroke-width="4.58333" stroke-miterlimit="8" stroke-dasharray="36.6667 13.75" fill="none" fill-rule="evenodd" transform="matrix(-1 0 0 1 973.382 467.5)"/><text font-family="Segoe UI,Segoe UI_MSFontService,sans-serif" font-weight="400" font-size="110" transform="matrix(1 0 0 1 609.17 1556)">#4</text><text font-family="Segoe UI,Segoe UI_MSFontService,sans-serif" font-weight="400" font-size="110" transform="matrix(1 0 0 1 610.831 995)">#2</text><text font-family="Segoe UI,Segoe UI_MSFontService,sans-serif" font-weight="400" font-size="110" transform="matrix(1 0 0 1 609.17 1275)">#3</text><text font-family="Segoe UI,Segoe UI_MSFontService,sans-serif" font-weight="400" font-size="110" transform="matrix(1 0 0 1 609.17 715)">#1</text><text font-family="Segoe UI,Segoe UI_MSFontService,sans-serif" font-weight="400" font-size="110" transform="matrix(1 0 0 1 613.059 1838)">#5</text><text font-family="Segoe UI,Segoe UI_MSFontService,sans-serif" font-weight="400" font-size="110" transform="matrix(1 0 0 1 607.737 2120)">#n</text><path d="M1266.79 630.5 1266.79 1568.66 1262.21 1568.66 1262.21 630.5ZM1278.25 1564.08 1264.5 1591.58 1250.75 1564.08Z"/><rect x="1264.5" y="1591.5" width="333" height="170" stroke="#000000" stroke-width="4.58333" stroke-linecap="square" stroke-miterlimit="8" stroke-dasharray="13.75 4.58333" fill="#FFFFFF"/><text font-family="Segoe UI,Segoe UI_MSFontService,sans-serif" font-weight="400" font-size="92" transform="matrix(1 0 0 1 1322.53 1710)">DATA</text><rect x="1264.5" y="1312.5" width="333" height="169" stroke="#000000" stroke-width="4.58333" stroke-miterlimit="8" fill="#FFFFFF"/><text font-family="Segoe UI,Segoe UI_MSFontService,sans-serif" font-weight="400" font-size="92" transform="matrix(1 0 0 1 1322.53 1431)">DATA</text><rect x="1719.5" y="1307.5" width="246" height="174" stroke="#000000" stroke-width="4.58333" stroke-miterlimit="8" fill="#FFFFFF"/><text font-family="Segoe UI,Segoe UI_MSFontService,sans-serif" font-weight="400" font-size="92" transform="matrix(1 0 0 1 1758.21 1428)">ACK</text><text font-family="Segoe UI,Segoe UI_MSFontService,sans-serif" font-weight="400" font-size="92" transform="matrix(1 0 0 1 1583.51 1550)">SIFS+</text><text font-family="Segoe UI,Segoe UI_MSFontService,sans-serif" font-weight="400" font-size="92" transform="matrix(1 0 0 1 1520.45 1660)">Duration</text><path d="M22.9548-1.87197 99.3182-0.474504 99.2344 4.10806 22.8709 2.71059ZM27.2438 14.2509 0 0 27.747-13.2445ZM94.9453-12.0148 122.189 2.23609 94.4422 15.4806Z" transform="matrix(1 0 0 -1 1597.5 1396.74)"/><path d="M2.29167-1.23048e-06 2.29202 649.216-2.29132 649.216-2.29167 1.23048e-06ZM13.7503 644.633 0.000360892 672.133-13.7497 644.633Z" transform="matrix(1 0 0 -1 1719.5 1310.63)"/><rect x="1720.5" y="463.5" width="248" height="174" stroke="#000000" stroke-width="4.58333" stroke-miterlimit="8" fill="#FFFFFF"/><text font-family="Segoe UI,Segoe UI_MSFontService,sans-serif" font-weight="400" font-size="92" transform="matrix(1 0 0 1 1760.49 584)">ACK</text><rect x="1598" y="637" width="122" height="845" fill="#F88A7E" fill-opacity="0.498039"/><path d="M1720.5 1200.5 1747 1069.5 1826.5 1069.5 1800 1200.5Z" stroke="#000000" stroke-width="4.58333" stroke-linecap="square" stroke-miterlimit="8" stroke-dasharray="13.75 4.58333" fill="#C1E5F5" fill-rule="evenodd"/><path d="M1720.5 918.5 1747.25 788.5 1827.5 788.5 1800.75 918.5Z" stroke="#000000" stroke-width="4.58333" stroke-linecap="square" stroke-miterlimit="8" stroke-dasharray="13.75 4.58333" fill="#C1E5F5" fill-rule="evenodd"/><path d="M1798.5 918.5 1825.25 788.5 1905.5 788.5 1878.75 918.5Z" stroke="#000000" stroke-width="4.58333" stroke-linecap="square" stroke-miterlimit="8" stroke-dasharray="13.75 4.58333" fill="#C1E5F5" fill-rule="evenodd"/><path d="M1968 638 1721.3 1482 1717 638Z" fill="#F88A7E" fill-rule="evenodd" fill-opacity="0.501961"/><rect x="2247.5" y="1312.5" width="333" height="169" stroke="#000000" stroke-width="4.58333" stroke-miterlimit="8" fill="#FFFFFF"/><text font-family="Segoe UI,Segoe UI_MSFontService,sans-serif" font-weight="400" font-size="92" transform="matrix(1 0 0 1 2305.98 1431)">DATA</text><path d="M2090.5 1482.5 2117.25 1351.5 2197.5 1351.5 2170.75 1482.5Z" stroke="#000000" stroke-width="4.58333" stroke-miterlimit="8" fill="#C1E5F5" fill-rule="evenodd"/><text font-family="Segoe UI,Segoe UI_MSFontService,sans-serif" font-weight="400" font-size="92" transform="matrix(1 0 0 1 1969.78 1326)">DIFS</text><path d="M2168.5 1482.5 2195.25 1351.5 2275.5 1351.5 2248.75 1482.5Z" stroke="#000000" stroke-width="4.58333" stroke-miterlimit="8" fill="#C1E5F5" fill-rule="evenodd"/><path d="M2.29154-0.0240408 6.18695 371.282 1.60387 371.33-2.29154 0.0240408ZM17.5966 366.579 4.13583 394.222-9.90191 366.867Z" transform="matrix(-1 0 0 1 2249.64 1480.5)"/><rect x="2245.5" y="1873.5" width="333" height="170" stroke="#000000" stroke-width="4.58333" stroke-miterlimit="8" fill="#FFFFFF"/><text font-family="Segoe UI,Segoe UI_MSFontService,sans-serif" font-weight="400" font-size="92" transform="matrix(1 0 0 1 2303.91 1992)">DATA</text><path d="M798.5 637.5 3396.93 637.501" stroke="#000000" stroke-width="4.58333" stroke-miterlimit="8" fill="none" fill-rule="evenodd"/><path d="M798.5 918.5 3396.93 918.5" stroke="#000000" stroke-width="4.58333" stroke-miterlimit="8" fill="none" fill-rule="evenodd"/><path d="M798.5 1200.5 3396.93 1200.5" stroke="#000000" stroke-width="4.58333" stroke-miterlimit="8" fill="none" fill-rule="evenodd"/><path d="M798.5 1481.5 3396.93 1481.5" stroke="#000000" stroke-width="4.58333" stroke-miterlimit="8" fill="none" fill-rule="evenodd"/><text font-family="Segoe UI,Segoe UI_MSFontService,sans-serif" font-weight="400" font-size="92" transform="matrix(1 0 0 1 3322.93 819)">t</text><path d="M3287.5 689.208 3366.73 689.209 3366.73 693.792 3287.5 693.792ZM3362.14 677.75 3389.64 691.5 3362.14 705.25Z"/><text font-family="Segoe UI,Segoe UI_MSFontService,sans-serif" font-weight="400" font-size="92" transform="matrix(1 0 0 1 3322.93 1100)">t</text><path d="M3287.5 971.208 3366.73 971.209 3366.73 975.792 3287.5 975.792ZM3362.14 959.75 3389.64 973.5 3362.14 987.25Z"/><text font-family="Segoe UI,Segoe UI_MSFontService,sans-serif" font-weight="400" font-size="92" transform="matrix(1 0 0 1 3322.93 1382)">t</text><path d="M3287.5 1252.21 3366.73 1252.21 3366.73 1256.79 3287.5 1256.79ZM3362.14 1240.75 3389.64 1254.5 3362.14 1268.25Z"/><text font-family="Segoe UI,Segoe UI_MSFontService,sans-serif" font-weight="400" font-size="92" transform="matrix(1 0 0 1 3322.93 1663)">t</text><path d="M3287.5 1533.21 3366.73 1533.21 3366.73 1537.79 3287.5 1537.79ZM3362.14 1521.75 3389.64 1535.5 3362.14 1549.25Z"/><text font-family="Segoe UI,Segoe UI_MSFontService,sans-serif" font-weight="400" font-size="92" transform="matrix(1 0 0 1 3322.93 1944)">t</text><path d="M3287.5 1814.21 3366.73 1814.21 3366.73 1818.79 3287.5 1818.79ZM3362.14 1802.75 3389.64 1816.5 3362.14 1830.25Z"/><text font-family="Segoe UI,Segoe UI_MSFontService,sans-serif" font-weight="400" font-size="92" transform="matrix(1 0 0 1 3322.93 2225)">t</text><path d="M3287.5 2096.21 3366.73 2096.21 3366.73 2100.79 3287.5 2100.79ZM3362.14 2084.75 3389.64 2098.5 3362.14 2112.25Z"/><path d="M1876.5 855.5 2145.2 856.977" stroke="#000000" stroke-width="4.58333" stroke-miterlimit="8" fill="none" fill-rule="evenodd"/><path d="M0 0 354.805 244.234" stroke="#000000" stroke-width="4.58333" stroke-miterlimit="8" fill="none" fill-rule="evenodd" transform="matrix(1 0 0 -1 1783.5 1125.73)"/><text font-family="Segoe UI,Segoe UI_MSFontService,sans-serif" font-weight="400" font-size="92" transform="matrix(1 0 0 1 2178.08 890)">Slot time</text><path d="M1983.42 1392.21 2093.92 1392.21 2093.92 1396.79 1983.42 1396.79ZM1988 1408.25 1960.5 1394.5 1988 1380.75ZM2089.33 1380.75 2116.83 1394.5 2089.33 1408.25Z"/><path d="M2107.42 1503.21 2217.92 1503.21 2217.92 1507.79 2107.42 1507.79ZM2112 1519.25 2084.5 1505.5 2112 1491.75ZM2213.33 1491.75 2240.83 1505.5 2213.33 1519.25Z"/><path d="M1105.5 637.5 1132.25 506.5 1212.5 506.5 1185.75 637.5Z" stroke="#000000" stroke-width="4.58333" stroke-miterlimit="8" fill="#C1E5F5" fill-rule="evenodd"/><path d="M1183.5 637.5 1210.25 506.5 1290.5 506.5 1263.75 637.5Z" stroke="#000000" stroke-width="4.58333" stroke-miterlimit="8" fill="#C1E5F5" fill-rule="evenodd"/><path d="M998.417 547.209 1108.92 547.209 1108.92 551.792 998.417 551.792ZM1003 563.25 975.5 549.5 1003 535.75ZM1104.33 535.75 1131.83 549.501 1104.33 563.25Z"/><path d="M1122.42 658.208 1232.92 658.208 1232.92 662.792 1122.42 662.792ZM1127 674.25 1099.5 660.5 1127 646.75ZM1228.33 646.75 1255.83 660.5 1228.33 674.25Z"/><text font-family="Segoe UI,Segoe UI_MSFontService,sans-serif" font-weight="400" font-size="92" transform="matrix(1 0 0 1 1057.05 775)">B</text><text font-family="Segoe UI,Segoe UI_MSFontService,sans-serif" font-weight="400" font-size="92" transform="matrix(1 0 0 1 1109.76 775)">ackoff</text><text font-family="Segoe UI,Segoe UI_MSFontService,sans-serif" font-weight="400" font-size="92" transform="matrix(1 0 0 1 2052.5 1622)">B</text><text font-family="Segoe UI,Segoe UI_MSFontService,sans-serif" font-weight="400" font-size="92" transform="matrix(1 0 0 1 2105.2 1622)">ackoff</text></g></svg>