<svg width="2686" height="637" xmlns="http://www.w3.org/2000/svg" xmlns:xlink="http://www.w3.org/1999/xlink" xml:space="preserve" overflow="hidden"><g transform="translate(-242 -1105)"><path d="M242 1318.5C242 1200.59 723.965 1105 1318.5 1105 1913.03 1105 2395 1200.59 2395 1318.5 2395 1436.41 1913.03 1532 1318.5 1532 723.965 1532 242 1436.41 242 1318.5Z" fill="#83CBEB" fill-rule="evenodd" fill-opacity="0.490196"/><text font-family="Yu Gothic,Yu Gothic_MSFontService,sans-serif" font-weight="400" font-size="110" transform="matrix(1 0 0 1 434.39 1645)">#1</text><text font-family="Yu Gothic,Yu Gothic_MSFontService,sans-serif" font-weight="400" font-size="110" transform="matrix(1 0 0 1 1001.82 1645)">#2</text><text font-family="Yu Gothic,Yu Gothic_MSFontService,sans-serif" font-weight="400" font-size="110" transform="matrix(1 0 0 1 1557.69 1645)">#3</text><text font-family="Yu Gothic,Yu Gothic_MSFontService,sans-serif" font-weight="400" font-size="110" transform="matrix(1 0 0 1 2112.65 1645)">#4</text><text font-family="Yu Gothic,Yu Gothic_MSFontService,sans-serif" font-weight="400" font-size="110" transform="matrix(1 0 0 1 2674.24 1645)">#n</text><path d="M2019 1338.5C2019 1220.59 2222.49 1125 2473.5 1125 2724.51 1125 2928 1220.59 2928 1338.5 2928 1456.41 2724.51 1552 2473.5 1552 2222.49 1552 2019 1456.41 2019 1338.5Z" fill="#F88A7E" fill-rule="evenodd" fill-opacity="0.490196"/><path d="M604 1304.75 1956.5 1304.75 1956.5 1271 2024 1338.5 1956.5 1406 1956.5 1372.25 604 1372.25Z" fill="#215F9A" fill-rule="evenodd" fill-opacity="0.490196"/><path d="M2280 1315.75 2579.5 1315.75 2579.5 1282 2647 1349.5 2579.5 1417 2579.5 1383.25 2280 1383.25Z" fill="#C00000" fill-rule="evenodd" fill-opacity="0.490196"/><path d="M426.5 1263.5 484.73 1263.5" stroke="#000000" stroke-width="4.58333" stroke-miterlimit="8" fill="none" fill-rule="evenodd"/><path d="M520.5 1279.5 578.73 1279.5" stroke="#000000" stroke-width="4.58333" stroke-miterlimit="8" fill="none" fill-rule="evenodd"/><path d="M332.5 1279.5 390.73 1279.5" stroke="#000000" stroke-width="4.58333" stroke-miterlimit="8" fill="none" fill-rule="evenodd"/><path d="M345.156 1301.59C336.424 1295.65 417.073 1297.93 454.297 1297.93 491.521 1297.93 568.5 1296.49 568.5 1301.59 568.5 1306.68 491.521 1328.5 454.297 1328.5 417.917 1319.53 353.889 1307.53 345.156 1301.59Z" stroke="#000000" stroke-width="4.58333" stroke-miterlimit="8" fill="#999999" fill-rule="evenodd"/><path d="M440.5 1285.33C440.5 1282.11 443.112 1279.5 446.333 1279.5L469.666 1279.5C472.888 1279.5 475.5 1282.11 475.5 1285.33L475.5 1331.67C475.5 1334.89 472.888 1337.5 469.666 1337.5L446.333 1337.5C443.112 1337.5 440.5 1334.89 440.5 1331.67Z" stroke="#000000" stroke-width="4.58333" stroke-miterlimit="8" fill="#F0ECD0" fill-rule="evenodd"/><path d="M452.5 1288.5 457 1256.5 461.5 1288.5Z" stroke="#000000" stroke-width="4.58333" stroke-miterlimit="8" fill-rule="evenodd"/><path d="M544.5 1302.5 549 1270.5 553.5 1302.5Z" stroke="#000000" stroke-width="4.58333" stroke-miterlimit="8" fill-rule="evenodd"/><path d="M355.5 1302.5 360 1269.5 364.5 1302.5Z" stroke="#000000" stroke-width="4.58333" stroke-miterlimit="8" fill-rule="evenodd"/><path d="M453.5 1348.5C453.5 1347.4 454.395 1346.5 455.5 1346.5L463.5 1346.5C464.604 1346.5 465.5 1347.4 465.5 1348.5L465.5 1356.5C465.5 1357.6 464.604 1358.5 463.5 1358.5L455.5 1358.5C454.395 1358.5 453.5 1357.6 453.5 1356.5Z" stroke="#000000" stroke-width="4.58333" stroke-miterlimit="8" fill="#7F7F7F" fill-rule="evenodd"/><path d="M0 0 0.000360892 11.0531" stroke="#000000" stroke-width="4.58333" stroke-miterlimit="8" fill="none" fill-rule="evenodd" transform="matrix(1 0 0 -1 457.5 1348.55)"/><path d="M0 0 0.000360892 11.0531" stroke="#000000" stroke-width="4.58333" stroke-miterlimit="8" fill="none" fill-rule="evenodd" transform="matrix(1 0 0 -1 461.5 1348.55)"/><path d="M449.5 1290.33C449.5 1288.77 450.769 1287.5 452.333 1287.5L463.667 1287.5C465.231 1287.5 466.5 1288.77 466.5 1290.33L466.5 1301.67C466.5 1303.23 465.231 1304.5 463.667 1304.5L452.333 1304.5C450.769 1304.5 449.5 1303.23 449.5 1301.67Z" stroke="#000000" stroke-width="4.58333" stroke-miterlimit="8" fill="#7F7F7F" fill-rule="evenodd"/><path d="M584.089 1273.09C596.031 1276.35 595.151 1281.41 582.123 1284.4 578.482 1285.23 574.119 1285.84 569.374 1286.19" stroke="#000000" stroke-width="1.14583" stroke-miterlimit="8" fill="none" fill-rule="evenodd"/><path d="M598.245 1274.51C605.188 1277.53 603.515 1281.33 594.107 1283.9" stroke="#000000" stroke-width="1.14583" stroke-miterlimit="8" fill="none" fill-rule="evenodd"/><path d="M607.46 1276.48C609.016 1277.97 608.822 1279.53 606.902 1281" stroke="#000000" stroke-width="1.14583" stroke-miterlimit="8" fill="none" fill-rule="evenodd"/><path d="M491.787 1256.05C504.018 1259.28 503.283 1264.34 490.146 1267.36 486.379 1268.22 481.834 1268.85 476.884 1269.2" stroke="#000000" stroke-width="1.14583" stroke-miterlimit="8" fill="none" fill-rule="evenodd"/><path d="M506.244 1258.51C513.188 1261.53 511.515 1265.33 502.107 1267.9" stroke="#000000" stroke-width="1.14583" stroke-miterlimit="8" fill="none" fill-rule="evenodd"/><path d="M515.46 1260.48C517.016 1261.97 516.823 1263.53 514.902 1265" stroke="#000000" stroke-width="1.14583" stroke-miterlimit="8" fill="none" fill-rule="evenodd"/><path d="M399.089 1275.09C411.031 1278.35 410.151 1283.41 397.123 1286.4 393.482 1287.23 389.119 1287.84 384.374 1288.19" stroke="#000000" stroke-width="1.14583" stroke-miterlimit="8" fill="none" fill-rule="evenodd"/><path d="M413.244 1277.51C420.188 1280.53 418.515 1284.33 409.107 1286.9" stroke="#000000" stroke-width="1.14583" stroke-miterlimit="8" fill="none" fill-rule="evenodd"/><path d="M422.46 1279.48C424.016 1280.97 423.823 1282.53 421.902 1284" stroke="#000000" stroke-width="1.14583" stroke-miterlimit="8" fill="none" fill-rule="evenodd"/><path d="M407.5 1358.5 511.995 1358.5" stroke="#000000" stroke-width="6.875" stroke-miterlimit="8" fill="none" fill-rule="evenodd"/><path d="M0 0 0.000360892 51.9779" stroke="#000000" stroke-width="6.875" stroke-miterlimit="8" fill="none" fill-rule="evenodd" transform="matrix(1 0 0 -1 409.5 1410.48)"/><path d="M0 0 0.000360892 51.9779" stroke="#000000" stroke-width="6.875" stroke-miterlimit="8" fill="none" fill-rule="evenodd" transform="matrix(1 0 0 -1 443.5 1410.48)"/><path d="M0 0 0.000360892 51.9779" stroke="#000000" stroke-width="6.875" stroke-miterlimit="8" fill="none" fill-rule="evenodd" transform="matrix(1 0 0 -1 477.5 1410.48)"/><path d="M0 0 0.000360892 51.9779" stroke="#000000" stroke-width="6.875" stroke-miterlimit="8" fill="none" fill-rule="evenodd" transform="matrix(1 0 0 -1 511.5 1410.48)"/><path d="M0 17.9999 6.00002 0 12 17.9999Z" stroke="#000000" stroke-width="3.4375" stroke-miterlimit="8" fill="#FFFFFF" fill-rule="evenodd" transform="matrix(-1 1.22465e-16 1.22465e-16 1 415.5 1405.5)"/><path d="M0 18.9999 6.00002 0 12 18.9999Z" stroke="#000000" stroke-width="3.4375" stroke-miterlimit="8" fill="#FFFFFF" fill-rule="evenodd" transform="matrix(-1 1.22465e-16 1.22465e-16 1 449.5 1403.5)"/><path d="M0 18.9999 6.00002 0 12 18.9999Z" stroke="#000000" stroke-width="3.4375" stroke-miterlimit="8" fill="#FFFFFF" fill-rule="evenodd" transform="matrix(-1 1.22465e-16 1.22465e-16 1 483.5 1403.5)"/><path d="M0 17.9999 5.5 0 11 17.9999Z" stroke="#000000" stroke-width="3.4375" stroke-miterlimit="8" fill="#FFFFFF" fill-rule="evenodd" transform="matrix(-1 1.22465e-16 1.22465e-16 1 517.5 1403.5)"/><path d="M992.5 1264.5 1050.73 1264.5" stroke="#000000" stroke-width="4.58333" stroke-miterlimit="8" fill="none" fill-rule="evenodd"/><path d="M1085.5 1279.5 1143.73 1279.5" stroke="#000000" stroke-width="4.58333" stroke-miterlimit="8" fill="none" fill-rule="evenodd"/><path d="M898.5 1280.5 956.73 1280.5" stroke="#000000" stroke-width="4.58333" stroke-miterlimit="8" fill="none" fill-rule="evenodd"/><path d="M911.154 1302.46C902.46 1296.71 982.749 1298.92 1019.81 1298.92 1056.86 1298.92 1133.5 1297.53 1133.5 1302.46 1133.5 1307.39 1056.86 1328.5 1019.81 1328.5 983.589 1319.82 919.847 1308.2 911.154 1302.46Z" stroke="#000000" stroke-width="4.58333" stroke-miterlimit="8" fill="#999999" fill-rule="evenodd"/><path d="M1005.5 1286.33C1005.5 1283.11 1008.11 1280.5 1011.33 1280.5L1034.67 1280.5C1037.89 1280.5 1040.5 1283.11 1040.5 1286.33L1040.5 1332.67C1040.5 1335.89 1037.89 1338.5 1034.67 1338.5L1011.33 1338.5C1008.11 1338.5 1005.5 1335.89 1005.5 1332.67Z" stroke="#000000" stroke-width="4.58333" stroke-miterlimit="8" fill="#F0ECD0" fill-rule="evenodd"/><path d="M1017.5 1289.5 1022 1257.5 1026.5 1289.5Z" stroke="#000000" stroke-width="4.58333" stroke-miterlimit="8" fill-rule="evenodd"/><path d="M1110.5 1302.5 1115 1270.5 1119.5 1302.5Z" stroke="#000000" stroke-width="4.58333" stroke-miterlimit="8" fill-rule="evenodd"/><path d="M920.5 1302.5 925 1270.5 929.5 1302.5Z" stroke="#000000" stroke-width="4.58333" stroke-miterlimit="8" fill-rule="evenodd"/><path d="M1019.5 1349.5C1019.5 1348.4 1020.4 1347.5 1021.5 1347.5L1029.5 1347.5C1030.6 1347.5 1031.5 1348.4 1031.5 1349.5L1031.5 1357.5C1031.5 1358.6 1030.6 1359.5 1029.5 1359.5L1021.5 1359.5C1020.4 1359.5 1019.5 1358.6 1019.5 1357.5Z" stroke="#000000" stroke-width="4.58333" stroke-miterlimit="8" fill="#7F7F7F" fill-rule="evenodd"/><path d="M0 0 0.000360892 11.0531" stroke="#000000" stroke-width="4.58333" stroke-miterlimit="8" fill="none" fill-rule="evenodd" transform="matrix(1 0 0 -1 1023.5 1349.55)"/><path d="M0 0 0.000360892 11.0531" stroke="#000000" stroke-width="4.58333" stroke-miterlimit="8" fill="none" fill-rule="evenodd" transform="matrix(1 0 0 -1 1027.5 1348.55)"/><path d="M1014.5 1291.33C1014.5 1289.77 1015.77 1288.5 1017.33 1288.5L1028.67 1288.5C1030.23 1288.5 1031.5 1289.77 1031.5 1291.33L1031.5 1302.67C1031.5 1304.23 1030.23 1305.5 1028.67 1305.5L1017.33 1305.5C1015.77 1305.5 1014.5 1304.23 1014.5 1302.67Z" stroke="#000000" stroke-width="4.58333" stroke-miterlimit="8" fill="#7F7F7F" fill-rule="evenodd"/><path d="M1150.09 1273.09C1162.03 1276.35 1161.15 1281.41 1148.12 1284.4 1144.48 1285.23 1140.12 1285.84 1135.37 1286.19" stroke="#000000" stroke-width="1.14583" stroke-miterlimit="8" fill="none" fill-rule="evenodd"/><path d="M1164.24 1275.51C1171.19 1278.53 1169.51 1282.33 1160.11 1284.9" stroke="#000000" stroke-width="1.14583" stroke-miterlimit="8" fill="none" fill-rule="evenodd"/><path d="M1173.46 1277.48C1175.02 1278.97 1174.82 1280.53 1172.9 1282" stroke="#000000" stroke-width="1.14583" stroke-miterlimit="8" fill="none" fill-rule="evenodd"/><path d="M1057.09 1257.09C1069.03 1260.35 1068.15 1265.41 1055.12 1268.4 1051.48 1269.23 1047.12 1269.84 1042.37 1270.19" stroke="#000000" stroke-width="1.14583" stroke-miterlimit="8" fill="none" fill-rule="evenodd"/><path d="M1072.07 1258.47C1079.29 1261.51 1077.56 1265.36 1067.81 1267.95" stroke="#000000" stroke-width="1.14583" stroke-miterlimit="8" fill="none" fill-rule="evenodd"/><path d="M1080.46 1260.48C1082.02 1261.97 1081.82 1263.53 1079.9 1265" stroke="#000000" stroke-width="1.14583" stroke-miterlimit="8" fill="none" fill-rule="evenodd"/><path d="M965.089 1276.09C977.031 1279.35 976.151 1284.41 963.123 1287.4 959.483 1288.23 955.119 1288.84 950.374 1289.19" stroke="#000000" stroke-width="1.14583" stroke-miterlimit="8" fill="none" fill-rule="evenodd"/><path d="M979.244 1277.51C986.188 1280.53 984.515 1284.33 975.107 1286.9" stroke="#000000" stroke-width="1.14583" stroke-miterlimit="8" fill="none" fill-rule="evenodd"/><path d="M988.46 1279.48C990.017 1280.97 989.823 1282.53 987.902 1284" stroke="#000000" stroke-width="1.14583" stroke-miterlimit="8" fill="none" fill-rule="evenodd"/><path d="M973.5 1359.5 1077.99 1359.5" stroke="#000000" stroke-width="6.875" stroke-miterlimit="8" fill="none" fill-rule="evenodd"/><path d="M0 0 0.000360892 51.9779" stroke="#000000" stroke-width="6.875" stroke-miterlimit="8" fill="none" fill-rule="evenodd" transform="matrix(1 0 0 -1 974.5 1411.48)"/><path d="M0 0 0.000360892 51.9779" stroke="#000000" stroke-width="6.875" stroke-miterlimit="8" fill="none" fill-rule="evenodd" transform="matrix(1 0 0 -1 1009.5 1411.48)"/><path d="M0 0 0.000360892 51.9779" stroke="#000000" stroke-width="6.875" stroke-miterlimit="8" fill="none" fill-rule="evenodd" transform="matrix(1 0 0 -1 1043.5 1411.48)"/><path d="M0 0 0.000360892 51.9779" stroke="#000000" stroke-width="6.875" stroke-miterlimit="8" fill="none" fill-rule="evenodd" transform="matrix(1 0 0 -1 1076.5 1411.48)"/><path d="M0 18.9999 6.00002 0 12 18.9999Z" stroke="#000000" stroke-width="3.4375" stroke-miterlimit="8" fill="#FFFFFF" fill-rule="evenodd" transform="matrix(-1 1.22465e-16 1.22465e-16 1 981.5 1405.5)"/><path d="M0 17.9999 6.00002 0 12 17.9999Z" stroke="#000000" stroke-width="3.4375" stroke-miterlimit="8" fill="#FFFFFF" fill-rule="evenodd" transform="matrix(-1 1.22465e-16 1.22465e-16 1 1015.5 1404.5)"/><path d="M0 17.9999 6.00002 0 12 17.9999Z" stroke="#000000" stroke-width="3.4375" stroke-miterlimit="8" fill="#FFFFFF" fill-rule="evenodd" transform="matrix(-1 1.22465e-16 1.22465e-16 1 1049.5 1404.5)"/><path d="M0 18.9999 6.00002 0 12 18.9999Z" stroke="#000000" stroke-width="3.4375" stroke-miterlimit="8" fill="#FFFFFF" fill-rule="evenodd" transform="matrix(-1 1.22465e-16 1.22465e-16 1 1083.5 1403.5)"/><path d="M1550.5 1263.5 1608.73 1263.5" stroke="#000000" stroke-width="4.58333" stroke-miterlimit="8" fill="none" fill-rule="evenodd"/><path d="M1643.5 1279.5 1701.73 1279.5" stroke="#000000" stroke-width="4.58333" stroke-miterlimit="8" fill="none" fill-rule="evenodd"/><path d="M1455.5 1279.5 1513.73 1279.5" stroke="#000000" stroke-width="4.58333" stroke-miterlimit="8" fill="none" fill-rule="evenodd"/><path d="M1469.15 1301.59C1460.46 1295.65 1540.75 1297.93 1577.81 1297.93 1614.86 1297.93 1691.5 1296.49 1691.5 1301.59 1691.5 1306.68 1614.86 1328.5 1577.81 1328.5 1541.59 1319.53 1477.85 1307.53 1469.15 1301.59Z" stroke="#000000" stroke-width="4.58333" stroke-miterlimit="8" fill="#999999" fill-rule="evenodd"/><path d="M1563.5 1285.33C1563.5 1282.11 1566.11 1279.5 1569.33 1279.5L1592.67 1279.5C1595.89 1279.5 1598.5 1282.11 1598.5 1285.33L1598.5 1331.67C1598.5 1334.89 1595.89 1337.5 1592.67 1337.5L1569.33 1337.5C1566.11 1337.5 1563.5 1334.89 1563.5 1331.67Z" stroke="#000000" stroke-width="4.58333" stroke-miterlimit="8" fill="#F0ECD0" fill-rule="evenodd"/><path d="M1575.5 1288.5 1580 1256.5 1584.5 1288.5Z" stroke="#000000" stroke-width="4.58333" stroke-miterlimit="8" fill-rule="evenodd"/><path d="M1668.5 1302.5 1673 1270.5 1677.5 1302.5Z" stroke="#000000" stroke-width="4.58333" stroke-miterlimit="8" fill-rule="evenodd"/><path d="M1478.5 1301.5 1483 1269.5 1487.5 1301.5Z" stroke="#000000" stroke-width="4.58333" stroke-miterlimit="8" fill-rule="evenodd"/><path d="M1577.5 1348.33C1577.5 1347.32 1578.32 1346.5 1579.33 1346.5L1586.67 1346.5C1587.68 1346.5 1588.5 1347.32 1588.5 1348.33L1588.5 1356.67C1588.5 1357.68 1587.68 1358.5 1586.67 1358.5L1579.33 1358.5C1578.32 1358.5 1577.5 1357.68 1577.5 1356.67Z" stroke="#000000" stroke-width="4.58333" stroke-miterlimit="8" fill="#7F7F7F" fill-rule="evenodd"/><path d="M0 0 0.000360892 11.0531" stroke="#000000" stroke-width="4.58333" stroke-miterlimit="8" fill="none" fill-rule="evenodd" transform="matrix(1 0 0 -1 1580.5 1348.55)"/><path d="M0 0 0.000360892 11.0531" stroke="#000000" stroke-width="4.58333" stroke-miterlimit="8" fill="none" fill-rule="evenodd" transform="matrix(1 0 0 -1 1584.5 1348.55)"/><path d="M1572.5 1290.33C1572.5 1288.77 1573.77 1287.5 1575.33 1287.5L1586.67 1287.5C1588.23 1287.5 1589.5 1288.77 1589.5 1290.33L1589.5 1301.67C1589.5 1303.23 1588.23 1304.5 1586.67 1304.5L1575.33 1304.5C1573.77 1304.5 1572.5 1303.23 1572.5 1301.67Z" stroke="#000000" stroke-width="4.58333" stroke-miterlimit="8" fill="#7F7F7F" fill-rule="evenodd"/><path d="M1707.79 1273.05C1720.02 1276.28 1719.28 1281.34 1706.15 1284.36 1702.38 1285.22 1697.83 1285.85 1692.88 1286.2" stroke="#000000" stroke-width="1.14583" stroke-miterlimit="8" fill="none" fill-rule="evenodd"/><path d="M1722.24 1274.51C1729.19 1277.53 1727.51 1281.33 1718.11 1283.9" stroke="#000000" stroke-width="1.14583" stroke-miterlimit="8" fill="none" fill-rule="evenodd"/><path d="M1731.46 1276.48C1733.02 1277.97 1732.82 1279.53 1730.9 1281" stroke="#000000" stroke-width="1.14583" stroke-miterlimit="8" fill="none" fill-rule="evenodd"/><path d="M1615.09 1256.09C1627.03 1259.35 1626.15 1264.41 1613.12 1267.4 1609.48 1268.23 1605.12 1268.84 1600.37 1269.19" stroke="#000000" stroke-width="1.14583" stroke-miterlimit="8" fill="none" fill-rule="evenodd"/><path d="M1629.24 1258.51C1636.19 1261.53 1634.51 1265.33 1625.11 1267.9" stroke="#000000" stroke-width="1.14583" stroke-miterlimit="8" fill="none" fill-rule="evenodd"/><path d="M1638.46 1260.48C1640.02 1261.97 1639.82 1263.53 1637.9 1265" stroke="#000000" stroke-width="1.14583" stroke-miterlimit="8" fill="none" fill-rule="evenodd"/><path d="M1522.79 1275.05C1535.02 1278.28 1534.28 1283.34 1521.15 1286.36 1517.38 1287.22 1512.83 1287.85 1507.88 1288.2" stroke="#000000" stroke-width="1.14583" stroke-miterlimit="8" fill="none" fill-rule="evenodd"/><path d="M1537.24 1277.51C1544.19 1280.53 1542.51 1284.33 1533.11 1286.9" stroke="#000000" stroke-width="1.14583" stroke-miterlimit="8" fill="none" fill-rule="evenodd"/><path d="M1546.41 1279.45C1548.04 1280.96 1547.84 1282.55 1545.83 1284.03" stroke="#000000" stroke-width="1.14583" stroke-miterlimit="8" fill="none" fill-rule="evenodd"/><path d="M1530.5 1358.5 1634.99 1358.5" stroke="#000000" stroke-width="6.875" stroke-miterlimit="8" fill="none" fill-rule="evenodd"/><path d="M0 0 0.000360892 51.9779" stroke="#000000" stroke-width="6.875" stroke-miterlimit="8" fill="none" fill-rule="evenodd" transform="matrix(1 0 0 -1 1532.5 1410.48)"/><path d="M0 0 0.000360892 51.9779" stroke="#000000" stroke-width="6.875" stroke-miterlimit="8" fill="none" fill-rule="evenodd" transform="matrix(1 0 0 -1 1567.5 1410.48)"/><path d="M0 0 0.000360892 51.9779" stroke="#000000" stroke-width="6.875" stroke-miterlimit="8" fill="none" fill-rule="evenodd" transform="matrix(1 0 0 -1 1600.5 1410.48)"/><path d="M0 0 0.000360892 51.9779" stroke="#000000" stroke-width="6.875" stroke-miterlimit="8" fill="none" fill-rule="evenodd" transform="matrix(1 0 0 -1 1634.5 1410.48)"/><path d="M0 17.9999 5.5 0 11 17.9999Z" stroke="#000000" stroke-width="3.4375" stroke-miterlimit="8" fill="#FFFFFF" fill-rule="evenodd" transform="matrix(-1 1.22465e-16 1.22465e-16 1 1538.5 1405.5)"/><path d="M0 18.9999 5.5 0 11 18.9999Z" stroke="#000000" stroke-width="3.4375" stroke-miterlimit="8" fill="#FFFFFF" fill-rule="evenodd" transform="matrix(-1 1.22465e-16 1.22465e-16 1 1572.5 1403.5)"/><path d="M0 18.9999 6.00002 0 12 18.9999Z" stroke="#000000" stroke-width="3.4375" stroke-miterlimit="8" fill="#FFFFFF" fill-rule="evenodd" transform="matrix(-1 1.22465e-16 1.22465e-16 1 1607.5 1403.5)"/><path d="M0 17.9999 6.00002 0 12 17.9999Z" stroke="#000000" stroke-width="3.4375" stroke-miterlimit="8" fill="#FFFFFF" fill-rule="evenodd" transform="matrix(-1 1.22465e-16 1.22465e-16 1 1641.5 1403.5)"/><path d="M2102.5 1264.5 2160.73 1264.5" stroke="#000000" stroke-width="4.58333" stroke-miterlimit="8" fill="none" fill-rule="evenodd"/><path d="M2195.5 1280.5 2253.73 1280.5" stroke="#000000" stroke-width="4.58333" stroke-miterlimit="8" fill="none" fill-rule="evenodd"/><path d="M2007.5 1280.5 2065.73 1280.5" stroke="#000000" stroke-width="4.58333" stroke-miterlimit="8" fill="none" fill-rule="evenodd"/><path d="M2020.16 1302.59C2011.42 1296.65 2092.07 1298.93 2129.3 1298.93 2166.52 1298.93 2243.5 1297.49 2243.5 1302.59 2243.5 1307.68 2166.52 1329.5 2129.3 1329.5 2092.92 1320.53 2028.89 1308.53 2020.16 1302.59Z" stroke="#000000" stroke-width="4.58333" stroke-miterlimit="8" fill="#999999" fill-rule="evenodd"/><path d="M2115.5 1286.33C2115.5 1283.11 2118.11 1280.5 2121.33 1280.5L2144.67 1280.5C2147.89 1280.5 2150.5 1283.11 2150.5 1286.33L2150.5 1332.67C2150.5 1335.89 2147.89 1338.5 2144.67 1338.5L2121.33 1338.5C2118.11 1338.5 2115.5 1335.89 2115.5 1332.67Z" stroke="#000000" stroke-width="4.58333" stroke-miterlimit="8" fill="#F0ECD0" fill-rule="evenodd"/><path d="M2127.5 1289.5 2132 1257.5 2136.5 1289.5Z" stroke="#000000" stroke-width="4.58333" stroke-miterlimit="8" fill-rule="evenodd"/><path d="M2219.5 1303.5 2224 1271.5 2228.5 1303.5Z" stroke="#000000" stroke-width="4.58333" stroke-miterlimit="8" fill-rule="evenodd"/><path d="M2030.5 1302.5 2035 1270.5 2039.5 1302.5Z" stroke="#000000" stroke-width="4.58333" stroke-miterlimit="8" fill-rule="evenodd"/><path d="M2129.5 1349.33C2129.5 1348.32 2130.32 1347.5 2131.33 1347.5L2138.67 1347.5C2139.68 1347.5 2140.5 1348.32 2140.5 1349.33L2140.5 1357.67C2140.5 1358.68 2139.68 1359.5 2138.67 1359.5L2131.33 1359.5C2130.32 1359.5 2129.5 1358.68 2129.5 1357.67Z" stroke="#000000" stroke-width="4.58333" stroke-miterlimit="8" fill="#7F7F7F" fill-rule="evenodd"/><path d="M0 0 0.000360892 11.0531" stroke="#000000" stroke-width="4.58333" stroke-miterlimit="8" fill="none" fill-rule="evenodd" transform="matrix(1 0 0 -1 2132.5 1349.55)"/><path d="M0 0 0.000360892 11.0531" stroke="#000000" stroke-width="4.58333" stroke-miterlimit="8" fill="none" fill-rule="evenodd" transform="matrix(1 0 0 -1 2136.5 1349.55)"/><path d="M2124.5 1291.33C2124.5 1289.77 2125.77 1288.5 2127.33 1288.5L2138.67 1288.5C2140.23 1288.5 2141.5 1289.77 2141.5 1291.33L2141.5 1302.67C2141.5 1304.23 2140.23 1305.5 2138.67 1305.5L2127.33 1305.5C2125.77 1305.5 2124.5 1304.23 2124.5 1302.67Z" stroke="#000000" stroke-width="4.58333" stroke-miterlimit="8" fill="#7F7F7F" fill-rule="evenodd"/><path d="M2259.09 1274.09C2271.03 1277.35 2270.15 1282.41 2257.12 1285.4 2253.48 1286.23 2249.12 1286.84 2244.37 1287.19" stroke="#000000" stroke-width="1.14583" stroke-miterlimit="8" fill="none" fill-rule="evenodd"/><path d="M2274.24 1275.51C2281.19 1278.53 2279.51 1282.33 2270.11 1284.9" stroke="#000000" stroke-width="1.14583" stroke-miterlimit="8" fill="none" fill-rule="evenodd"/><path d="M2283.41 1277.45C2285.04 1278.96 2284.84 1280.55 2282.83 1282.03" stroke="#000000" stroke-width="1.14583" stroke-miterlimit="8" fill="none" fill-rule="evenodd"/><path d="M2167.09 1257.09C2179.03 1260.35 2178.15 1265.41 2165.12 1268.4 2161.48 1269.23 2157.12 1269.84 2152.37 1270.19" stroke="#000000" stroke-width="1.14583" stroke-miterlimit="8" fill="none" fill-rule="evenodd"/><path d="M2181.24 1259.51C2188.19 1262.53 2186.51 1266.33 2177.11 1268.9" stroke="#000000" stroke-width="1.14583" stroke-miterlimit="8" fill="none" fill-rule="evenodd"/><path d="M2190.46 1261.48C2192.02 1262.97 2191.82 1264.53 2189.9 1266" stroke="#000000" stroke-width="1.14583" stroke-miterlimit="8" fill="none" fill-rule="evenodd"/><path d="M2074.09 1276.09C2086.03 1279.35 2085.15 1284.41 2072.12 1287.4 2068.48 1288.23 2064.12 1288.84 2059.37 1289.19" stroke="#000000" stroke-width="1.14583" stroke-miterlimit="8" fill="none" fill-rule="evenodd"/><path d="M2089.07 1278.47C2096.29 1281.51 2094.56 1285.36 2084.81 1287.95" stroke="#000000" stroke-width="1.14583" stroke-miterlimit="8" fill="none" fill-rule="evenodd"/><path d="M2098.41 1280.45C2100.04 1281.96 2099.84 1283.55 2097.83 1285.03" stroke="#000000" stroke-width="1.14583" stroke-miterlimit="8" fill="none" fill-rule="evenodd"/><path d="M2082.5 1359.5 2186.99 1359.5" stroke="#000000" stroke-width="6.875" stroke-miterlimit="8" fill="none" fill-rule="evenodd"/><path d="M0 0 0.000360892 51.9779" stroke="#000000" stroke-width="6.875" stroke-miterlimit="8" fill="none" fill-rule="evenodd" transform="matrix(1 0 0 -1 2084.5 1411.48)"/><path d="M0 0 0.000360892 51.9779" stroke="#000000" stroke-width="6.875" stroke-miterlimit="8" fill="none" fill-rule="evenodd" transform="matrix(1 0 0 -1 2119.5 1411.48)"/><path d="M0 0 0.000360892 51.9779" stroke="#000000" stroke-width="6.875" stroke-miterlimit="8" fill="none" fill-rule="evenodd" transform="matrix(1 0 0 -1 2152.5 1411.48)"/><path d="M0 0 0.000360892 51.9779" stroke="#000000" stroke-width="6.875" stroke-miterlimit="8" fill="none" fill-rule="evenodd" transform="matrix(1 0 0 -1 2186.5 1411.48)"/><path d="M0 17.9999 5.5 0 11 17.9999Z" stroke="#000000" stroke-width="3.4375" stroke-miterlimit="8" fill="#FFFFFF" fill-rule="evenodd" transform="matrix(-1 1.22465e-16 1.22465e-16 1 2090.5 1406.5)"/><path d="M0 18.9999 5.5 0 11 18.9999Z" stroke="#000000" stroke-width="3.4375" stroke-miterlimit="8" fill="#FFFFFF" fill-rule="evenodd" transform="matrix(-1 1.22465e-16 1.22465e-16 1 2124.5 1404.5)"/><path d="M0 18.9999 5.5 0 11 18.9999Z" stroke="#000000" stroke-width="3.4375" stroke-miterlimit="8" fill="#FFFFFF" fill-rule="evenodd" transform="matrix(-1 1.22465e-16 1.22465e-16 1 2158.5 1404.5)"/><path d="M0 17.9999 5.5 0 11 17.9999Z" stroke="#000000" stroke-width="3.4375" stroke-miterlimit="8" fill="#FFFFFF" fill-rule="evenodd" transform="matrix(-1 1.22465e-16 1.22465e-16 1 2192.5 1404.5)"/><path d="M2666.5 1267.5 2724.73 1267.5" stroke="#000000" stroke-width="4.58333" stroke-miterlimit="8" fill="none" fill-rule="evenodd"/><path d="M2759.5 1283.5 2817.73 1283.5" stroke="#000000" stroke-width="4.58333" stroke-miterlimit="8" fill="none" fill-rule="evenodd"/><path d="M2571.5 1283.5 2629.73 1283.5" stroke="#000000" stroke-width="4.58333" stroke-miterlimit="8" fill="none" fill-rule="evenodd"/><path d="M2584.16 1305.59C2575.42 1299.65 2656.07 1301.93 2693.3 1301.93 2730.52 1301.93 2807.5 1300.49 2807.5 1305.59 2807.5 1310.68 2730.52 1332.5 2693.3 1332.5 2656.92 1323.53 2592.89 1311.53 2584.16 1305.59Z" stroke="#000000" stroke-width="4.58333" stroke-miterlimit="8" fill="#999999" fill-rule="evenodd"/><path d="M2679.5 1289.33C2679.5 1286.11 2682.11 1283.5 2685.33 1283.5L2708.67 1283.5C2711.89 1283.5 2714.5 1286.11 2714.5 1289.33L2714.5 1335.67C2714.5 1338.89 2711.89 1341.5 2708.67 1341.5L2685.33 1341.5C2682.11 1341.5 2679.5 1338.89 2679.5 1335.67Z" stroke="#000000" stroke-width="4.58333" stroke-miterlimit="8" fill="#F0ECD0" fill-rule="evenodd"/><path d="M2691.5 1292.5 2696 1260.5 2700.5 1292.5Z" stroke="#000000" stroke-width="4.58333" stroke-miterlimit="8" fill-rule="evenodd"/><path d="M2783.5 1306.5 2788 1274.5 2792.5 1306.5Z" stroke="#000000" stroke-width="4.58333" stroke-miterlimit="8" fill-rule="evenodd"/><path d="M2594.5 1305.5 2599 1273.5 2603.5 1305.5Z" stroke="#000000" stroke-width="4.58333" stroke-miterlimit="8" fill-rule="evenodd"/><path d="M2693.5 1352.33C2693.5 1351.32 2694.32 1350.5 2695.33 1350.5L2702.67 1350.5C2703.68 1350.5 2704.5 1351.32 2704.5 1352.33L2704.5 1360.67C2704.5 1361.68 2703.68 1362.5 2702.67 1362.5L2695.33 1362.5C2694.32 1362.5 2693.5 1361.68 2693.5 1360.67Z" stroke="#000000" stroke-width="4.58333" stroke-miterlimit="8" fill="#7F7F7F" fill-rule="evenodd"/><path d="M0 0 0.000360892 11.0531" stroke="#000000" stroke-width="4.58333" stroke-miterlimit="8" fill="none" fill-rule="evenodd" transform="matrix(1 0 0 -1 2696.5 1352.55)"/><path d="M0 0 0.000360892 11.0531" stroke="#000000" stroke-width="4.58333" stroke-miterlimit="8" fill="none" fill-rule="evenodd" transform="matrix(1 0 0 -1 2700.5 1352.55)"/><path d="M2688.5 1294.33C2688.5 1292.77 2689.77 1291.5 2691.33 1291.5L2702.67 1291.5C2704.23 1291.5 2705.5 1292.77 2705.5 1294.33L2705.5 1305.67C2705.5 1307.23 2704.23 1308.5 2702.67 1308.5L2691.33 1308.5C2689.77 1308.5 2688.5 1307.23 2688.5 1305.67Z" stroke="#000000" stroke-width="4.58333" stroke-miterlimit="8" fill="#7F7F7F" fill-rule="evenodd"/><path d="M2823.09 1277.09C2835.03 1280.35 2834.15 1285.41 2821.12 1288.4 2817.48 1289.23 2813.12 1289.84 2808.37 1290.19" stroke="#000000" stroke-width="1.14583" stroke-miterlimit="8" fill="none" fill-rule="evenodd"/><path d="M2838.24 1278.51C2845.19 1281.53 2843.51 1285.33 2834.11 1287.9" stroke="#000000" stroke-width="1.14583" stroke-miterlimit="8" fill="none" fill-rule="evenodd"/><path d="M2847.41 1280.45C2849.04 1281.96 2848.84 1283.55 2846.83 1285.03" stroke="#000000" stroke-width="1.14583" stroke-miterlimit="8" fill="none" fill-rule="evenodd"/><path d="M2731.09 1260.09C2743.03 1263.35 2742.15 1268.41 2729.12 1271.4 2725.48 1272.23 2721.12 1272.84 2716.37 1273.19" stroke="#000000" stroke-width="1.14583" stroke-miterlimit="8" fill="none" fill-rule="evenodd"/><path d="M2745.24 1262.51C2752.19 1265.53 2750.51 1269.33 2741.11 1271.9" stroke="#000000" stroke-width="1.14583" stroke-miterlimit="8" fill="none" fill-rule="evenodd"/><path d="M2754.46 1264.48C2756.02 1265.97 2755.82 1267.53 2753.9 1269" stroke="#000000" stroke-width="1.14583" stroke-miterlimit="8" fill="none" fill-rule="evenodd"/><path d="M2638.09 1279.09C2650.03 1282.35 2649.15 1287.41 2636.12 1290.4 2632.48 1291.23 2628.12 1291.84 2623.37 1292.19" stroke="#000000" stroke-width="1.14583" stroke-miterlimit="8" fill="none" fill-rule="evenodd"/><path d="M2653.07 1281.47C2660.29 1284.51 2658.56 1288.36 2648.81 1290.95" stroke="#000000" stroke-width="1.14583" stroke-miterlimit="8" fill="none" fill-rule="evenodd"/><path d="M2662.41 1283.45C2664.04 1284.96 2663.84 1286.55 2661.83 1288.03" stroke="#000000" stroke-width="1.14583" stroke-miterlimit="8" fill="none" fill-rule="evenodd"/><path d="M2646.5 1362.5 2750.99 1362.5" stroke="#000000" stroke-width="6.875" stroke-miterlimit="8" fill="none" fill-rule="evenodd"/><path d="M0 0 0.000360892 51.9779" stroke="#000000" stroke-width="6.875" stroke-miterlimit="8" fill="none" fill-rule="evenodd" transform="matrix(1 0 0 -1 2648.5 1414.48)"/><path d="M0 0 0.000360892 51.9779" stroke="#000000" stroke-width="6.875" stroke-miterlimit="8" fill="none" fill-rule="evenodd" transform="matrix(1 0 0 -1 2683.5 1414.48)"/><path d="M0 0 0.000360892 51.9779" stroke="#000000" stroke-width="6.875" stroke-miterlimit="8" fill="none" fill-rule="evenodd" transform="matrix(1 0 0 -1 2716.5 1414.48)"/><path d="M0 0 0.000360892 51.9779" stroke="#000000" stroke-width="6.875" stroke-miterlimit="8" fill="none" fill-rule="evenodd" transform="matrix(1 0 0 -1 2750.5 1414.48)"/><path d="M0 18.0002 5.5 0 11 18.0002Z" stroke="#000000" stroke-width="3.4375" stroke-miterlimit="8" fill="#FFFFFF" fill-rule="evenodd" transform="matrix(-1 1.22465e-16 1.22465e-16 1 2654.5 1409.5)"/><path d="M0 18.9999 5.5 0 11 18.9999Z" stroke="#000000" stroke-width="3.4375" stroke-miterlimit="8" fill="#FFFFFF" fill-rule="evenodd" transform="matrix(-1 1.22465e-16 1.22465e-16 1 2688.5 1407.5)"/><path d="M0 18.9999 5.5 0 11 18.9999Z" stroke="#000000" stroke-width="3.4375" stroke-miterlimit="8" fill="#FFFFFF" fill-rule="evenodd" transform="matrix(-1 1.22465e-16 1.22465e-16 1 2722.5 1407.5)"/><path d="M0 17.9999 5.5 0 11 17.9999Z" stroke="#000000" stroke-width="3.4375" stroke-miterlimit="8" fill="#FFFFFF" fill-rule="evenodd" transform="matrix(-1 1.22465e-16 1.22465e-16 1 2756.5 1407.5)"/></g></svg>