<svg width="2916" height="1938" xmlns="http://www.w3.org/2000/svg" xmlns:xlink="http://www.w3.org/1999/xlink" xml:space="preserve" overflow="hidden"><g transform="translate(-876 -239)"><text font-family="Segoe UI,Segoe UI_MSFontService,sans-serif" font-weight="400" font-size="92" transform="matrix(1 0 0 1 1319.43 356)">DIFS</text><rect x="1599.5" y="343.5" width="333" height="169" stroke="#000000" stroke-width="4.58333" stroke-miterlimit="8" fill="#FFFFFF"/><text font-family="Segoe UI,Segoe UI_MSFontService,sans-serif" font-weight="400" font-size="92" transform="matrix(1 0 0 1 1657.52 461)">DATA</text><path d="M1134.5 1637.5 3732.93 1637.5" stroke="#000000" stroke-width="4.58333" stroke-miterlimit="8" fill="none" fill-rule="evenodd"/><path d="M1134.5 1918.5 3732.93 1918.5" stroke="#000000" stroke-width="4.58333" stroke-miterlimit="8" fill="none" fill-rule="evenodd"/><path d="M0 0 13.8824 1575.68" stroke="#000000" stroke-width="4.58333" stroke-miterlimit="8" stroke-dasharray="36.6667 13.75" fill="none" fill-rule="evenodd" transform="matrix(-1 0 0 1 1307.38 342.5)"/><text font-family="Segoe UI,Segoe UI_MSFontService,sans-serif" font-weight="400" font-size="110" transform="matrix(1 0 0 1 943.883 1432)">#4</text><text font-family="Segoe UI,Segoe UI_MSFontService,sans-serif" font-weight="400" font-size="110" transform="matrix(1 0 0 1 945.543 871)">#2</text><text font-family="Segoe UI,Segoe UI_MSFontService,sans-serif" font-weight="400" font-size="110" transform="matrix(1 0 0 1 943.883 1151)">#3</text><text font-family="Segoe UI,Segoe UI_MSFontService,sans-serif" font-weight="400" font-size="110" transform="matrix(1 0 0 1 943.883 591)">#1</text><text font-family="Segoe UI,Segoe UI_MSFontService,sans-serif" font-weight="400" font-size="110" transform="matrix(1 0 0 1 947.772 1714)">#5</text><text font-family="Segoe UI,Segoe UI_MSFontService,sans-serif" font-weight="400" font-size="110" transform="matrix(1 0 0 1 942.45 1996)">#n</text><path d="M1601.79 505.5 1601.79 1443.66 1597.21 1443.66 1597.21 505.5ZM1613.25 1439.08 1599.5 1466.58 1585.75 1439.08Z"/><rect x="1599.5" y="1467.5" width="332" height="169" stroke="#000000" stroke-width="4.58333" stroke-miterlimit="8" stroke-dasharray="4.58333 4.58333" fill="#FFFFFF"/><text font-family="Segoe UI,Segoe UI_MSFontService,sans-serif" font-weight="400" font-size="92" transform="matrix(1 0 0 1 1657.24 1586)">DATA</text><rect x="1599.5" y="1187.5" width="332" height="170" stroke="#000000" stroke-width="4.58333" stroke-miterlimit="8" fill="#FFFFFF"/><text font-family="Segoe UI,Segoe UI_MSFontService,sans-serif" font-weight="400" font-size="92" transform="matrix(1 0 0 1 1657.24 1306)">DATA</text><rect x="2053.5" y="1183.5" width="247" height="174" stroke="#000000" stroke-width="4.58333" stroke-miterlimit="8" fill="#FFFFFF"/><text font-family="Segoe UI,Segoe UI_MSFontService,sans-serif" font-weight="400" font-size="92" transform="matrix(1 0 0 1 2092.92 1304)">ACK</text><text font-family="Segoe UI,Segoe UI_MSFontService,sans-serif" font-weight="400" font-size="92" transform="matrix(1 0 0 1 1993.4 1425)">SIFS+</text><text font-family="Segoe UI,Segoe UI_MSFontService,sans-serif" font-weight="400" font-size="92" transform="matrix(1 0 0 1 1930.33 1535)">Duration</text><path d="M22.9548-1.87197 99.3182-0.474504 99.2344 4.10806 22.8709 2.71059ZM27.2438 14.2509 0 0 27.747-13.2445ZM94.9453-12.0148 122.189 2.23609 94.4422 15.4806Z" transform="matrix(1 0 0 -1 1931.5 1272.74)"/><path d="M2.29167-1.23048e-06 2.29202 649.216-2.29132 649.216-2.29167 1.23048e-06ZM13.7503 644.633 0.000360892 672.133-13.7497 644.633Z" transform="matrix(1 0 0 -1 2053.5 1186.63)"/><rect x="2055.5" y="338.5" width="248" height="174" stroke="#000000" stroke-width="4.58333" stroke-miterlimit="8" fill="#FFFFFF"/><text font-family="Segoe UI,Segoe UI_MSFontService,sans-serif" font-weight="400" font-size="92" transform="matrix(1 0 0 1 2095.21 459)">ACK</text><rect x="1933" y="512" width="122" height="846" fill="#F88A7E" fill-opacity="0.498039"/><path d="M2054.5 1075.5 2081.25 945.5 2161.5 945.5 2134.75 1075.5Z" stroke="#000000" stroke-width="4.58333" stroke-linecap="square" stroke-miterlimit="8" stroke-dasharray="13.75 4.58333" fill="#C1E5F5" fill-rule="evenodd"/><path d="M2055.5 794.5 2082.25 663.5 2162.5 663.5 2135.75 794.5Z" stroke="#000000" stroke-width="4.58333" stroke-linecap="square" stroke-miterlimit="8" stroke-dasharray="13.75 4.58333" fill="#C1E5F5" fill-rule="evenodd"/><path d="M2133.5 794.5 2160.25 663.5 2240.5 663.5 2213.75 794.5Z" stroke="#000000" stroke-width="4.58333" stroke-linecap="square" stroke-miterlimit="8" stroke-dasharray="13.75 4.58333" fill="#C1E5F5" fill-rule="evenodd"/><path d="M2303 513 2055.31 1358 2051 513Z" fill="#F88A7E" fill-rule="evenodd" fill-opacity="0.501961"/><rect x="2582.5" y="1187.5" width="333" height="170" stroke="#000000" stroke-width="4.58333" stroke-miterlimit="8" fill="#FFFFFF"/><text font-family="Segoe UI,Segoe UI_MSFontService,sans-serif" font-weight="400" font-size="92" transform="matrix(1 0 0 1 2640.69 1306)">DATA</text><path d="M2425.5 1357.5 2452.25 1227.5 2532.5 1227.5 2505.75 1357.5Z" stroke="#000000" stroke-width="4.58333" stroke-miterlimit="8" fill="#C1E5F5" fill-rule="evenodd"/><text font-family="Segoe UI,Segoe UI_MSFontService,sans-serif" font-weight="400" font-size="92" transform="matrix(1 0 0 1 2304.5 1201)">DIFS</text><path d="M2503.5 1357.5 2530.25 1227.5 2610.5 1227.5 2583.75 1357.5Z" stroke="#000000" stroke-width="4.58333" stroke-miterlimit="8" fill="#C1E5F5" fill-rule="evenodd"/><path d="M2.29154-0.0240408 6.18695 371.282 1.60387 371.33-2.29154 0.0240408ZM17.5966 366.579 4.13583 394.222-9.90191 366.867Z" transform="matrix(-1 0 0 1 2584.64 1355.5)"/><rect x="2580.5" y="1748.5" width="333" height="170" stroke="#000000" stroke-width="4.58333" stroke-miterlimit="8" fill="#FFFFFF"/><text font-family="Segoe UI,Segoe UI_MSFontService,sans-serif" font-weight="400" font-size="92" transform="matrix(1 0 0 1 2638.63 1867)">DATA</text><path d="M1133.5 513.5 3731.93 513.5" stroke="#000000" stroke-width="4.58333" stroke-miterlimit="8" fill="none" fill-rule="evenodd"/><path d="M1133.5 794.5 3731.93 794.5" stroke="#000000" stroke-width="4.58333" stroke-miterlimit="8" fill="none" fill-rule="evenodd"/><path d="M1133.5 1075.5 3731.93 1075.5" stroke="#000000" stroke-width="4.58333" stroke-miterlimit="8" fill="none" fill-rule="evenodd"/><path d="M1133.5 1357.5 3731.93 1357.5" stroke="#000000" stroke-width="4.58333" stroke-miterlimit="8" fill="none" fill-rule="evenodd"/><text font-family="Segoe UI,Segoe UI_MSFontService,sans-serif" font-weight="400" font-size="92" transform="matrix(1 0 0 1 3657.64 694)">t</text><path d="M3622.5 565.208 3701.73 565.209 3701.73 569.792 3622.5 569.792ZM3697.14 553.75 3724.64 567.5 3697.14 581.25Z"/><text font-family="Segoe UI,Segoe UI_MSFontService,sans-serif" font-weight="400" font-size="92" transform="matrix(1 0 0 1 3657.64 976)">t</text><path d="M3622.5 846.208 3701.73 846.208 3701.73 850.792 3622.5 850.792ZM3697.14 834.75 3724.64 848.5 3697.14 862.25Z"/><text font-family="Segoe UI,Segoe UI_MSFontService,sans-serif" font-weight="400" font-size="92" transform="matrix(1 0 0 1 3657.64 1257)">t</text><path d="M3622.5 1128.21 3701.73 1128.21 3701.73 1132.79 3622.5 1132.79ZM3697.14 1116.75 3724.64 1130.5 3697.14 1144.25Z"/><text font-family="Segoe UI,Segoe UI_MSFontService,sans-serif" font-weight="400" font-size="92" transform="matrix(1 0 0 1 3657.64 1539)">t</text><path d="M3622.5 1409.21 3701.73 1409.21 3701.73 1413.79 3622.5 1413.79ZM3697.14 1397.75 3724.64 1411.5 3697.14 1425.25Z"/><text font-family="Segoe UI,Segoe UI_MSFontService,sans-serif" font-weight="400" font-size="92" transform="matrix(1 0 0 1 3657.64 1819)">t</text><path d="M3622.5 1690.21 3701.73 1690.21 3701.73 1694.79 3622.5 1694.79ZM3697.14 1678.75 3724.64 1692.5 3697.14 1706.25Z"/><text font-family="Segoe UI,Segoe UI_MSFontService,sans-serif" font-weight="400" font-size="92" transform="matrix(1 0 0 1 3657.64 2101)">t</text><path d="M3622.5 1971.21 3701.73 1971.21 3701.73 1975.79 3622.5 1975.79ZM3697.14 1959.75 3724.64 1973.5 3697.14 1987.25Z"/><path d="M2211.5 731.5 2480.2 732.977" stroke="#000000" stroke-width="4.58333" stroke-miterlimit="8" fill="none" fill-rule="evenodd"/><path d="M0 0 354.805 244.234" stroke="#000000" stroke-width="4.58333" stroke-miterlimit="8" fill="none" fill-rule="evenodd" transform="matrix(1 0 0 -1 2118.5 1001.73)"/><text font-family="Segoe UI,Segoe UI_MSFontService,sans-serif" font-weight="400" font-size="92" transform="matrix(1 0 0 1 2512.8 766)">Slot time</text><path d="M2318.42 1268.21 2428.92 1268.21 2428.92 1272.79 2318.42 1272.79ZM2323 1284.25 2295.5 1270.5 2323 1256.75ZM2424.33 1256.75 2451.83 1270.5 2424.33 1284.25Z"/><path d="M2441.42 1378.21 2551.92 1378.21 2551.92 1382.79 2441.42 1382.79ZM2446 1394.25 2418.5 1380.5 2446 1366.75ZM2547.33 1366.75 2574.83 1380.5 2547.33 1394.25Z"/><path d="M1440.5 512.5 1467 382.5 1546.5 382.5 1520 512.5Z" stroke="#000000" stroke-width="4.58333" stroke-miterlimit="8" fill="#C1E5F5" fill-rule="evenodd"/><path d="M1518.5 512.5 1545 382.5 1624.5 382.5 1598 512.5Z" stroke="#000000" stroke-width="4.58333" stroke-miterlimit="8" fill="#C1E5F5" fill-rule="evenodd"/><path d="M1333.42 423.208 1443.92 423.209 1443.92 427.792 1333.42 427.792ZM1338 439.25 1310.5 425.5 1338 411.75ZM1439.33 411.75 1466.83 425.5 1439.33 439.25Z"/><path d="M1456.42 533.208 1566.92 533.209 1566.92 537.792 1456.42 537.792ZM1461 549.25 1433.5 535.5 1461 521.75ZM1562.33 521.75 1589.83 535.5 1562.33 549.25Z"/><text font-family="Segoe UI,Segoe UI_MSFontService,sans-serif" font-weight="400" font-size="92" transform="matrix(1 0 0 1 1391.76 651)">B</text><text font-family="Segoe UI,Segoe UI_MSFontService,sans-serif" font-weight="400" font-size="92" transform="matrix(1 0 0 1 1444.47 651)">ackoff</text><text font-family="Segoe UI,Segoe UI_MSFontService,sans-serif" font-weight="400" font-size="92" transform="matrix(1 0 0 1 2387.21 1498)">B</text><text font-family="Segoe UI,Segoe UI_MSFontService,sans-serif" font-weight="400" font-size="92" transform="matrix(1 0 0 1 2439.92 1498)">ackoff</text></g></svg>