<svg width="2254" height="1937" xmlns="http://www.w3.org/2000/svg" xmlns:xlink="http://www.w3.org/1999/xlink" xml:space="preserve" overflow="hidden"><g transform="translate(-541 -365)"><text font-family="Segoe UI,Segoe UI_MSFontService,sans-serif" font-weight="400" font-size="92" transform="matrix(1 0 0 1 984.722 482)">DIFS</text><rect x="1264.5" y="468.5" width="333" height="170" stroke="#000000" stroke-width="4.58333" stroke-miterlimit="8" fill="#FFFFFF"/><text font-family="Segoe UI,Segoe UI_MSFontService,sans-serif" font-weight="400" font-size="92" transform="matrix(1 0 0 1 1322.81 587)">DATA</text><path d="M800.5 1762.5 2749.32 1762.5" stroke="#000000" stroke-width="4.58333" stroke-miterlimit="8" fill="none" fill-rule="evenodd"/><path d="M800.5 2044.5 2749.32 2044.5" stroke="#000000" stroke-width="4.58333" stroke-miterlimit="8" fill="none" fill-rule="evenodd"/><path d="M0 0 13.8824 1575.68" stroke="#000000" stroke-width="4.58333" stroke-miterlimit="8" stroke-dasharray="36.6667 13.75" fill="none" fill-rule="evenodd" transform="matrix(-1 0 0 1 973.382 468.5)"/><text font-family="Segoe UI,Segoe UI_MSFontService,sans-serif" font-weight="400" font-size="110" transform="matrix(1 0 0 1 609.17 1557)">#4</text><text font-family="Segoe UI,Segoe UI_MSFontService,sans-serif" font-weight="400" font-size="110" transform="matrix(1 0 0 1 610.831 996)">#2</text><text font-family="Segoe UI,Segoe UI_MSFontService,sans-serif" font-weight="400" font-size="110" transform="matrix(1 0 0 1 609.17 1276)">#3</text><text font-family="Segoe UI,Segoe UI_MSFontService,sans-serif" font-weight="400" font-size="110" transform="matrix(1 0 0 1 609.17 716)">#1</text><text font-family="Segoe UI,Segoe UI_MSFontService,sans-serif" font-weight="400" font-size="110" transform="matrix(1 0 0 1 613.059 1839)">#5</text><text font-family="Segoe UI,Segoe UI_MSFontService,sans-serif" font-weight="400" font-size="110" transform="matrix(1 0 0 1 607.737 2121)">#n</text><path d="M1266.79 631.5 1266.79 1569.66 1262.21 1569.66 1262.21 631.5ZM1278.25 1565.08 1264.5 1592.58 1250.75 1565.08Z"/><rect x="1264.5" y="1592.5" width="333" height="169" stroke="#000000" stroke-width="4.58333" stroke-linecap="square" stroke-miterlimit="8" stroke-dasharray="13.75 4.58333" fill="#FFFFFF"/><text font-family="Segoe UI,Segoe UI_MSFontService,sans-serif" font-weight="400" font-size="92" transform="matrix(1 0 0 1 1322.53 1711)">DATA</text><rect x="1264.5" y="1313.5" width="333" height="169" stroke="#000000" stroke-width="4.58333" stroke-miterlimit="8" fill="#FFFFFF"/><text font-family="Segoe UI,Segoe UI_MSFontService,sans-serif" font-weight="400" font-size="92" transform="matrix(1 0 0 1 1322.53 1431)">DATA</text><rect x="1719.5" y="1308.5" width="246" height="174" stroke="#000000" stroke-width="4.58333" stroke-miterlimit="8" fill="#FFFFFF"/><text font-family="Segoe UI,Segoe UI_MSFontService,sans-serif" font-weight="400" font-size="92" transform="matrix(1 0 0 1 1758.21 1429)">ACK</text><text font-family="Segoe UI,Segoe UI_MSFontService,sans-serif" font-weight="400" font-size="92" transform="matrix(1 0 0 1 1583.51 1551)">SIFS+</text><text font-family="Segoe UI,Segoe UI_MSFontService,sans-serif" font-weight="400" font-size="92" transform="matrix(1 0 0 1 1520.45 1661)">Duration</text><path d="M22.9548-1.87197 99.3182-0.474504 99.2344 4.10806 22.8709 2.71059ZM27.2438 14.2509 0 0 27.747-13.2445ZM94.9453-12.0148 122.189 2.23609 94.4422 15.4806Z" transform="matrix(1 0 0 -1 1597.5 1397.74)"/><path d="M2.29167-1.23048e-06 2.29202 649.216-2.29132 649.216-2.29167 1.23048e-06ZM13.7503 644.633 0.000360892 672.133-13.7497 644.633Z" transform="matrix(1 0 0 -1 1719.5 1311.63)"/><rect x="1720.5" y="464.5" width="248" height="174" stroke="#000000" stroke-width="4.58333" stroke-miterlimit="8" fill="#FFFFFF"/><text font-family="Segoe UI,Segoe UI_MSFontService,sans-serif" font-weight="400" font-size="92" transform="matrix(1 0 0 1 1760.49 585)">ACK</text><rect x="1598" y="637" width="122" height="846" fill="#F88A7E" fill-opacity="0.498039"/><path d="M1720.5 1200.5 1747 1070.5 1826.5 1070.5 1800 1200.5Z" stroke="#000000" stroke-width="4.58333" stroke-linecap="square" stroke-miterlimit="8" stroke-dasharray="13.75 4.58333" fill="#C1E5F5" fill-rule="evenodd"/><path d="M1720.5 919.5 1747.25 789.5 1827.5 789.5 1800.75 919.5Z" stroke="#000000" stroke-width="4.58333" stroke-linecap="square" stroke-miterlimit="8" stroke-dasharray="13.75 4.58333" fill="#C1E5F5" fill-rule="evenodd"/><path d="M1798.5 919.5 1825.25 789.5 1905.5 789.5 1878.75 919.5Z" stroke="#000000" stroke-width="4.58333" stroke-linecap="square" stroke-miterlimit="8" stroke-dasharray="13.75 4.58333" fill="#C1E5F5" fill-rule="evenodd"/><path d="M1968 639 1721.3 1483 1717 639Z" fill="#F88A7E" fill-rule="evenodd" fill-opacity="0.501961"/><rect x="2247.5" y="1313.5" width="333" height="169" stroke="#000000" stroke-width="4.58333" stroke-miterlimit="8" fill="#FFFFFF"/><text font-family="Segoe UI,Segoe UI_MSFontService,sans-serif" font-weight="400" font-size="92" transform="matrix(1 0 0 1 2305.98 1431)">DATA</text><path d="M2090.5 1483.5 2117.25 1352.5 2197.5 1352.5 2170.75 1483.5Z" stroke="#000000" stroke-width="4.58333" stroke-miterlimit="8" fill="#C1E5F5" fill-rule="evenodd"/><text font-family="Segoe UI,Segoe UI_MSFontService,sans-serif" font-weight="400" font-size="92" transform="matrix(1 0 0 1 1969.78 1327)">DIFS</text><path d="M2168.5 1483.5 2195.25 1352.5 2275.5 1352.5 2248.75 1483.5Z" stroke="#000000" stroke-width="4.58333" stroke-miterlimit="8" fill="#C1E5F5" fill-rule="evenodd"/><path d="M2.29154-0.0240408 6.18695 371.282 1.60387 371.33-2.29154 0.0240408ZM17.5966 366.579 4.13583 394.222-9.90191 366.867Z" transform="matrix(-1 0 0 1 2249.64 1481.5)"/><rect x="2245.5" y="1874.5" width="333" height="169" stroke="#000000" stroke-width="4.58333" stroke-miterlimit="8" fill="#FFFFFF"/><text font-family="Segoe UI,Segoe UI_MSFontService,sans-serif" font-weight="400" font-size="92" transform="matrix(1 0 0 1 2303.91 1993)">DATA</text><path d="M798.5 638.5 2747.32 638.5" stroke="#000000" stroke-width="4.58333" stroke-miterlimit="8" fill="none" fill-rule="evenodd"/><path d="M798.5 919.5 2747.32 919.5" stroke="#000000" stroke-width="4.58333" stroke-miterlimit="8" fill="none" fill-rule="evenodd"/><path d="M798.5 1201.5 2747.32 1201.5" stroke="#000000" stroke-width="4.58333" stroke-miterlimit="8" fill="none" fill-rule="evenodd"/><path d="M798.5 1482.5 2747.32 1482.5" stroke="#000000" stroke-width="4.58333" stroke-miterlimit="8" fill="none" fill-rule="evenodd"/><text font-family="Segoe UI,Segoe UI_MSFontService,sans-serif" font-weight="400" font-size="92" transform="matrix(1 0 0 1 2660.74 820)">t</text><path d="M2625.5 690.208 2704.73 690.209 2704.73 694.792 2625.5 694.792ZM2700.14 678.75 2727.64 692.501 2700.14 706.25Z"/><text font-family="Segoe UI,Segoe UI_MSFontService,sans-serif" font-weight="400" font-size="92" transform="matrix(1 0 0 1 2660.74 1101)">t</text><path d="M2625.5 972.208 2704.73 972.209 2704.73 976.792 2625.5 976.792ZM2700.14 960.75 2727.64 974.5 2700.14 988.25Z"/><text font-family="Segoe UI,Segoe UI_MSFontService,sans-serif" font-weight="400" font-size="92" transform="matrix(1 0 0 1 2660.74 1382)">t</text><path d="M2625.5 1253.21 2704.73 1253.21 2704.73 1257.79 2625.5 1257.79ZM2700.14 1241.75 2727.64 1255.5 2700.14 1269.25Z"/><text font-family="Segoe UI,Segoe UI_MSFontService,sans-serif" font-weight="400" font-size="92" transform="matrix(1 0 0 1 2660.74 1664)">t</text><path d="M2625.5 1534.21 2704.73 1534.21 2704.73 1538.79 2625.5 1538.79ZM2700.14 1522.75 2727.64 1536.5 2700.14 1550.25Z"/><text font-family="Segoe UI,Segoe UI_MSFontService,sans-serif" font-weight="400" font-size="92" transform="matrix(1 0 0 1 2660.74 1945)">t</text><path d="M2625.5 1815.21 2704.73 1815.21 2704.73 1819.79 2625.5 1819.79ZM2700.14 1803.75 2727.64 1817.5 2700.14 1831.25Z"/><text font-family="Segoe UI,Segoe UI_MSFontService,sans-serif" font-weight="400" font-size="92" transform="matrix(1 0 0 1 2660.74 2226)">t</text><path d="M2625.5 2097.21 2704.73 2097.21 2704.73 2101.79 2625.5 2101.79ZM2700.14 2085.75 2727.64 2099.5 2700.14 2113.25Z"/><path d="M1876.5 856.5 2145.2 857.977" stroke="#000000" stroke-width="4.58333" stroke-miterlimit="8" fill="none" fill-rule="evenodd"/><path d="M0 0 354.805 244.234" stroke="#000000" stroke-width="4.58333" stroke-miterlimit="8" fill="none" fill-rule="evenodd" transform="matrix(1 0 0 -1 1783.5 1126.73)"/><text font-family="Segoe UI,Segoe UI_MSFontService,sans-serif" font-weight="400" font-size="92" transform="matrix(1 0 0 1 2178.08 891)">Slot time</text><path d="M1983.42 1393.21 2093.92 1393.21 2093.92 1397.79 1983.42 1397.79ZM1988 1409.25 1960.5 1395.5 1988 1381.75ZM2089.33 1381.75 2116.83 1395.5 2089.33 1409.25Z"/><path d="M2107.42 1504.21 2217.92 1504.21 2217.92 1508.79 2107.42 1508.79ZM2112 1520.25 2084.5 1506.5 2112 1492.75ZM2213.33 1492.75 2240.83 1506.5 2213.33 1520.25Z"/><path d="M1105.5 638.5 1132.25 507.5 1212.5 507.5 1185.75 638.5Z" stroke="#000000" stroke-width="4.58333" stroke-miterlimit="8" fill="#C1E5F5" fill-rule="evenodd"/><path d="M1183.5 638.5 1210.25 507.5 1290.5 507.5 1263.75 638.5Z" stroke="#000000" stroke-width="4.58333" stroke-miterlimit="8" fill="#C1E5F5" fill-rule="evenodd"/><path d="M998.417 548.208 1108.92 548.208 1108.92 552.792 998.417 552.792ZM1003 564.25 975.5 550.5 1003 536.75ZM1104.33 536.75 1131.83 550.5 1104.33 564.25Z"/><path d="M1122.42 658.208 1232.92 658.208 1232.92 662.792 1122.42 662.792ZM1127 674.25 1099.5 660.5 1127 646.75ZM1228.33 646.75 1255.83 660.5 1228.33 674.25Z"/><text font-family="Segoe UI,Segoe UI_MSFontService,sans-serif" font-weight="400" font-size="92" transform="matrix(1 0 0 1 1057.08 776)">backoff</text><text font-family="Segoe UI,Segoe UI_MSFontService,sans-serif" font-weight="400" font-size="92" transform="matrix(1 0 0 1 2052.53 1623)">backoff</text></g></svg>