<svg width="3446" height="703" xmlns="http://www.w3.org/2000/svg" xmlns:xlink="http://www.w3.org/1999/xlink" xml:space="preserve" overflow="hidden"><g transform="translate(-113 -1353)"><path d="M113 1566.5C113 1448.59 731.295 1353 1494 1353 2256.71 1353 2875 1448.59 2875 1566.5 2875 1684.41 2256.71 1780 1494 1780 731.295 1780 113 1684.41 113 1566.5Z" fill="#83CBEB" fill-rule="evenodd" fill-opacity="0.490196"/><text font-family="Yu Gothic,Yu Gothic_MSFontService,sans-serif" font-weight="400" font-size="147" transform="matrix(1 0 0 1 349.856 1927)">#1</text><text font-family="Yu Gothic,Yu Gothic_MSFontService,sans-serif" font-weight="400" font-size="147" transform="matrix(1 0 0 1 1077.91 1927)">#2</text><text font-family="Yu Gothic,Yu Gothic_MSFontService,sans-serif" font-weight="400" font-size="147" transform="matrix(1 0 0 1 1791.12 1927)">#3</text><text font-family="Yu Gothic,Yu Gothic_MSFontService,sans-serif" font-weight="400" font-size="147" transform="matrix(1 0 0 1 2503.17 1927)">#4</text><text font-family="Yu Gothic,Yu Gothic_MSFontService,sans-serif" font-weight="400" font-size="147" transform="matrix(1 0 0 1 3223.74 1927)">#n</text><path d="M2710 1586.5C2710 1468.59 2900.06 1373 3134.5 1373 3368.94 1373 3559 1468.59 3559 1586.5 3559 1704.41 3368.94 1800 3134.5 1800 2900.06 1800 2710 1704.41 2710 1586.5Z" fill="#F88A7E" fill-rule="evenodd" fill-opacity="0.490196"/><path d="M577 1552.75 2330.5 1552.75 2330.5 1519 2398 1586.5 2330.5 1654 2330.5 1620.25 577 1620.25Z" fill="#215F9A" fill-rule="evenodd" fill-opacity="0.490196"/><path d="M2728 1563.75 3130.5 1563.75 3130.5 1530 3198 1597.5 3130.5 1665 3130.5 1631.25 2728 1631.25Z" fill="#C00000" fill-rule="evenodd" fill-opacity="0.490196"/><path d="M349.5 1511.5 424.213 1511.5" stroke="#000000" stroke-width="4.58333" stroke-miterlimit="8" fill="none" fill-rule="evenodd"/><path d="M468.5 1527.5 543.213 1527.5" stroke="#000000" stroke-width="4.58333" stroke-miterlimit="8" fill="none" fill-rule="evenodd"/><path d="M228.5 1527.5 303.213 1527.5" stroke="#000000" stroke-width="4.58333" stroke-miterlimit="8" fill="none" fill-rule="evenodd"/><path d="M245.338 1549.59C234.189 1543.65 337.16 1545.93 384.687 1545.93 432.214 1545.93 530.5 1544.49 530.5 1549.59 530.5 1554.68 432.214 1576.5 384.687 1576.5 338.238 1567.53 256.487 1555.53 245.338 1549.59Z" stroke="#000000" stroke-width="4.58333" stroke-miterlimit="8" fill="#999999" fill-rule="evenodd"/><path d="M366.5 1535C366.5 1530.86 369.858 1527.5 374 1527.5L404 1527.5C408.142 1527.5 411.5 1530.86 411.5 1535L411.5 1578C411.5 1582.14 408.142 1585.5 404 1585.5L374 1585.5C369.858 1585.5 366.5 1582.14 366.5 1578Z" stroke="#000000" stroke-width="4.58333" stroke-miterlimit="8" fill="#F0ECD0" fill-rule="evenodd"/><path d="M382.5 1536.5 388 1504.5 393.5 1536.5Z" stroke="#000000" stroke-width="4.58333" stroke-miterlimit="8" fill-rule="evenodd"/><path d="M500.5 1550.5 506.5 1518.5 512.5 1550.5Z" stroke="#000000" stroke-width="4.58333" stroke-miterlimit="8" fill-rule="evenodd"/><path d="M257.5 1549.5 263 1517.5 268.5 1549.5Z" stroke="#000000" stroke-width="4.58333" stroke-miterlimit="8" fill-rule="evenodd"/><path d="M384.5 1596.5C384.5 1595.4 385.396 1594.5 386.5 1594.5L396.5 1594.5C397.604 1594.5 398.5 1595.4 398.5 1596.5L398.5 1604.5C398.5 1605.6 397.604 1606.5 396.5 1606.5L386.5 1606.5C385.396 1606.5 384.5 1605.6 384.5 1604.5Z" stroke="#000000" stroke-width="4.58333" stroke-miterlimit="8" fill="#7F7F7F" fill-rule="evenodd"/><path d="M0 0 0.000360892 11.0531" stroke="#000000" stroke-width="4.58333" stroke-miterlimit="8" fill="none" fill-rule="evenodd" transform="matrix(1 0 0 -1 388.5 1596.55)"/><path d="M0 0 0.000360892 11.0531" stroke="#000000" stroke-width="4.58333" stroke-miterlimit="8" fill="none" fill-rule="evenodd" transform="matrix(1 0 0 -1 393.5 1596.55)"/><path d="M378.5 1538.33C378.5 1536.77 379.769 1535.5 381.333 1535.5L396.667 1535.5C398.231 1535.5 399.5 1536.77 399.5 1538.33L399.5 1549.67C399.5 1551.23 398.231 1552.5 396.667 1552.5L381.333 1552.5C379.769 1552.5 378.5 1551.23 378.5 1549.67Z" stroke="#000000" stroke-width="4.58333" stroke-miterlimit="8" fill="#7F7F7F" fill-rule="evenodd"/><path d="M547.714 1520.38C565.254 1523.22 567.512 1528.27 552.758 1531.65 546.896 1532.99 538.904 1533.93 530.015 1534.31" stroke="#000000" stroke-width="1.14583" stroke-miterlimit="8" fill="none" fill-rule="evenodd"/><path d="M567.515 1521.76C580.268 1525.14 577.47 1529.86 561.105 1532.59" stroke="#000000" stroke-width="1.14583" stroke-miterlimit="8" fill="none" fill-rule="evenodd"/><path d="M580.378 1523.96C583.544 1525.8 583.157 1527.81 579.289 1529.6" stroke="#000000" stroke-width="1.14583" stroke-miterlimit="8" fill="none" fill-rule="evenodd"/><path d="M429.08 1503.41C446.32 1506.27 448.397 1511.32 433.717 1514.69 427.963 1516.01 420.17 1516.92 411.51 1517.3" stroke="#000000" stroke-width="1.14583" stroke-miterlimit="8" fill="none" fill-rule="evenodd"/><path d="M448.515 1505.76C461.268 1509.14 458.47 1513.86 442.105 1516.59" stroke="#000000" stroke-width="1.14583" stroke-miterlimit="8" fill="none" fill-rule="evenodd"/><path d="M462.303 1507.93C465.58 1509.79 465.18 1511.83 461.179 1513.64" stroke="#000000" stroke-width="1.14583" stroke-miterlimit="8" fill="none" fill-rule="evenodd"/><path d="M310.08 1522.41C327.321 1525.27 329.397 1530.32 314.717 1533.69 308.963 1535.01 301.17 1535.92 292.51 1536.3" stroke="#000000" stroke-width="1.14583" stroke-miterlimit="8" fill="none" fill-rule="evenodd"/><path d="M329.515 1524.76C342.268 1528.14 339.47 1532.86 323.105 1535.59" stroke="#000000" stroke-width="1.14583" stroke-miterlimit="8" fill="none" fill-rule="evenodd"/><path d="M343.377 1526.96C346.544 1528.8 346.157 1530.81 342.289 1532.6" stroke="#000000" stroke-width="1.14583" stroke-miterlimit="8" fill="none" fill-rule="evenodd"/><path d="M324.5 1606.5 458.574 1606.5" stroke="#000000" stroke-width="6.875" stroke-miterlimit="8" fill="none" fill-rule="evenodd"/><path d="M0 0 0.000360892 51.9779" stroke="#000000" stroke-width="6.875" stroke-miterlimit="8" fill="none" fill-rule="evenodd" transform="matrix(1 0 0 -1 326.5 1658.48)"/><path d="M0 0 0.000360892 51.9779" stroke="#000000" stroke-width="6.875" stroke-miterlimit="8" fill="none" fill-rule="evenodd" transform="matrix(1 0 0 -1 371.5 1658.48)"/><path d="M0 0 0.000360892 51.9779" stroke="#000000" stroke-width="6.875" stroke-miterlimit="8" fill="none" fill-rule="evenodd" transform="matrix(1 0 0 -1 414.5 1658.48)"/><path d="M0 0 0.000360892 51.9779" stroke="#000000" stroke-width="6.875" stroke-miterlimit="8" fill="none" fill-rule="evenodd" transform="matrix(1 0 0 -1 457.5 1658.48)"/><path d="M0 18.0002 7.50007 0 15.0001 18.0002Z" stroke="#000000" stroke-width="3.4375" stroke-miterlimit="8" fill="#FFFFFF" fill-rule="evenodd" transform="matrix(-1 1.22465e-16 1.22465e-16 1 334.5 1653.5)"/><path d="M0 19.0003 7.50007 0 15.0001 19.0003Z" stroke="#000000" stroke-width="3.4375" stroke-miterlimit="8" fill="#FFFFFF" fill-rule="evenodd" transform="matrix(-1 1.22465e-16 1.22465e-16 1 378.5 1651.5)"/><path d="M0 19.0003 7.50007 0 15.0001 19.0003Z" stroke="#000000" stroke-width="3.4375" stroke-miterlimit="8" fill="#FFFFFF" fill-rule="evenodd" transform="matrix(-1 1.22465e-16 1.22465e-16 1 422.5 1651.5)"/><path d="M0 18.0002 7.9999 0 15.9998 18.0002Z" stroke="#000000" stroke-width="3.4375" stroke-miterlimit="8" fill="#FFFFFF" fill-rule="evenodd" transform="matrix(-1 1.22465e-16 1.22465e-16 1 466.5 1651.5)"/><path d="M1075.5 1512.5 1150.21 1512.5" stroke="#000000" stroke-width="4.58333" stroke-miterlimit="8" fill="none" fill-rule="evenodd"/><path d="M1194.5 1527.5 1269.21 1527.5" stroke="#000000" stroke-width="4.58333" stroke-miterlimit="8" fill="none" fill-rule="evenodd"/><path d="M953.5 1528.5 1028.21 1528.5" stroke="#000000" stroke-width="4.58333" stroke-miterlimit="8" fill="none" fill-rule="evenodd"/><path d="M970.341 1550.46C959.152 1544.71 1062.48 1546.92 1110.18 1546.92 1157.87 1546.92 1256.5 1545.53 1256.5 1550.46 1256.5 1555.39 1157.87 1576.5 1110.18 1576.5 1063.57 1567.82 981.529 1556.2 970.341 1550.46Z" stroke="#000000" stroke-width="4.58333" stroke-miterlimit="8" fill="#999999" fill-rule="evenodd"/><path d="M1092.5 1536C1092.5 1531.86 1095.86 1528.5 1100 1528.5L1130 1528.5C1134.14 1528.5 1137.5 1531.86 1137.5 1536L1137.5 1579C1137.5 1583.14 1134.14 1586.5 1130 1586.5L1100 1586.5C1095.86 1586.5 1092.5 1583.14 1092.5 1579Z" stroke="#000000" stroke-width="4.58333" stroke-miterlimit="8" fill="#F0ECD0" fill-rule="evenodd"/><path d="M1107.5 1537.5 1113.5 1505.5 1119.5 1537.5Z" stroke="#000000" stroke-width="4.58333" stroke-miterlimit="8" fill-rule="evenodd"/><path d="M1226.5 1550.5 1232 1518.5 1237.5 1550.5Z" stroke="#000000" stroke-width="4.58333" stroke-miterlimit="8" fill-rule="evenodd"/><path d="M983.5 1550.5 989 1518.5 994.5 1550.5Z" stroke="#000000" stroke-width="4.58333" stroke-miterlimit="8" fill-rule="evenodd"/><path d="M1109.5 1597.5C1109.5 1596.4 1110.4 1595.5 1111.5 1595.5L1122.5 1595.5C1123.6 1595.5 1124.5 1596.4 1124.5 1597.5L1124.5 1605.5C1124.5 1606.6 1123.6 1607.5 1122.5 1607.5L1111.5 1607.5C1110.4 1607.5 1109.5 1606.6 1109.5 1605.5Z" stroke="#000000" stroke-width="4.58333" stroke-miterlimit="8" fill="#7F7F7F" fill-rule="evenodd"/><path d="M0 0 0.000360892 11.0531" stroke="#000000" stroke-width="4.58333" stroke-miterlimit="8" fill="none" fill-rule="evenodd" transform="matrix(1 0 0 -1 1114.5 1597.55)"/><path d="M0 0 0.000360892 11.0531" stroke="#000000" stroke-width="4.58333" stroke-miterlimit="8" fill="none" fill-rule="evenodd" transform="matrix(1 0 0 -1 1119.5 1596.55)"/><path d="M1103.5 1539.33C1103.5 1537.77 1104.77 1536.5 1106.33 1536.5L1122.67 1536.5C1124.23 1536.5 1125.5 1537.77 1125.5 1539.33L1125.5 1550.67C1125.5 1552.23 1124.23 1553.5 1122.67 1553.5L1106.33 1553.5C1104.77 1553.5 1103.5 1552.23 1103.5 1550.67Z" stroke="#000000" stroke-width="4.58333" stroke-miterlimit="8" fill="#7F7F7F" fill-rule="evenodd"/><path d="M1273.08 1520.41C1290.32 1523.27 1292.4 1528.32 1277.72 1531.69 1271.96 1533.01 1264.17 1533.92 1255.51 1534.3" stroke="#000000" stroke-width="1.14583" stroke-miterlimit="8" fill="none" fill-rule="evenodd"/><path d="M1293.27 1522.72C1306.4 1526.11 1303.53 1530.89 1286.74 1533.62" stroke="#000000" stroke-width="1.14583" stroke-miterlimit="8" fill="none" fill-rule="evenodd"/><path d="M1306.38 1524.96C1309.54 1526.8 1309.16 1528.81 1305.29 1530.6" stroke="#000000" stroke-width="1.14583" stroke-miterlimit="8" fill="none" fill-rule="evenodd"/><path d="M1154.71 1504.38C1172.25 1507.22 1174.51 1512.27 1159.76 1515.65 1153.9 1516.99 1145.9 1517.93 1137.02 1518.31" stroke="#000000" stroke-width="1.14583" stroke-miterlimit="8" fill="none" fill-rule="evenodd"/><path d="M1174.27 1505.72C1187.4 1509.11 1184.53 1513.89 1167.74 1516.62" stroke="#000000" stroke-width="1.14583" stroke-miterlimit="8" fill="none" fill-rule="evenodd"/><path d="M1187.38 1507.96C1190.54 1509.8 1190.16 1511.81 1186.29 1513.6" stroke="#000000" stroke-width="1.14583" stroke-miterlimit="8" fill="none" fill-rule="evenodd"/><path d="M1036.08 1523.41C1053.32 1526.27 1055.4 1531.32 1040.72 1534.69 1034.96 1536.01 1027.17 1536.92 1018.51 1537.3" stroke="#000000" stroke-width="1.14583" stroke-miterlimit="8" fill="none" fill-rule="evenodd"/><path d="M1055.51 1524.76C1068.27 1528.14 1065.47 1532.86 1049.11 1535.59" stroke="#000000" stroke-width="1.14583" stroke-miterlimit="8" fill="none" fill-rule="evenodd"/><path d="M1069.3 1526.93C1072.58 1528.79 1072.18 1530.83 1068.18 1532.64" stroke="#000000" stroke-width="1.14583" stroke-miterlimit="8" fill="none" fill-rule="evenodd"/><path d="M1050.5 1607.5 1184.57 1607.5" stroke="#000000" stroke-width="6.875" stroke-miterlimit="8" fill="none" fill-rule="evenodd"/><path d="M0 0 0.000360892 51.9779" stroke="#000000" stroke-width="6.875" stroke-miterlimit="8" fill="none" fill-rule="evenodd" transform="matrix(1 0 0 -1 1052.5 1659.48)"/><path d="M0 0 0.000360892 51.9779" stroke="#000000" stroke-width="6.875" stroke-miterlimit="8" fill="none" fill-rule="evenodd" transform="matrix(1 0 0 -1 1097.5 1659.48)"/><path d="M0 0 0.000360892 51.9779" stroke="#000000" stroke-width="6.875" stroke-miterlimit="8" fill="none" fill-rule="evenodd" transform="matrix(1 0 0 -1 1140.5 1659.48)"/><path d="M0 0 0.000360892 51.9779" stroke="#000000" stroke-width="6.875" stroke-miterlimit="8" fill="none" fill-rule="evenodd" transform="matrix(1 0 0 -1 1183.5 1659.48)"/><path d="M0 18.9999 7.50007 0 15.0001 18.9999Z" stroke="#000000" stroke-width="3.4375" stroke-miterlimit="8" fill="#FFFFFF" fill-rule="evenodd" transform="matrix(-1 1.22465e-16 1.22465e-16 1 1060.5 1653.5)"/><path d="M0 18.0002 7.50007 0 15.0001 18.0002Z" stroke="#000000" stroke-width="3.4375" stroke-miterlimit="8" fill="#FFFFFF" fill-rule="evenodd" transform="matrix(-1 1.22465e-16 1.22465e-16 1 1104.5 1652.5)"/><path d="M0 18.0002 7.9999 0 15.9998 18.0002Z" stroke="#000000" stroke-width="3.4375" stroke-miterlimit="8" fill="#FFFFFF" fill-rule="evenodd" transform="matrix(-1 1.22465e-16 1.22465e-16 1 1148.5 1652.5)"/><path d="M0 19.0003 7.49989 0 14.9998 19.0003Z" stroke="#000000" stroke-width="3.4375" stroke-miterlimit="8" fill="#FFFFFF" fill-rule="evenodd" transform="matrix(-1 1.22465e-16 1.22465e-16 1 1191.5 1651.5)"/><path d="M1790.5 1511.5 1865.21 1511.5" stroke="#000000" stroke-width="4.58333" stroke-miterlimit="8" fill="none" fill-rule="evenodd"/><path d="M1910.5 1527.5 1985.21 1527.5" stroke="#000000" stroke-width="4.58333" stroke-miterlimit="8" fill="none" fill-rule="evenodd"/><path d="M1669.5 1527.5 1744.21 1527.5" stroke="#000000" stroke-width="4.58333" stroke-miterlimit="8" fill="none" fill-rule="evenodd"/><path d="M1686.34 1549.59C1675.19 1543.65 1778.16 1545.93 1825.69 1545.93 1873.21 1545.93 1971.5 1544.49 1971.5 1549.59 1971.5 1554.68 1873.21 1576.5 1825.69 1576.5 1779.24 1567.53 1697.49 1555.53 1686.34 1549.59Z" stroke="#000000" stroke-width="4.58333" stroke-miterlimit="8" fill="#999999" fill-rule="evenodd"/><path d="M1807.5 1535C1807.5 1530.86 1810.86 1527.5 1815 1527.5L1845 1527.5C1849.14 1527.5 1852.5 1530.86 1852.5 1535L1852.5 1578C1852.5 1582.14 1849.14 1585.5 1845 1585.5L1815 1585.5C1810.86 1585.5 1807.5 1582.14 1807.5 1578Z" stroke="#000000" stroke-width="4.58333" stroke-miterlimit="8" fill="#F0ECD0" fill-rule="evenodd"/><path d="M1823.5 1536.5 1829.5 1504.5 1835.5 1536.5Z" stroke="#000000" stroke-width="4.58333" stroke-miterlimit="8" fill-rule="evenodd"/><path d="M1941.5 1550.5 1947.5 1518.5 1953.5 1550.5Z" stroke="#000000" stroke-width="4.58333" stroke-miterlimit="8" fill-rule="evenodd"/><path d="M1698.5 1549.5 1704.5 1517.5 1710.5 1549.5Z" stroke="#000000" stroke-width="4.58333" stroke-miterlimit="8" fill-rule="evenodd"/><path d="M1825.5 1596.5C1825.5 1595.4 1826.4 1594.5 1827.5 1594.5L1838.5 1594.5C1839.6 1594.5 1840.5 1595.4 1840.5 1596.5L1840.5 1604.5C1840.5 1605.6 1839.6 1606.5 1838.5 1606.5L1827.5 1606.5C1826.4 1606.5 1825.5 1605.6 1825.5 1604.5Z" stroke="#000000" stroke-width="4.58333" stroke-miterlimit="8" fill="#7F7F7F" fill-rule="evenodd"/><path d="M0 0 0.000360892 11.0531" stroke="#000000" stroke-width="4.58333" stroke-miterlimit="8" fill="none" fill-rule="evenodd" transform="matrix(1 0 0 -1 1830.5 1596.55)"/><path d="M0 0 0.000360892 11.0531" stroke="#000000" stroke-width="4.58333" stroke-miterlimit="8" fill="none" fill-rule="evenodd" transform="matrix(1 0 0 -1 1835.5 1596.55)"/><path d="M1819.5 1538.33C1819.5 1536.77 1820.77 1535.5 1822.33 1535.5L1838.67 1535.5C1840.23 1535.5 1841.5 1536.77 1841.5 1538.33L1841.5 1549.67C1841.5 1551.23 1840.23 1552.5 1838.67 1552.5L1822.33 1552.5C1820.77 1552.5 1819.5 1551.23 1819.5 1549.67Z" stroke="#000000" stroke-width="4.58333" stroke-miterlimit="8" fill="#7F7F7F" fill-rule="evenodd"/><path d="M1989.08 1520.41C2006.32 1523.27 2008.4 1528.32 1993.72 1531.69 1987.96 1533.01 1980.17 1533.92 1971.51 1534.3" stroke="#000000" stroke-width="1.14583" stroke-miterlimit="8" fill="none" fill-rule="evenodd"/><path d="M2008.51 1521.76C2021.27 1525.14 2018.47 1529.86 2002.11 1532.59" stroke="#000000" stroke-width="1.14583" stroke-miterlimit="8" fill="none" fill-rule="evenodd"/><path d="M2022.3 1523.93C2025.58 1525.79 2025.18 1527.83 2021.18 1529.64" stroke="#000000" stroke-width="1.14583" stroke-miterlimit="8" fill="none" fill-rule="evenodd"/><path d="M1870.08 1503.41C1887.32 1506.27 1889.4 1511.32 1874.72 1514.69 1868.96 1516.01 1861.17 1516.92 1852.51 1517.3" stroke="#000000" stroke-width="1.14583" stroke-miterlimit="8" fill="none" fill-rule="evenodd"/><path d="M1889.51 1505.76C1902.27 1509.14 1899.47 1513.86 1883.1 1516.59" stroke="#000000" stroke-width="1.14583" stroke-miterlimit="8" fill="none" fill-rule="evenodd"/><path d="M1903.38 1507.96C1906.54 1509.8 1906.16 1511.81 1902.29 1513.6" stroke="#000000" stroke-width="1.14583" stroke-miterlimit="8" fill="none" fill-rule="evenodd"/><path d="M1751.71 1522.38C1769.25 1525.22 1771.51 1530.27 1756.76 1533.65 1750.9 1534.99 1742.9 1535.93 1734.02 1536.31" stroke="#000000" stroke-width="1.14583" stroke-miterlimit="8" fill="none" fill-rule="evenodd"/><path d="M1771.27 1524.72C1784.4 1528.11 1781.53 1532.89 1764.74 1535.62" stroke="#000000" stroke-width="1.14583" stroke-miterlimit="8" fill="none" fill-rule="evenodd"/><path d="M1784.38 1526.96C1787.54 1528.8 1787.16 1530.81 1783.29 1532.6" stroke="#000000" stroke-width="1.14583" stroke-miterlimit="8" fill="none" fill-rule="evenodd"/><path d="M1765.5 1606.5 1899.57 1606.5" stroke="#000000" stroke-width="6.875" stroke-miterlimit="8" fill="none" fill-rule="evenodd"/><path d="M0 0 0.000360892 51.9779" stroke="#000000" stroke-width="6.875" stroke-miterlimit="8" fill="none" fill-rule="evenodd" transform="matrix(1 0 0 -1 1768.5 1658.48)"/><path d="M0 0 0.000360892 51.9779" stroke="#000000" stroke-width="6.875" stroke-miterlimit="8" fill="none" fill-rule="evenodd" transform="matrix(1 0 0 -1 1812.5 1658.48)"/><path d="M0 0 0.000360892 51.9779" stroke="#000000" stroke-width="6.875" stroke-miterlimit="8" fill="none" fill-rule="evenodd" transform="matrix(1 0 0 -1 1855.5 1658.48)"/><path d="M0 0 0.000360892 51.9779" stroke="#000000" stroke-width="6.875" stroke-miterlimit="8" fill="none" fill-rule="evenodd" transform="matrix(1 0 0 -1 1899.5 1658.48)"/><path d="M0 18.0002 7.50007 0 15.0001 18.0002Z" stroke="#000000" stroke-width="3.4375" stroke-miterlimit="8" fill="#FFFFFF" fill-rule="evenodd" transform="matrix(-1 1.22465e-16 1.22465e-16 1 1776.5 1653.5)"/><path d="M0 19.0003 7.50007 0 15.0001 19.0003Z" stroke="#000000" stroke-width="3.4375" stroke-miterlimit="8" fill="#FFFFFF" fill-rule="evenodd" transform="matrix(-1 1.22465e-16 1.22465e-16 1 1819.5 1651.5)"/><path d="M0 19.0003 7.50007 0 15.0001 19.0003Z" stroke="#000000" stroke-width="3.4375" stroke-miterlimit="8" fill="#FFFFFF" fill-rule="evenodd" transform="matrix(-1 1.22465e-16 1.22465e-16 1 1863.5 1651.5)"/><path d="M0 18.0002 7.50007 0 15.0001 18.0002Z" stroke="#000000" stroke-width="3.4375" stroke-miterlimit="8" fill="#FFFFFF" fill-rule="evenodd" transform="matrix(-1 1.22465e-16 1.22465e-16 1 1907.5 1651.5)"/><path d="M2498.5 1512.5 2573.21 1512.5" stroke="#000000" stroke-width="4.58333" stroke-miterlimit="8" fill="none" fill-rule="evenodd"/><path d="M2618.5 1528.5 2693.21 1528.5" stroke="#000000" stroke-width="4.58333" stroke-miterlimit="8" fill="none" fill-rule="evenodd"/><path d="M2377.5 1528.5 2452.21 1528.5" stroke="#000000" stroke-width="4.58333" stroke-miterlimit="8" fill="none" fill-rule="evenodd"/><path d="M2394.34 1550.59C2383.15 1544.65 2486.48 1546.93 2534.18 1546.93 2581.87 1546.93 2680.5 1545.49 2680.5 1550.59 2680.5 1555.68 2581.87 1577.5 2534.18 1577.5 2487.57 1568.53 2405.53 1556.53 2394.34 1550.59Z" stroke="#000000" stroke-width="4.58333" stroke-miterlimit="8" fill="#999999" fill-rule="evenodd"/><path d="M2515.5 1536C2515.5 1531.86 2518.86 1528.5 2523 1528.5L2553 1528.5C2557.14 1528.5 2560.5 1531.86 2560.5 1536L2560.5 1579C2560.5 1583.14 2557.14 1586.5 2553 1586.5L2523 1586.5C2518.86 1586.5 2515.5 1583.14 2515.5 1579Z" stroke="#000000" stroke-width="4.58333" stroke-miterlimit="8" fill="#F0ECD0" fill-rule="evenodd"/><path d="M2531.5 1537.5 2537.5 1505.5 2543.5 1537.5Z" stroke="#000000" stroke-width="4.58333" stroke-miterlimit="8" fill-rule="evenodd"/><path d="M2649.5 1551.5 2655.5 1519.5 2661.5 1551.5Z" stroke="#000000" stroke-width="4.58333" stroke-miterlimit="8" fill-rule="evenodd"/><path d="M2406.5 1550.5 2412.5 1518.5 2418.5 1550.5Z" stroke="#000000" stroke-width="4.58333" stroke-miterlimit="8" fill-rule="evenodd"/><path d="M2533.5 1597.5C2533.5 1596.4 2534.4 1595.5 2535.5 1595.5L2546.5 1595.5C2547.6 1595.5 2548.5 1596.4 2548.5 1597.5L2548.5 1605.5C2548.5 1606.6 2547.6 1607.5 2546.5 1607.5L2535.5 1607.5C2534.4 1607.5 2533.5 1606.6 2533.5 1605.5Z" stroke="#000000" stroke-width="4.58333" stroke-miterlimit="8" fill="#7F7F7F" fill-rule="evenodd"/><path d="M0 0 0.000360892 11.0531" stroke="#000000" stroke-width="4.58333" stroke-miterlimit="8" fill="none" fill-rule="evenodd" transform="matrix(1 0 0 -1 2538.5 1597.55)"/><path d="M0 0 0.000360892 11.0531" stroke="#000000" stroke-width="4.58333" stroke-miterlimit="8" fill="none" fill-rule="evenodd" transform="matrix(1 0 0 -1 2543.5 1597.55)"/><path d="M2527.5 1539.33C2527.5 1537.77 2528.77 1536.5 2530.33 1536.5L2546.67 1536.5C2548.23 1536.5 2549.5 1537.77 2549.5 1539.33L2549.5 1550.67C2549.5 1552.23 2548.23 1553.5 2546.67 1553.5L2530.33 1553.5C2528.77 1553.5 2527.5 1552.23 2527.5 1550.67Z" stroke="#000000" stroke-width="4.58333" stroke-miterlimit="8" fill="#7F7F7F" fill-rule="evenodd"/><path d="M2697.08 1521.41C2714.32 1524.27 2716.4 1529.32 2701.72 1532.69 2695.96 1534.01 2688.17 1534.92 2679.51 1535.3" stroke="#000000" stroke-width="1.14583" stroke-miterlimit="8" fill="none" fill-rule="evenodd"/><path d="M2716.52 1522.76C2729.27 1526.14 2726.47 1530.86 2710.11 1533.59" stroke="#000000" stroke-width="1.14583" stroke-miterlimit="8" fill="none" fill-rule="evenodd"/><path d="M2730.3 1524.93C2733.58 1526.79 2733.18 1528.83 2729.18 1530.64" stroke="#000000" stroke-width="1.14583" stroke-miterlimit="8" fill="none" fill-rule="evenodd"/><path d="M2578.08 1504.41C2595.32 1507.27 2597.4 1512.32 2582.72 1515.69 2576.96 1517 2569.17 1517.92 2560.51 1518.3" stroke="#000000" stroke-width="1.14583" stroke-miterlimit="8" fill="none" fill-rule="evenodd"/><path d="M2598.27 1506.72C2611.4 1510.11 2608.53 1514.89 2591.74 1517.62" stroke="#000000" stroke-width="1.14583" stroke-miterlimit="8" fill="none" fill-rule="evenodd"/><path d="M2611.38 1508.96C2614.54 1510.8 2614.16 1512.81 2610.29 1514.6" stroke="#000000" stroke-width="1.14583" stroke-miterlimit="8" fill="none" fill-rule="evenodd"/><path d="M2459.71 1523.38C2477.25 1526.22 2479.51 1531.27 2464.76 1534.65 2458.9 1535.99 2450.9 1536.93 2442.02 1537.31" stroke="#000000" stroke-width="1.14583" stroke-miterlimit="8" fill="none" fill-rule="evenodd"/><path d="M2479.27 1525.72C2492.4 1529.11 2489.53 1533.89 2472.74 1536.62" stroke="#000000" stroke-width="1.14583" stroke-miterlimit="8" fill="none" fill-rule="evenodd"/><path d="M2492.38 1527.96C2495.54 1529.8 2495.16 1531.81 2491.29 1533.6" stroke="#000000" stroke-width="1.14583" stroke-miterlimit="8" fill="none" fill-rule="evenodd"/><path d="M2473.5 1607.5 2607.57 1607.5" stroke="#000000" stroke-width="6.875" stroke-miterlimit="8" fill="none" fill-rule="evenodd"/><path d="M0 0 0.000360892 51.9779" stroke="#000000" stroke-width="6.875" stroke-miterlimit="8" fill="none" fill-rule="evenodd" transform="matrix(1 0 0 -1 2476.5 1659.48)"/><path d="M0 0 0.000360892 51.9779" stroke="#000000" stroke-width="6.875" stroke-miterlimit="8" fill="none" fill-rule="evenodd" transform="matrix(1 0 0 -1 2520.5 1659.48)"/><path d="M0 0 0.000360892 51.9779" stroke="#000000" stroke-width="6.875" stroke-miterlimit="8" fill="none" fill-rule="evenodd" transform="matrix(1 0 0 -1 2563.5 1659.48)"/><path d="M0 0 0.000360892 51.9779" stroke="#000000" stroke-width="6.875" stroke-miterlimit="8" fill="none" fill-rule="evenodd" transform="matrix(1 0 0 -1 2607.5 1659.48)"/><path d="M0 17.9999 7.50007 0 15.0001 17.9999Z" stroke="#000000" stroke-width="3.4375" stroke-miterlimit="8" fill="#FFFFFF" fill-rule="evenodd" transform="matrix(-1 1.22465e-16 1.22465e-16 1 2484.5 1654.5)"/><path d="M0 19.0003 8.00008 0 16.0002 19.0003Z" stroke="#000000" stroke-width="3.4375" stroke-miterlimit="8" fill="#FFFFFF" fill-rule="evenodd" transform="matrix(-1 1.22465e-16 1.22465e-16 1 2528.5 1652.5)"/><path d="M0 19.0003 7.50007 0 15.0001 19.0003Z" stroke="#000000" stroke-width="3.4375" stroke-miterlimit="8" fill="#FFFFFF" fill-rule="evenodd" transform="matrix(-1 1.22465e-16 1.22465e-16 1 2571.5 1652.5)"/><path d="M0 18.0002 7.50007 0 15.0001 18.0002Z" stroke="#000000" stroke-width="3.4375" stroke-miterlimit="8" fill="#FFFFFF" fill-rule="evenodd" transform="matrix(-1 1.22465e-16 1.22465e-16 1 2615.5 1652.5)"/><path d="M3222.5 1515.5 3297.21 1515.5" stroke="#000000" stroke-width="4.58333" stroke-miterlimit="8" fill="none" fill-rule="evenodd"/><path d="M3342.5 1531.5 3417.21 1531.5" stroke="#000000" stroke-width="4.58333" stroke-miterlimit="8" fill="none" fill-rule="evenodd"/><path d="M3101.5 1531.5 3176.21 1531.5" stroke="#000000" stroke-width="4.58333" stroke-miterlimit="8" fill="none" fill-rule="evenodd"/><path d="M3118.34 1553.59C3107.19 1547.65 3210.16 1549.93 3257.69 1549.93 3305.21 1549.93 3403.5 1548.49 3403.5 1553.59 3403.5 1558.68 3305.21 1580.5 3257.69 1580.5 3211.24 1571.53 3129.49 1559.53 3118.34 1553.59Z" stroke="#000000" stroke-width="4.58333" stroke-miterlimit="8" fill="#999999" fill-rule="evenodd"/><path d="M3239.5 1539C3239.5 1534.86 3242.86 1531.5 3247 1531.5L3277 1531.5C3281.14 1531.5 3284.5 1534.86 3284.5 1539L3284.5 1582C3284.5 1586.14 3281.14 1589.5 3277 1589.5L3247 1589.5C3242.86 1589.5 3239.5 1586.14 3239.5 1582Z" stroke="#000000" stroke-width="4.58333" stroke-miterlimit="8" fill="#F0ECD0" fill-rule="evenodd"/><path d="M3255.5 1540.5 3261 1508.5 3266.5 1540.5Z" stroke="#000000" stroke-width="4.58333" stroke-miterlimit="8" fill-rule="evenodd"/><path d="M3373.5 1554.5 3379.5 1522.5 3385.5 1554.5Z" stroke="#000000" stroke-width="4.58333" stroke-miterlimit="8" fill-rule="evenodd"/><path d="M3130.5 1553.5 3136 1521.5 3141.5 1553.5Z" stroke="#000000" stroke-width="4.58333" stroke-miterlimit="8" fill-rule="evenodd"/><path d="M3257.5 1600.5C3257.5 1599.4 3258.4 1598.5 3259.5 1598.5L3269.5 1598.5C3270.6 1598.5 3271.5 1599.4 3271.5 1600.5L3271.5 1608.5C3271.5 1609.6 3270.6 1610.5 3269.5 1610.5L3259.5 1610.5C3258.4 1610.5 3257.5 1609.6 3257.5 1608.5Z" stroke="#000000" stroke-width="4.58333" stroke-miterlimit="8" fill="#7F7F7F" fill-rule="evenodd"/><path d="M0 0 0.000360892 11.0531" stroke="#000000" stroke-width="4.58333" stroke-miterlimit="8" fill="none" fill-rule="evenodd" transform="matrix(1 0 0 -1 3261.5 1600.55)"/><path d="M0 0 0.000360892 11.0531" stroke="#000000" stroke-width="4.58333" stroke-miterlimit="8" fill="none" fill-rule="evenodd" transform="matrix(1 0 0 -1 3267.5 1600.55)"/><path d="M3251.5 1542.33C3251.5 1540.77 3252.77 1539.5 3254.33 1539.5L3269.67 1539.5C3271.23 1539.5 3272.5 1540.77 3272.5 1542.33L3272.5 1553.67C3272.5 1555.23 3271.23 1556.5 3269.67 1556.5L3254.33 1556.5C3252.77 1556.5 3251.5 1555.23 3251.5 1553.67Z" stroke="#000000" stroke-width="4.58333" stroke-miterlimit="8" fill="#7F7F7F" fill-rule="evenodd"/><path d="M3420.71 1524.38C3438.25 1527.22 3440.51 1532.27 3425.76 1535.65 3419.9 1536.99 3411.9 1537.93 3403.02 1538.31" stroke="#000000" stroke-width="1.14583" stroke-miterlimit="8" fill="none" fill-rule="evenodd"/><path d="M3440.51 1525.76C3453.27 1529.14 3450.47 1533.86 3434.11 1536.59" stroke="#000000" stroke-width="1.14583" stroke-miterlimit="8" fill="none" fill-rule="evenodd"/><path d="M3453.38 1527.96C3456.54 1529.8 3456.16 1531.81 3452.29 1533.6" stroke="#000000" stroke-width="1.14583" stroke-miterlimit="8" fill="none" fill-rule="evenodd"/><path d="M3302.08 1507.41C3319.32 1510.27 3321.4 1515.32 3306.72 1518.69 3300.96 1520.01 3293.17 1520.92 3284.51 1521.3" stroke="#000000" stroke-width="1.14583" stroke-miterlimit="8" fill="none" fill-rule="evenodd"/><path d="M3321.51 1509.76C3334.27 1513.14 3331.47 1517.86 3315.11 1520.59" stroke="#000000" stroke-width="1.14583" stroke-miterlimit="8" fill="none" fill-rule="evenodd"/><path d="M3335.3 1511.93C3338.58 1513.79 3338.18 1515.83 3334.18 1517.64" stroke="#000000" stroke-width="1.14583" stroke-miterlimit="8" fill="none" fill-rule="evenodd"/><path d="M3183.08 1526.41C3200.32 1529.27 3202.4 1534.32 3187.72 1537.69 3181.96 1539 3174.17 1539.92 3165.51 1540.3" stroke="#000000" stroke-width="1.14583" stroke-miterlimit="8" fill="none" fill-rule="evenodd"/><path d="M3202.51 1528.76C3215.27 1532.14 3212.47 1536.86 3196.11 1539.59" stroke="#000000" stroke-width="1.14583" stroke-miterlimit="8" fill="none" fill-rule="evenodd"/><path d="M3216.38 1530.96C3219.54 1532.8 3219.16 1534.81 3215.29 1536.6" stroke="#000000" stroke-width="1.14583" stroke-miterlimit="8" fill="none" fill-rule="evenodd"/><path d="M3197.5 1610.5 3331.57 1610.5" stroke="#000000" stroke-width="6.875" stroke-miterlimit="8" fill="none" fill-rule="evenodd"/><path d="M0 0 0.000360892 51.9779" stroke="#000000" stroke-width="6.875" stroke-miterlimit="8" fill="none" fill-rule="evenodd" transform="matrix(1 0 0 -1 3199.5 1662.48)"/><path d="M0 0 0.000360892 51.9779" stroke="#000000" stroke-width="6.875" stroke-miterlimit="8" fill="none" fill-rule="evenodd" transform="matrix(1 0 0 -1 3244.5 1662.48)"/><path d="M0 0 0.000360892 51.9779" stroke="#000000" stroke-width="6.875" stroke-miterlimit="8" fill="none" fill-rule="evenodd" transform="matrix(1 0 0 -1 3287.5 1662.48)"/><path d="M0 0 0.000360892 51.9779" stroke="#000000" stroke-width="6.875" stroke-miterlimit="8" fill="none" fill-rule="evenodd" transform="matrix(1 0 0 -1 3330.5 1662.48)"/><path d="M0 17.9999 7.50007 0 15.0001 17.9999Z" stroke="#000000" stroke-width="3.4375" stroke-miterlimit="8" fill="#FFFFFF" fill-rule="evenodd" transform="matrix(-1 1.22465e-16 1.22465e-16 1 3207.5 1657.5)"/><path d="M0 18.9999 7.50007 0 15.0001 18.9999Z" stroke="#000000" stroke-width="3.4375" stroke-miterlimit="8" fill="#FFFFFF" fill-rule="evenodd" transform="matrix(-1 1.22465e-16 1.22465e-16 1 3251.5 1655.5)"/><path d="M0 18.9999 7.50007 0 15.0001 18.9999Z" stroke="#000000" stroke-width="3.4375" stroke-miterlimit="8" fill="#FFFFFF" fill-rule="evenodd" transform="matrix(-1 1.22465e-16 1.22465e-16 1 3295.5 1655.5)"/><path d="M0 17.9999 7.50007 0 15.0001 17.9999Z" stroke="#000000" stroke-width="3.4375" stroke-miterlimit="8" fill="#FFFFFF" fill-rule="evenodd" transform="matrix(-1 1.22465e-16 1.22465e-16 1 3339.5 1655.5)"/></g></svg>