<svg width="4927" height="3721" xmlns="http://www.w3.org/2000/svg" xmlns:xlink="http://www.w3.org/1999/xlink" xml:space="preserve" overflow="hidden"><g transform="translate(323 -77)"><rect x="3601.5" y="2867.5" width="218" height="182" stroke="#000000" stroke-width="4.58333" stroke-miterlimit="8" fill="#FFFFFF"/><rect x="2489.5" y="2267.5" width="218" height="182" stroke="#000000" stroke-width="4.58333" stroke-miterlimit="8" fill="#FFFFFF"/><rect x="704.5" y="1653.5" width="218" height="182" stroke="#000000" stroke-width="4.58333" stroke-miterlimit="8" fill="#FFFFFF"/><path d="M3522.5 3050.5 3549.25 2910.5 3629.5 2910.5 3602.75 3050.5Z" stroke="#000000" stroke-width="4.58333" stroke-miterlimit="8" fill="#C1E5F5" fill-rule="evenodd"/><text font-family="Segoe UI,Segoe UI_MSFontService,sans-serif" font-weight="400" font-size="92" transform="matrix(1 0 0 1 1902.05 2932)">DIFS</text><text font-family="Segoe UI,Segoe UI_MSFontService,sans-serif" font-weight="400" font-size="92" transform="matrix(1 0 0 1 1897.7 2331)">DIFS</text><text font-family="Segoe UI,Segoe UI_MSFontService,sans-serif" font-weight="400" font-size="92" transform="matrix(1 0 0 1 4469.41 1420)">t</text><path d="M-22.4998 1252.5 4524.74 1252.5" stroke="#000000" stroke-width="4.58333" stroke-miterlimit="8" fill="none" fill-rule="evenodd"/><path d="M4434.5 1289.21 4513.73 1289.21 4513.73 1293.79 4434.5 1293.79ZM4509.14 1277.75 4536.64 1291.5 4509.14 1305.25Z"/><path d="M-22.4998 1835.5 4524.74 1835.5" stroke="#000000" stroke-width="4.58333" stroke-miterlimit="8" fill="none" fill-rule="evenodd"/><path d="M4434.5 1874.21 4513.73 1874.21 4513.73 1878.79 4434.5 1878.79ZM4509.14 1862.75 4536.64 1876.5 4509.14 1890.25Z"/><path d="M-22.4998 2449.5 4524.74 2449.5" stroke="#000000" stroke-width="4.58333" stroke-miterlimit="8" fill="none" fill-rule="evenodd"/><path d="M4434.5 2488.21 4513.73 2488.21 4513.73 2492.79 4434.5 2492.79ZM4509.14 2476.75 4536.64 2490.5 4509.14 2504.25Z"/><path d="M5.5 3050.5 4552.74 3050.5" stroke="#000000" stroke-width="4.58333" stroke-miterlimit="8" fill="none" fill-rule="evenodd"/><path d="M4434.5 3089.21 4513.73 3089.21 4513.73 3093.79 4434.5 3093.79ZM4509.14 3077.75 4536.64 3091.5 4509.14 3105.25Z"/><text font-family="Segoe UI,Segoe UI_MSFontService,sans-serif" font-weight="400" font-size="92" transform="matrix(1 0 0 1 4469.41 1989)">t</text><path d="M4437.5 2489.21 4516.73 2489.21 4516.73 2493.79 4437.5 2493.79ZM4512.14 2477.75 4539.64 2491.5 4512.14 2505.25Z"/><text font-family="Segoe UI,Segoe UI_MSFontService,sans-serif" font-weight="400" font-size="92" transform="matrix(1 0 0 1 4472.22 2604)">t</text><path d="M4437.5 3090.21 4516.73 3090.21 4516.73 3094.79 4437.5 3094.79ZM4512.14 3078.75 4539.64 3092.5 4512.14 3106.25Z"/><text font-family="Segoe UI,Segoe UI_MSFontService,sans-serif" font-weight="400" font-size="92" transform="matrix(1 0 0 1 4472.22 3204)">t</text><path d="M0 0 18.9808 2000.71" stroke="#000000" stroke-width="4.58333" stroke-miterlimit="8" stroke-dasharray="36.6667 13.75" fill="none" fill-rule="evenodd" transform="matrix(-1 0 0 1 560.481 1070.5)"/><path d="M554.5 1835.5 581.25 1695.5 661.501 1695.5 634.75 1835.5Z" stroke="#000000" stroke-width="4.58333" stroke-miterlimit="8" fill="#C1E5F5" fill-rule="evenodd"/><path d="M576.417 1853.21 686.917 1853.21 686.917 1857.79 576.417 1857.79ZM581 1869.25 553.5 1855.5 581 1841.75ZM682.334 1841.75 709.834 1855.5 682.334 1869.25Z"/><text font-family="Segoe UI,Segoe UI_MSFontService,sans-serif" font-weight="400" font-size="92" transform="matrix(1 0 0 1 570.544 1958)">B</text><text font-family="Segoe UI,Segoe UI_MSFontService,sans-serif" font-weight="400" font-size="92" transform="matrix(1 0 0 1 623.253 1958)">ackoff</text><path d="M615.417 1661.21 725.917 1661.21 725.917 1665.79 615.417 1665.79ZM620 1677.25 592.5 1663.5 620 1649.75ZM721.334 1649.75 748.834 1663.5 721.334 1677.25Z"/><text font-family="Segoe UI,Segoe UI_MSFontService,sans-serif" font-weight="400" font-size="92" transform="matrix(1 0 0 1 646.526 1648)">2</text><path d="M560.417 2476.21 915.373 2476.21 915.373 2480.79 560.417 2480.79ZM565 2492.25 537.5 2478.5 565 2464.75ZM910.79 2464.75 938.29 2478.5 910.79 2492.25Z"/><text font-family="Segoe UI,Segoe UI_MSFontService,sans-serif" font-weight="400" font-size="92" transform="matrix(1 0 0 1 576.494 2589)">B</text><text font-family="Segoe UI,Segoe UI_MSFontService,sans-serif" font-weight="400" font-size="92" transform="matrix(1 0 0 1 629.203 2589)">ackoff</text><path d="M564.417 2862.21 940.832 2862.21 940.832 2866.79 564.417 2866.79ZM569 2878.25 541.5 2864.5 569 2850.75ZM936.249 2850.75 963.749 2864.5 936.249 2878.25Z"/><text font-family="Segoe UI,Segoe UI_MSFontService,sans-serif" font-weight="400" font-size="92" transform="matrix(1 0 0 1 737.224 2855)">5</text><path d="M541.5 3050.5 568.25 2910.5 648.5 2910.5 621.75 3050.5Z" stroke="#000000" stroke-width="4.58333" stroke-miterlimit="8" fill="#C1E5F5" fill-rule="evenodd"/><path d="M696.5 3050.5 723.25 2910.5 803.5 2910.5 776.75 3050.5Z" stroke="#000000" stroke-width="4.58333" stroke-miterlimit="8" fill="#FFFFFF" fill-rule="evenodd"/><path d="M619.5 3050.5 646.25 2910.5 726.5 2910.5 699.75 3050.5Z" stroke="#000000" stroke-width="4.58333" stroke-miterlimit="8" fill="#C1E5F5" fill-rule="evenodd"/><path d="M773.5 3050.5 800.25 2910.5 880.5 2910.5 853.75 3050.5Z" stroke="#000000" stroke-width="4.58333" stroke-miterlimit="8" fill="#FFFFFF" fill-rule="evenodd"/><path d="M851.5 3050.5 878.25 2910.5 958.5 2910.5 931.75 3050.5Z" stroke="#000000" stroke-width="4.58333" stroke-miterlimit="8" fill="#FFFFFF" fill-rule="evenodd"/><path d="M632.5 1835.5 659.25 1695.5 739.501 1695.5 712.751 1835.5Z" stroke="#000000" stroke-width="4.58333" stroke-miterlimit="8" fill="#C1E5F5" fill-rule="evenodd"/><text font-family="Segoe UI,Segoe UI_MSFontService,sans-serif" font-weight="400" font-size="92" transform="matrix(1 0 0 1 -224.807 1914)">STA</text><text font-family="Segoe UI,Segoe UI_MSFontService,sans-serif" font-weight="400" font-size="92" transform="matrix(1 0 0 1 -202.188 2024)">#1</text><text font-family="Segoe UI,Segoe UI_MSFontService,sans-serif" font-weight="400" font-size="92" transform="matrix(1 0 0 1 -221.167 2506)">STA</text><text font-family="Segoe UI,Segoe UI_MSFontService,sans-serif" font-weight="400" font-size="92" transform="matrix(1 0 0 1 -198.549 2616)">#</text><text font-family="Segoe UI,Segoe UI_MSFontService,sans-serif" font-weight="400" font-size="92" transform="matrix(1 0 0 1 -144.121 2616)">2</text><text font-family="Segoe UI,Segoe UI_MSFontService,sans-serif" font-weight="400" font-size="92" transform="matrix(1 0 0 1 -214.143 3108)">STA</text><text font-family="Segoe UI,Segoe UI_MSFontService,sans-serif" font-weight="400" font-size="92" transform="matrix(1 0 0 1 -191.524 3218)">#</text><text font-family="Segoe UI,Segoe UI_MSFontService,sans-serif" font-weight="400" font-size="92" transform="matrix(1 0 0 1 -137.097 3218)">3</text><text font-family="Segoe UI,Segoe UI_MSFontService,sans-serif" font-weight="400" font-size="92" transform="matrix(1 0 0 1 -205.548 1382)">AP</text><rect x="-232.5" y="1174" width="100.5" height="102.5" fill="#FFFFFF"/><path d="M-132 1174-98.5002 1140.5-98.5002 1243-132 1276.5Z" fill="#CDCDCD" fill-rule="evenodd"/><path d="M-232.5 1174-199 1140.5-98.5002 1140.5-132 1174Z" fill="#FFFFFF" fill-rule="evenodd"/><path d="M-232.5 1174-199 1140.5-98.5002 1140.5-98.5002 1243-132 1276.5-232.5 1276.5ZM-232.5 1174-132 1174-98.5002 1140.5M-132 1174-132 1276.5" stroke="#000000" stroke-width="4.58333" stroke-miterlimit="8" fill="none" fill-rule="evenodd"/><path d="M0 0 56.0581 0.000360892" stroke="#000000" stroke-width="4.58333" stroke-miterlimit="8" fill="none" fill-rule="evenodd" transform="matrix(-1 0 0 1 -52.442 1212.5)"/><path d="M-50.5 1158.5-50.4997 1213.19" stroke="#000000" stroke-width="4.58333" stroke-miterlimit="8" fill="none" fill-rule="evenodd"/><path d="M0 57.0001 40.4999 0 80.9998 57.0001Z" stroke="#000000" stroke-width="4.58333" stroke-miterlimit="8" fill="#FFFFFF" fill-rule="evenodd" transform="matrix(1 0 0 -1 -90.4999 1162.5)"/><path d="M0 0 56.0581 0.000360892" stroke="#000000" stroke-width="4.58333" stroke-miterlimit="8" fill="none" fill-rule="evenodd" transform="matrix(-1 0 0 1 -52.442 1212.5)"/><path d="M549.5 2449.5 576.25 2309.5 656.501 2309.5 629.75 2449.5Z" stroke="#000000" stroke-width="4.58333" stroke-miterlimit="8" fill="#C1E5F5" fill-rule="evenodd"/><path d="M705.5 2449.5 732 2309.5 811.5 2309.5 785 2449.5Z" stroke="#000000" stroke-width="4.58333" stroke-miterlimit="8" fill="#FFFFFF" fill-rule="evenodd"/><path d="M627.5 2449.5 654.25 2309.5 734.5 2309.5 707.75 2449.5Z" stroke="#000000" stroke-width="4.58333" stroke-miterlimit="8" fill="#C1E5F5" fill-rule="evenodd"/><path d="M781.5 2449.5 808.25 2309.5 888.5 2309.5 861.75 2449.5Z" stroke="#000000" stroke-width="4.58333" stroke-miterlimit="8" fill="#FFFFFF" fill-rule="evenodd"/><path d="M859.5 2449.5 886.25 2309.5 966.5 2309.5 939.75 2449.5Z" stroke="#000000" stroke-width="4.58333" stroke-miterlimit="8" fill="#FFFFFF" fill-rule="evenodd"/><path d="M565.417 2267.21 941.832 2267.21 941.832 2271.79 565.417 2271.79ZM570 2283.25 542.5 2269.5 570 2255.75ZM937.249 2255.75 964.749 2269.5 937.249 2283.25Z"/><text font-family="Segoe UI,Segoe UI_MSFontService,sans-serif" font-weight="400" font-size="92" transform="matrix(1 0 0 1 738.209 2259)">5</text><path d="M0 0 10.9087 2033.04" stroke="#000000" stroke-width="4.58333" stroke-miterlimit="8" stroke-dasharray="36.6667 13.75" fill="none" fill-rule="evenodd" transform="matrix(-1 0 0 1 1429.41 1047.5)"/><path d="M2096.5 1071.5 2096.5 3089.07" stroke="#000000" stroke-width="4.58333" stroke-miterlimit="8" stroke-dasharray="36.6667 13.75" fill="none" fill-rule="evenodd"/><rect x="1649.5" y="2868.5" width="224" height="182" stroke="#000000" stroke-width="4.58333" stroke-miterlimit="8" fill="#FFFFFF"/><path d="M1417.5 2449.5 1444.25 2309.5 1524.5 2309.5 1497.75 2449.5Z" stroke="#000000" stroke-width="4.58333" stroke-miterlimit="8" fill="#C1E5F5" fill-rule="evenodd"/><path d="M1495.5 2449.5 1522.25 2309.5 1602.5 2309.5 1575.75 2449.5Z" stroke="#000000" stroke-width="4.58333" stroke-miterlimit="8" fill="#C1E5F5" fill-rule="evenodd"/><path d="M1417.5 3050.5 1444.25 2910.5 1524.5 2910.5 1497.75 3050.5Z" stroke="#000000" stroke-width="4.58333" stroke-miterlimit="8" fill="#C1E5F5" fill-rule="evenodd"/><path d="M1495.5 3050.5 1522.25 2910.5 1602.5 2910.5 1575.75 3050.5Z" stroke="#000000" stroke-width="4.58333" stroke-miterlimit="8" fill="#C1E5F5" fill-rule="evenodd"/><path d="M1572.5 3050.5 1599.25 2910.5 1679.5 2910.5 1652.75 3050.5Z" stroke="#000000" stroke-width="4.58333" stroke-miterlimit="8" fill="#C1E5F5" fill-rule="evenodd"/><path d="M2.29167-5.11856e-07 2.29202 1592.86-2.29131 1592.86-2.29167 5.11856e-07ZM13.7504 1588.28 0.000360892 1615.78-13.7496 1588.28Z" transform="matrix(1 0 0 -1 1851.5 2871.28)"/><rect x="1647.5" y="2267.5" width="224" height="182" stroke="#000000" stroke-width="4.58333" stroke-miterlimit="8" fill="#FFFFFF"/><path d="M2.29166-0.00419223 4.1087 993.269-0.474629 993.278-2.29166 0.00419223ZM15.5586 988.665 1.85896 1016.19-11.9413 988.716Z" transform="matrix(1 0 0 -1 1759.5 2267.69)"/><path d="M1805 1102.53 1864.79 1040.5 1858.9 1097.45 1926.77 1088.17 1899.81 1118.73 1970.42 1127.52 1914.35 1152.52 1978.5 1182.63 1901.98 1178.91 1923 1234.02 1856.73 1195.11 1844.31 1251.58 1800.69 1200.22 1767.81 1271.5 1755.44 1207.62 1708 1228.9 1722.54 1189.55 1633.67 1196.5 1691.29 1166.43 1631.5 1132.63 1705.83 1121.96 1637.44 1065.04 1748.97 1108.09 1765.67 1065.04Z" stroke="#622C0F" stroke-width="4.58333" stroke-miterlimit="8" fill="#E97132" fill-rule="evenodd"/><path d="M1895.42 2345.21 2076.59 2345.21 2076.59 2349.79 1895.42 2349.79ZM1900 2361.25 1872.5 2347.5 1900 2333.75ZM2072.01 2333.75 2099.51 2347.5 2072.01 2361.25Z"/><path d="M1900.42 2945.21 2081.59 2945.21 2081.59 2949.79 1900.42 2949.79ZM1905 2961.25 1877.5 2947.5 1905 2933.75ZM2077.01 2933.75 2104.51 2947.5 2077.01 2961.25Z"/><path d="M2100.5 3050.5 2127 2910.5 2206.5 2910.5 2180 3050.5Z" stroke="#000000" stroke-width="4.58333" stroke-miterlimit="8" fill="#C1E5F5" fill-rule="evenodd"/><path d="M2255.5 3050.5 2282.25 2910.5 2362.5 2910.5 2335.75 3050.5Z" stroke="#000000" stroke-width="4.58333" stroke-miterlimit="8" fill="#C1E5F5" fill-rule="evenodd"/><path d="M2178.5 3050.5 2205.25 2910.5 2285.5 2910.5 2258.75 3050.5Z" stroke="#000000" stroke-width="4.58333" stroke-miterlimit="8" fill="#C1E5F5" fill-rule="evenodd"/><path d="M2331.5 3050.5 2358.25 2910.5 2438.5 2910.5 2411.75 3050.5Z" stroke="#000000" stroke-width="4.58333" stroke-miterlimit="8" fill="#C1E5F5" fill-rule="evenodd"/><path d="M2408.5 3050.5 2435.25 2910.5 2515.5 2910.5 2488.75 3050.5Z" stroke="#000000" stroke-width="4.58333" stroke-miterlimit="8" fill="#C1E5F5" fill-rule="evenodd"/><path d="M2477.5 3050.5 2504.25 2910.5 2584.5 2910.5 2557.75 3050.5Z" stroke="#000000" stroke-width="4.58333" stroke-miterlimit="8" fill="#FFFFFF" fill-rule="evenodd"/><path d="M2628.5 3050.5 2655.25 2910.5 2735.5 2910.5 2708.75 3050.5Z" stroke="#000000" stroke-width="4.58333" stroke-miterlimit="8" fill="#FFFFFF" fill-rule="evenodd"/><path d="M2551.5 3050.5 2578.25 2910.5 2658.5 2910.5 2631.75 3050.5Z" stroke="#000000" stroke-width="4.58333" stroke-miterlimit="8" fill="#FFFFFF" fill-rule="evenodd"/><path d="M2704.5 3050.5 2731.25 2910.5 2811.5 2910.5 2784.75 3050.5Z" stroke="#000000" stroke-width="4.58333" stroke-miterlimit="8" fill="#FFFFFF" fill-rule="evenodd"/><path d="M2782.5 3050.5 2809.25 2910.5 2889.5 2910.5 2862.75 3050.5Z" stroke="#000000" stroke-width="4.58333" stroke-miterlimit="8" fill="#FFFFFF" fill-rule="evenodd"/><path d="M2101.5 2449.5 2128.25 2309.5 2208.5 2309.5 2181.75 2449.5Z" stroke="#000000" stroke-width="4.58333" stroke-miterlimit="8" fill="#C1E5F5" fill-rule="evenodd"/><path d="M2256.5 2449.5 2283.25 2309.5 2363.5 2309.5 2336.75 2449.5Z" stroke="#000000" stroke-width="4.58333" stroke-miterlimit="8" fill="#C1E5F5" fill-rule="evenodd"/><path d="M2179.5 2449.5 2206.25 2309.5 2286.5 2309.5 2259.75 2449.5Z" stroke="#000000" stroke-width="4.58333" stroke-miterlimit="8" fill="#C1E5F5" fill-rule="evenodd"/><path d="M3211.5 1069.5 3211.5 3087.07" stroke="#000000" stroke-width="4.58333" stroke-miterlimit="8" stroke-dasharray="36.6667 13.75" fill="none" fill-rule="evenodd"/><path d="M3214.5 3050.5 3241.25 2910.5 3321.5 2910.5 3294.75 3050.5Z" stroke="#000000" stroke-width="4.58333" stroke-miterlimit="8" fill="#C1E5F5" fill-rule="evenodd"/><path d="M3369.5 3050.5 3396.25 2910.5 3476.5 2910.5 3449.75 3050.5Z" stroke="#000000" stroke-width="4.58333" stroke-miterlimit="8" fill="#C1E5F5" fill-rule="evenodd"/><path d="M3292.5 3050.5 3319 2910.5 3398.5 2910.5 3372 3050.5Z" stroke="#000000" stroke-width="4.58333" stroke-miterlimit="8" fill="#C1E5F5" fill-rule="evenodd"/><path d="M3445.5 3050.5 3472.25 2910.5 3552.5 2910.5 3525.75 3050.5Z" stroke="#000000" stroke-width="4.58333" stroke-miterlimit="8" fill="#C1E5F5" fill-rule="evenodd"/><path d="M1572.5 2449.5 1599 2309.5 1678.5 2309.5 1652 2449.5Z" stroke="#000000" stroke-width="4.58333" stroke-miterlimit="8" fill="#C1E5F5" fill-rule="evenodd"/><path d="M2336.5 2449.5 2363 2309.5 2442.5 2309.5 2416 2449.5Z" stroke="#000000" stroke-width="4.58333" stroke-miterlimit="8" fill="#C1E5F5" fill-rule="evenodd"/><text font-family="Segoe UI,Segoe UI_MSFontService,sans-serif" font-weight="400" font-size="92" transform="matrix(1 0 0 1 1715.85 1037)">C</text><text font-family="Segoe UI,Segoe UI_MSFontService,sans-serif" font-weight="400" font-size="92" transform="matrix(1 0 0 1 1772.57 1037)">ollision</text><path d="M-20.5001 1835.5 15.2497 1692.5 341.5 1692.5 305.75 1835.5Z" stroke="#000000" stroke-width="4.58333" stroke-miterlimit="8" fill="#C1E5F5" fill-rule="evenodd"/><text font-family="Segoe UI,Segoe UI_MSFontService,sans-serif" font-weight="400" font-size="92" transform="matrix(1 0 0 1 65.3843 1793)">bus</text><text font-family="Segoe UI,Segoe UI_MSFontService,sans-serif" font-weight="400" font-size="92" transform="matrix(1 0 0 1 210.332 1793)">y</text><text font-family="Segoe UI,Segoe UI_MSFontService,sans-serif" font-weight="400" font-size="92" transform="matrix(1 0 0 1 347.937 1729)">DIFS</text><path d="M345.416 1742.21 526.591 1742.21 526.591 1746.79 345.416 1746.79ZM350 1758.25 322.5 1744.5 350 1730.75ZM522.008 1730.75 549.508 1744.5 522.008 1758.25Z"/><path d="M-18.5001 2449.5 17.5 2305.5 343.5 2305.5 307.5 2449.5Z" stroke="#000000" stroke-width="4.58333" stroke-miterlimit="8" fill="#C1E5F5" fill-rule="evenodd"/><text font-family="Segoe UI,Segoe UI_MSFontService,sans-serif" font-weight="400" font-size="92" transform="matrix(1 0 0 1 67.7456 2407)">bus</text><text font-family="Segoe UI,Segoe UI_MSFontService,sans-serif" font-weight="400" font-size="92" transform="matrix(1 0 0 1 212.694 2407)">y</text><text font-family="Segoe UI,Segoe UI_MSFontService,sans-serif" font-weight="400" font-size="92" transform="matrix(1 0 0 1 350.298 2342)">DIFS</text><path d="M348.417 2356.21 529.591 2356.21 529.591 2360.79 348.417 2360.79ZM353 2372.25 325.5 2358.5 353 2344.75ZM525.008 2344.75 552.508 2358.5 525.008 2372.25Z"/><path d="M-11.4998 1252.5 24.25 1109.5 350.5 1109.5 314.75 1252.5Z" stroke="#000000" stroke-width="4.58333" stroke-miterlimit="8" fill="#C1E5F5" fill-rule="evenodd"/><text font-family="Segoe UI,Segoe UI_MSFontService,sans-serif" font-weight="400" font-size="92" transform="matrix(1 0 0 1 74.1489 1211)">bus</text><text font-family="Segoe UI,Segoe UI_MSFontService,sans-serif" font-weight="400" font-size="92" transform="matrix(1 0 0 1 219.097 1211)">y</text><text font-family="Segoe UI,Segoe UI_MSFontService,sans-serif" font-weight="400" font-size="92" transform="matrix(1 0 0 1 356.702 1146)">DIFS</text><path d="M354.416 1160.21 535.591 1160.21 535.591 1164.79 354.416 1164.79ZM359 1176.25 331.5 1162.5 359 1148.75ZM531.008 1148.75 558.508 1162.5 531.008 1176.25Z"/><path d="M-26.5 3050.5 9.5001 2906.5 335.5 2906.5 299.5 3050.5Z" stroke="#000000" stroke-width="4.58333" stroke-miterlimit="8" fill="#C1E5F5" fill-rule="evenodd"/><text font-family="Segoe UI,Segoe UI_MSFontService,sans-serif" font-weight="400" font-size="92" transform="matrix(1 0 0 1 59.6757 3008)">bus</text><text font-family="Segoe UI,Segoe UI_MSFontService,sans-serif" font-weight="400" font-size="92" transform="matrix(1 0 0 1 204.624 3008)">y</text><text font-family="Segoe UI,Segoe UI_MSFontService,sans-serif" font-weight="400" font-size="92" transform="matrix(1 0 0 1 342.228 2944)">DIFS</text><path d="M340.417 2957.21 521.591 2957.21 521.591 2961.79 340.417 2961.79ZM345 2973.25 317.5 2959.5 345 2945.75ZM517.008 2945.75 544.508 2959.5 517.008 2973.25Z"/><path d="M2414.5 2449.5 2441 2309.5 2520.5 2309.5 2494 2449.5Z" stroke="#000000" stroke-width="4.58333" stroke-miterlimit="8" fill="#C1E5F5" fill-rule="evenodd"/><text font-family="Segoe UI,Segoe UI_MSFontService,sans-serif" font-weight="400" font-size="92" transform="matrix(1 0 0 1 1224.22 1146)">DIFS</text><rect x="1042.5" y="1065.5" width="155" height="187" stroke="#000000" stroke-width="4.58333" stroke-miterlimit="8" fill="#FFFFFF"/><path d="M1122.79 1252.49 1124.33 1630.33 1119.75 1630.35 1118.21 1252.51ZM1135.77 1625.7 1122.13 1653.26 1108.27 1625.81Z"/><text font-family="Segoe UI,Segoe UI_MSFontService,sans-serif" font-weight="400" font-size="92" transform="matrix(1 0 0 1 1159.76 1387)">ACK</text><rect x="704.5" y="1070.5" width="218" height="182" stroke="#000000" stroke-width="4.58333" stroke-miterlimit="8" fill="#FFFFFF"/><path d="M22.9574-1.84005 97.6727-0.368806 97.5825 4.21364 22.8672 2.7424ZM27.224 14.2887 0 0 27.7654-13.2059ZM93.3159-11.9151 120.54 2.37359 92.7745 15.5795Z" transform="matrix(1 0 0 -1 922.5 1161.87)"/><path d="M2.29167-0.000214692 2.32705 377.715-2.25628 377.716-2.29167 0.000214692ZM13.785 373.131 0.0375328 400.632-13.715 373.133Z" transform="matrix(1 0 0 -1 813.5 1653.13)"/><text font-family="Segoe UI,Segoe UI_MSFontService,sans-serif" font-weight="400" font-size="92" transform="matrix(1 0 0 1 866.06 1387)">DATA</text><path d="M22.9165-2.29163 204.446-2.29134 204.446 2.29199 22.9165 2.2917ZM27.5 13.75 0 0 27.5-13.75ZM199.862-13.7497 227.362 0.000360892 199.862 13.7503Z" transform="matrix(1 0 0 -1 1197.5 1159.5)"/><text font-family="Segoe UI,Segoe UI_MSFontService,sans-serif" font-weight="400" font-size="92" transform="matrix(1 0 0 1 904.856 1060)">SIFS</text><text font-family="Segoe UI,Segoe UI_MSFontService,sans-serif" font-weight="400" font-size="92" transform="matrix(1 0 0 1 1224.22 1728)">DIFS</text><rect x="1044.5" y="1653.5" width="155" height="182" stroke="#000000" stroke-width="4.58333" stroke-miterlimit="8" fill="#FFFFFF"/><path d="M1222.42 1742.21 1403.59 1742.21 1403.59 1746.79 1222.42 1746.79ZM1227 1758.25 1199.5 1744.5 1227 1730.75ZM1399.01 1730.75 1426.51 1744.5 1399.01 1758.25Z"/><text font-family="Segoe UI,Segoe UI_MSFontService,sans-serif" font-weight="400" font-size="92" transform="matrix(1 0 0 1 3009.25 1145)">DIFS</text><rect x="2828.5" y="1065.5" width="154" height="186" stroke="#000000" stroke-width="4.58333" stroke-miterlimit="8" fill="#FFFFFF"/><path d="M2907.79 1251.5 2909.39 2245.14 2904.81 2245.15 2903.21 1251.5ZM2920.84 2240.54 2907.13 2268.06 2893.34 2240.58Z"/><text font-family="Segoe UI,Segoe UI_MSFontService,sans-serif" font-weight="400" font-size="92" transform="matrix(1 0 0 1 2944.79 1386)">ACK</text><rect x="2489.5" y="1069.5" width="218" height="182" stroke="#000000" stroke-width="4.58333" stroke-miterlimit="8" fill="#FFFFFF"/><path d="M22.9574-1.84005 97.6727-0.368806 97.5825 4.21364 22.8672 2.7424ZM27.224 14.2887 0 0 27.7654-13.2059ZM93.3159-11.9151 120.54 2.37359 92.7745 15.5795Z" transform="matrix(1 0 0 -1 2707.5 1160.87)"/><path d="M2.29167-8.46584e-05 2.32835 993.08-2.25498 993.081-2.29167 8.46584e-05ZM13.7865 988.497 0.0375328 1016-13.7135 988.498Z" transform="matrix(1 0 0 -1 2598.5 2267.5)"/><text font-family="Segoe UI,Segoe UI_MSFontService,sans-serif" font-weight="400" font-size="92" transform="matrix(1 0 0 1 2651.09 1386)">DATA</text><path d="M22.9165-2.29163 204.446-2.29134 204.446 2.29199 22.9165 2.2917ZM27.5 13.75 0 0 27.5-13.75ZM199.862-13.7497 227.362 0.000360892 199.862 13.7503Z" transform="matrix(1 0 0 -1 2982.5 1158.5)"/><text font-family="Segoe UI,Segoe UI_MSFontService,sans-serif" font-weight="400" font-size="92" transform="matrix(1 0 0 1 2689.89 1059)">SIFS</text><text font-family="Segoe UI,Segoe UI_MSFontService,sans-serif" font-weight="400" font-size="92" transform="matrix(1 0 0 1 3009.25 2343)">DIFS</text><rect x="2829.5" y="2268.5" width="155" height="182" stroke="#000000" stroke-width="4.58333" stroke-miterlimit="8" fill="#FFFFFF"/><path d="M3007.42 2357.21 3188.59 2357.21 3188.59 2361.79 3007.42 2361.79ZM3012 2373.25 2984.5 2359.5 3012 2345.75ZM3184.01 2345.75 3211.51 2359.5 3184.01 2373.25Z"/><rect x="3939.5" y="1063.5" width="155" height="187" stroke="#000000" stroke-width="4.58333" stroke-miterlimit="8" fill="#FFFFFF"/><path d="M4019.79 1250.5 4021.4 2844.34 4016.82 2844.35 4015.21 1250.5ZM4032.86 2839.74 4019.13 2867.26 4005.36 2839.77Z"/><text font-family="Segoe UI,Segoe UI_MSFontService,sans-serif" font-weight="400" font-size="92" transform="matrix(1 0 0 1 4056.61 1385)">ACK</text><rect x="3601.5" y="1068.5" width="218" height="182" stroke="#000000" stroke-width="4.58333" stroke-miterlimit="8" fill="#FFFFFF"/><path d="M22.9574-1.84005 97.6727-0.368806 97.5825 4.21364 22.8672 2.7424ZM27.224 14.2887 0 0 27.7654-13.2059ZM93.3159-11.9151 120.54 2.37359 92.7745 15.5795Z" transform="matrix(1 0 0 -1 3819.5 1159.87)"/><path d="M2.29167-5.32049e-05 2.32867 1593.71-2.25467 1593.71-2.29167 5.32049e-05ZM13.7869 1589.13 0.0375328 1616.63-13.7131 1589.13Z" transform="matrix(1 0 0 -1 3710.5 2867.13)"/><text font-family="Segoe UI,Segoe UI_MSFontService,sans-serif" font-weight="400" font-size="92" transform="matrix(1 0 0 1 3762.91 1385)">DATA</text><text font-family="Segoe UI,Segoe UI_MSFontService,sans-serif" font-weight="400" font-size="92" transform="matrix(1 0 0 1 3801.7 1058)">SIFS</text><rect x="3941.5" y="2867.5" width="155" height="182" stroke="#000000" stroke-width="4.58333" stroke-miterlimit="8" fill="#FFFFFF"/><path d="M560.417 3080.21 915.373 3080.21 915.373 3084.79 560.417 3084.79ZM565 3096.25 537.5 3082.5 565 3068.75ZM910.79 3068.75 938.29 3082.5 910.79 3096.25Z"/><text font-family="Segoe UI,Segoe UI_MSFontService,sans-serif" font-weight="400" font-size="92" transform="matrix(1 0 0 1 576.494 3193)">B</text><text font-family="Segoe UI,Segoe UI_MSFontService,sans-serif" font-weight="400" font-size="92" transform="matrix(1 0 0 1 629.203 3193)">ackoff</text><path d="M0.297914-2.27222 4.44687-1.72824 8.78473-0.0426697 12.9801 2.64232 17.0474 6.24909 21.0102 10.7283 24.8857 16.0456 28.6833 22.1723 32.4062 29.0806 36.0536 36.7425 39.6226 45.1293 43.1084 54.2116 46.5055 63.9593 49.8078 74.342 53.0085 85.3289 56.1008 96.889 59.0777 108.991 61.932 121.603 64.6563 134.694 67.2433 148.233 69.6857 162.187 71.9759 176.525 74.1077 191.222 77.8591 221.522 80.883 252.856 83.118 284.96 84.5035 317.578 84.9788 350.456 84.5046 383.334 83.1222 415.952 80.8923 448.056 77.8753 479.389 74.1323 509.689 72.0054 524.387 69.7203 538.724 67.2835 552.678 64.7023 566.216 61.9842 579.308 59.1364 591.92 56.1663 604.022 53.0809 615.582 49.8875 626.568 46.5927 636.951 43.2033 646.699 39.7254 655.781 36.1646 664.168 32.5254 671.829 28.811 678.738 24.8752 685.102 20.1375 689.101 17.1812 685.598 21.64 681.835 21.1691 682.38 24.8764 676.386 24.8071 676.506 28.4615 669.709 28.4099 669.811 32.0039 662.245 31.9645 662.332 35.4906 654.027 35.4599 654.104 38.9104 645.093 38.8859 645.16 42.2534 635.475 42.2336 635.535 45.5104 625.209 45.4941 625.262 48.6727 614.327 48.6591 614.375 51.732 602.862 51.7205 602.907 54.6801 590.848 54.6703 590.89 57.509 578.318 57.5006 578.356 60.2109 565.303 60.2036 565.34 62.7779 551.837 62.7716 551.872 65.2024 537.953 65.1968 537.986 67.4766 523.682 67.4716 523.714 69.5928 509.056 69.5864 509.104 73.3227 478.858 73.316 478.919 76.3271 447.647 76.3221 447.708 78.5478 415.665 78.5443 415.727 79.924 383.171 79.9222 383.235 80.3955 350.423 80.3955 350.489 79.9211 317.677 79.9229 317.741 78.5401 285.185 78.5436 285.247 76.3129 253.205 76.318 253.266 73.3 221.993 73.3067 222.055 69.562 191.809 69.5684 191.856 67.4424 177.199 67.4473 177.231 65.1624 162.927 65.168 162.96 62.7317 149.041 62.7381 149.076 60.1579 135.573 60.1653 135.61 57.4488 122.556 57.4573 122.595 54.6121 110.023 54.6219 110.065 51.6557 98.0062 51.6672 98.051 48.5874 86.5378 48.601 86.5866 45.4152 75.6508 45.4315 75.7045 42.1473 65.3784 42.1672 65.438 38.7921 55.7536 38.8166 55.8206 35.3583 46.81 35.3891 46.8861 31.8551 38.5814 31.8946 38.6691 28.2924 31.1023 28.3442 31.2045 24.6815 24.4078 24.7511 24.528 21.0353 18.5334 21.1312 18.6758 17.3701 13.5154 17.5057 13.6841 13.7067 9.39006 13.9026 9.58619 10.0733 6.1905 10.3585 6.40611 6.50649 3.94089 6.91179 4.14675 3.04467 2.64409 3.57677 2.78024-0.297914 2.27222ZM30.4914 695.72 0.186942 700.912 14.2164 673.553Z" transform="matrix(1.83697e-16 1 1 -1.83697e-16 834.5 2449.5)"/><path d="M0.302004-2.27168 4.44677-1.72066 8.78119-0.0128993 12.9699 2.70524 17.0288 6.35488 20.9827 10.8865 24.8495 16.266 28.6386 22.4644 32.3533 29.4538 35.9929 37.206 39.5543 45.692 43.0329 54.8819 46.423 64.7454 49.7185 75.2516 52.9127 86.3694 55.9987 98.0672 58.9696 110.313 61.8182 123.076 64.5371 136.324 67.1189 150.024 69.5564 164.145 71.8421 178.654 73.9696 193.527 77.7137 224.19 80.7316 255.898 82.9622 288.386 84.3449 321.396 84.8193 354.667 84.3451 387.938 82.9628 420.947 80.733 453.435 77.7161 485.143 73.9732 515.806 71.8464 530.679 69.5615 545.188 67.1248 559.309 64.5438 573.009 61.8258 586.256 58.9783 599.019 56.0084 611.266 52.9233 622.963 49.7301 634.081 46.4358 644.587 43.0468 654.451 39.5694 663.641 36.0092 672.127 32.3708 679.879 28.6574 686.868 24.7266 693.3 19.9361 697.426 16.9451 693.953 21.4631 690.062 21.0032 690.604 24.7105 684.537 24.6422 684.657 28.2966 677.779 28.2459 677.88 31.8399 670.222 31.8012 670.31 35.3272 661.905 35.2971 661.981 38.7476 652.862 38.7237 652.928 42.0911 643.127 42.0717 643.186 45.3485 632.736 45.3326 632.789 48.5112 621.722 48.4979 621.77 51.5707 610.119 51.5595 610.163 54.5191 597.96 54.5095 598.001 57.3482 585.278 57.34 585.316 60.0503 572.106 60.0431 572.142 62.6175 558.477 62.6112 558.512 65.0421 544.425 65.0366 544.458 67.3164 529.982 67.3116 530.014 69.4327 515.18 69.4265 515.227 73.1628 484.618 73.1562 484.679 76.1674 453.031 76.1625 453.091 78.3881 420.663 78.3847 420.724 79.7644 387.777 79.7627 387.841 80.236 354.634 80.236 354.699 79.7625 321.493 79.7643 321.556 78.3841 288.609 78.3875 288.67 76.1611 256.242 76.166 256.303 73.1539 224.655 73.1605 224.715 69.4229 194.106 69.4291 194.153 67.3073 179.319 67.3121 179.351 65.0316 164.875 65.037 164.908 62.6054 150.821 62.6116 150.856 60.0364 137.191 60.0436 137.227 57.3324 124.017 57.3406 124.056 54.501 111.332 54.5105 111.374 51.55 99.17 51.5612 99.2143 48.4873 87.5627 48.5006 87.6109 45.321 76.5438 45.3369 76.5969 42.059 66.1468 42.0784 66.2058 38.7099 56.405 38.7339 56.4714 35.2822 47.3526 35.3123 47.4281 31.7851 39.0236 31.8238 39.1107 28.2286 31.4531 28.2794 31.5546 24.6238 24.6763 24.6921 24.796 20.9836 18.7294 21.078 18.8717 17.3241 13.6494 17.4582 13.8184 13.6665 9.47278 13.861 9.67023 10.0392 6.23375 10.3239 6.45203 6.47939 3.9572 6.88681 4.16697 3.02715 2.64626 3.56521 2.7858-0.302004 2.27168ZM30.309 704.009 0.0274278 709.333 13.9374 681.913Z" transform="matrix(1.83697e-16 1 1 -1.83697e-16 826.5 3050.5)"/><path d="M0.309618-2.27065 4.45941-1.7048 8.80004 0.0493224 12.9888 2.83731 17.0448 6.57791 20.9948 11.2214 24.8579 16.7336 28.6436 23.0854 32.3553 30.2486 35.9923 38.1942 39.5514 46.8925 43.028 56.3129 46.4163 66.4242 49.7101 77.1948 52.9028 88.5926 55.9875 100.585 58.9571 113.141 61.8045 126.226 64.5222 139.808 67.1031 153.855 69.5397 168.332 71.8245 183.209 73.9512 198.458 77.6939 229.896 80.7107 262.407 82.9405 295.717 84.3227 329.562 84.7969 363.674 84.3227 397.787 82.9406 431.632 80.711 464.942 77.6943 497.452 73.9518 528.891 71.8253 544.14 69.5406 559.016 67.1042 573.494 64.5235 587.54 61.8059 601.123 58.9587 614.208 55.9892 626.763 52.9047 638.756 49.7122 650.154 46.4186 660.924 43.0305 671.036 39.5542 680.456 35.9953 689.154 32.3585 697.1 28.647 704.263 24.7265 710.842 19.8238 715.243 16.7618 711.833 21.4053 707.664 20.9677 708.196 24.675 701.975 24.6088 702.094 28.2633 695.041 28.2143 695.142 31.8083 687.289 31.771 687.375 35.2971 678.757 35.2681 678.832 38.7186 669.481 38.6957 669.547 42.0631 659.497 42.0445 659.555 45.3213 648.839 45.3061 648.891 48.4847 637.543 48.472 637.591 51.5448 625.643 51.5341 625.687 54.4937 613.173 54.4845 613.213 57.3232 600.167 57.3154 600.205 60.0257 586.659 60.0189 586.694 62.5932 572.683 62.5873 572.716 65.0181 558.272 65.0129 558.304 67.2927 543.46 67.2881 543.491 69.4092 528.281 69.4033 528.327 73.1396 496.94 73.1333 496.999 76.1445 464.547 76.1398 464.606 78.3655 431.355 78.3623 431.415 79.742 397.631 79.7403 397.693 80.2136 363.643 80.2136 363.706 79.7402 329.656 79.7419 329.718 78.3622 295.934 78.3654 295.994 76.1396 262.743 76.1443 262.801 73.1329 230.349 73.1392 230.409 69.4027 199.022 69.4086 199.068 67.2873 183.857 67.2919 183.889 65.012 169.044 65.0172 169.077 62.5862 154.632 62.5921 154.666 60.0176 140.654 60.0245 140.69 57.314 127.144 57.3218 127.182 54.483 114.135 54.4921 114.176 51.5323 101.662 51.5431 101.706 48.47 89.7581 48.4827 89.8053 45.3039 78.4572 45.3192 78.5092 42.0422 67.7937 42.0608 67.8516 38.6931 57.802 38.7161 57.8672 35.2654 48.5168 35.2943 48.5912 31.7681 39.9733 31.8053 40.0592 28.2111 32.2071 28.2601 32.3076 24.6054 25.2545 24.6716 25.3734 20.9641 19.1528 21.0559 19.2947 17.3031 13.9397 17.4342 14.1094 13.6436 9.65334 13.8355 9.85308 10.0146 6.32933 10.2985 6.55243 6.45501 3.99424 6.86614 4.21124 3.00752 2.65191 3.55655 2.79783-0.309618 2.27065ZM30.2367 721.749 0.00505249 727.349 13.6641 699.803Z" transform="matrix(1.83697e-16 1 1 -1.83697e-16 2682.5 3050.5)"/><path d="M3216.5 3329.5 3243.25 3189.5 3323.5 3189.5 3296.75 3329.5Z" stroke="#000000" stroke-width="4.58333" stroke-miterlimit="8" fill="#C1E5F5" fill-rule="evenodd"/><text font-family="Segoe UI,Segoe UI_MSFontService,sans-serif" font-weight="400" font-size="92" transform="matrix(1 0 0 1 3423.96 3304)">Reduced slot time by Idle</text><path d="M3217.5 3510.5 3244.25 3370.5 3324.5 3370.5 3297.75 3510.5Z" stroke="#000000" stroke-width="4.58333" stroke-miterlimit="8" fill="#FFFFFF" fill-rule="evenodd"/><text font-family="Segoe UI,Segoe UI_MSFontService,sans-serif" font-weight="400" font-size="92" transform="matrix(1 0 0 1 3424.31 3485)">Carried over slot time</text><text font-family="Yu Gothic,Yu Gothic_MSFontService,sans-serif" font-weight="400" font-size="92" transform="matrix(1 0 0 1 1666.04 3716)">(2) DCF</text><text font-family="Yu Gothic,Yu Gothic_MSFontService,sans-serif" font-weight="400" font-size="92" transform="matrix(1 0 0 1 2000.62 3716)">における再送制御</text><path d="M1596.5 210.5 1596.5 733.824" stroke="#000000" stroke-width="4.58333" stroke-miterlimit="8" fill="none" fill-rule="evenodd"/><path d="M-154.5 525.5 3900.6 525.5" stroke="#000000" stroke-width="4.58333" stroke-miterlimit="8" fill="none" fill-rule="evenodd"/><path d="M3759.5 560.208 3838.73 560.208 3838.73 564.792 3759.5 564.792ZM3834.14 548.75 3861.64 562.5 3834.14 576.25Z"/><path d="M3762.5 561.208 3841.73 561.208 3841.73 565.792 3762.5 565.792ZM3837.14 549.75 3864.64 563.5 3837.14 577.25Z"/><text font-family="Segoe UI,Segoe UI_MSFontService,sans-serif" font-weight="400" font-size="92" transform="matrix(1 0 0 1 3797.8 678)">t</text><path d="M804.5 526.5 831.25 386.5 911.5 386.5 884.75 526.5Z" stroke="#000000" stroke-width="4.58333" stroke-miterlimit="8" fill="#C1E5F5" fill-rule="evenodd"/><path d="M882.5 526.5 909.25 386.5 989.5 386.5 962.75 526.5Z" stroke="#000000" stroke-width="4.58333" stroke-miterlimit="8" fill="#C1E5F5" fill-rule="evenodd"/><path d="M958.5 525.5 985.25 385.5 1065.5 385.5 1038.75 525.5Z" stroke="#000000" stroke-width="4.58333" stroke-miterlimit="8" fill="#C1E5F5" fill-rule="evenodd"/><path d="M529.417 422.208 778.654 422.209 778.654 426.792 529.417 426.792ZM534 438.25 506.5 424.5 534 410.75ZM774.071 410.75 801.571 424.5 774.07 438.25Z"/><text font-family="Segoe UI,Segoe UI_MSFontService,sans-serif" font-weight="400" font-size="92" transform="matrix(1 0 0 1 563.014 307)">DIFS</text><rect x="1595.5" y="343.5" width="1237" height="182" stroke="#000000" stroke-width="4.58333" stroke-miterlimit="8" fill="#FFFFFF"/><text font-family="Segoe UI,Segoe UI_MSFontService,sans-serif" font-weight="400" font-size="92" transform="matrix(1 0 0 1 2105.35 468)">DATA</text><rect x="3017.5" y="343.5" width="266" height="182" stroke="#000000" stroke-width="4.58333" stroke-miterlimit="8" fill="#FFFFFF"/><text font-family="Segoe UI,Segoe UI_MSFontService,sans-serif" font-weight="400" font-size="92" transform="matrix(1 0 0 1 3065.78 468)">ACK</text><path d="M2855.42 432.223 2994.56 432.313 2994.56 436.896 2855.42 436.806ZM2859.99 448.268 2832.5 434.5 2860.01 420.768ZM2989.99 420.852 3017.48 434.619 2989.97 448.352Z"/><text font-family="Segoe UI,Segoe UI_MSFontService,sans-serif" font-weight="400" font-size="92" transform="matrix(1 0 0 1 2849.62 312)">SIFS</text><text font-family="Yu Gothic,Yu Gothic_MSFontService,sans-serif" font-weight="400" font-size="92" transform="matrix(1 0 0 1 1070.32 514)">・・・・</text><text font-family="Yu Gothic,Yu Gothic_MSFontService,sans-serif" font-weight="400" font-size="92" transform="matrix(1 0 0 1 1436.99 514)">・</text><path d="M1516.5 526.5 1543 387.5 1622.5 387.5 1596 526.5Z" stroke="#000000" stroke-width="4.58333" stroke-miterlimit="8" fill="#C1E5F5" fill-rule="evenodd"/><path d="M802.5 195.5 802.501 718.824" stroke="#000000" stroke-width="4.58333" stroke-miterlimit="8" fill="none" fill-rule="evenodd"/><path d="M504.5 77.4998 504.5 597.185" stroke="#000000" stroke-width="4.58333" stroke-miterlimit="8" fill="none" fill-rule="evenodd"/><path d="M825.417 622.208 1573.26 622.209 1573.26 626.792 825.417 626.792ZM830 638.25 802.5 624.5 830 610.75ZM1568.68 610.75 1596.18 624.5 1568.68 638.25Z"/><text font-family="Segoe UI,Segoe UI_MSFontService,sans-serif" font-weight="400" font-size="92" transform="matrix(1 0 0 1 1070.16 734)">Backof</text><text font-family="Segoe UI,Segoe UI_MSFontService,sans-serif" font-weight="400" font-size="92" transform="matrix(1 0 0 1 1336.53 734)">f</text><path d="M909.5 201.5 909.5 386.945" stroke="#000000" stroke-width="4.58333" stroke-miterlimit="8" fill="none" fill-rule="evenodd"/><path d="M987.5 201.5 987.5 386.945" stroke="#000000" stroke-width="4.58333" stroke-miterlimit="8" fill="none" fill-rule="evenodd"/><path d="M9.17166e-06-2.29167 67.2574-2.2914 67.2573 2.29194-9.17166e-06 2.29167ZM62.6741-13.7497 90.174 0.000360892 62.674 13.7503Z" transform="matrix(-1 0 0 1 1077.67 264.5)"/><path d="M810.5 262.208 877.757 262.208 877.757 266.792 810.5 266.792ZM873.174 250.75 900.674 264.5 873.174 278.25Z"/><text font-family="Segoe UI,Segoe UI_MSFontService,sans-serif" font-weight="400" font-size="92" transform="matrix(1 0 0 1 777.628 194)">Slot time</text><path d="M2832.5 79.4999 2832.5 599.185" stroke="#000000" stroke-width="4.58333" stroke-miterlimit="8" fill="none" fill-rule="evenodd"/><rect x="167.5" y="344.5" width="337" height="182" stroke="#000000" stroke-width="4.58333" stroke-miterlimit="8" fill="#FFFFFF"/><text font-family="Segoe UI,Segoe UI_MSFontService,sans-serif" font-weight="400" font-size="92" transform="matrix(1 0 0 1 241.018 469)">bus</text><text font-family="Segoe UI,Segoe UI_MSFontService,sans-serif" font-weight="400" font-size="92" transform="matrix(1 0 0 1 385.966 469)">y</text><text font-family="Yu Gothic,Yu Gothic_MSFontService,sans-serif" font-weight="400" font-size="92" transform="matrix(1 0 0 1 2032.71 853)">(1) DCF</text></g></svg>